<svg width="50" height="50" viewBox="0 0 50 50" fill="none" xmlns="http://www.w3.org/2000/svg">
<path d="M7.75679 29.251C7.75637 29.251 7.75637 29.251 7.75596 29.251C6.77717 29.304 5.86289 28.9051 5.2279 28.229H0.981289C0.439399 28.229 0 28.6684 0 29.2103V39.8416C0 40.3837 0.439399 40.8229 0.981289 40.8229H1.13054V41.5884H3.73979V40.8229H8.85393V41.5884H11.4632V40.8229H11.6126C12.1547 40.8229 12.5939 40.3837 12.5939 39.8416V29.2103C12.5939 29.013 12.5344 28.83 12.434 28.6759C11.0409 28.755 9.61229 28.9306 8.18534 29.1994C8.04381 29.2262 7.89978 29.2433 7.75679 29.251Z" fill="currentColor"/>
<path d="M32.1777 32.0825L32.1337 32.1378L32.0773 32.1812C31.8713 32.3434 31.6427 32.476 31.3983 32.5783C31.3403 32.6803 31.2808 32.7816 31.2231 32.8839L31.0261 32.7622C30.6644 32.9237 30.2742 33.0206 29.8782 33.0421C29.8185 33.0454 29.7593 33.0467 29.6993 33.0469C28.979 33.0456 28.2968 32.8116 27.7286 32.3722C27.6954 32.3466 25.4143 30.6466 21.313 29.5457L17.1094 36.3538L19.063 37.5601L20.5983 35.0733L27.8658 39.5606C27.465 40.4605 27.0771 41.3658 26.7098 42.2811L28.6945 43.5067C31.5181 36.3659 35.3919 29.6954 40.1821 23.7141C37.1439 26.167 35.2936 28.2198 32.1777 32.0825ZM28.3891 38.4115L21.2564 34.0075L23.3035 30.6921L30.1256 34.9047C29.5182 36.0584 28.9395 37.2278 28.3891 38.4115Z" fill="currentColor"/>
<path d="M6.98636 22.8404C8.71974 22.5137 10.4629 22.301 12.1683 22.2089C12.8538 22.1718 13.5452 22.1534 14.224 22.1542C18.4153 22.1603 22.4035 22.8794 26.0821 24.2913C26.1222 24.2625 26.16 24.2341 26.1997 24.2053C22.8619 22.4521 17.9588 20.7452 11.6457 20.7473C10.121 20.7473 8.51601 20.8467 6.83398 21.0663C5.40536 21.2529 4.39798 22.5627 4.5848 23.9914C4.60923 24.1794 4.65452 24.3598 4.71569 24.5316C4.77538 24.4168 4.83989 24.304 4.91378 24.1957C5.40077 23.482 6.13679 23.0009 6.98636 22.8404Z" fill="currentColor"/>
<path d="M45.2518 10.9917C45.2881 11.8845 45.0919 12.7975 44.6341 13.6377C44.5024 13.8792 44.3513 14.1053 44.1863 14.3188C44.9647 14.886 45.5404 15.3844 45.9318 15.7965C46.4593 16.3436 46.6319 16.7289 46.6534 16.8346C46.6142 16.8788 46.5192 16.9671 46.3572 17.0652C45.9634 17.3142 45.2088 17.5812 44.3903 17.757C43.4482 17.9674 42.429 18.0816 41.6579 18.1423C41.5232 18.0056 41.3863 17.8973 41.256 17.835C39.0937 16.7826 36.9318 15.7307 34.7705 14.6785C34.6709 14.4902 34.5496 14.2541 34.4181 13.985C34.072 13.2762 33.66 12.3295 33.4066 11.4718C33.2354 10.903 33.144 10.3707 33.1477 10.0469C33.1475 9.9743 33.1519 9.91293 33.1578 9.86597C33.1887 9.86304 33.2264 9.86158 33.2719 9.86158C33.5857 9.85386 34.2121 9.96867 35.1095 10.2968C35.203 9.76661 35.3815 9.24246 35.6528 8.7444C35.943 8.21232 36.3198 7.74683 36.7594 7.35837C35.4138 6.81439 34.3088 6.5328 33.2772 6.52174C32.7812 6.5209 32.2915 6.59187 31.8243 6.77348C31.3584 6.95216 30.9244 7.25441 30.6061 7.63015C29.9594 8.39998 29.8112 9.28588 29.8081 10.0417C29.8104 10.8719 29.9814 11.6586 30.2049 12.4209C30.4306 13.1808 30.7184 13.9093 31.0017 14.5543C31.1248 14.8346 31.2474 15.0976 31.3645 15.3406C30.9301 19.3735 30.4341 22.0543 26.1668 24.9971C23.2873 23.8553 19.2452 22.788 14.2225 22.7807C12.027 22.7774 9.6465 22.9759 7.10216 23.4558C5.68586 23.723 4.75425 25.0875 5.02123 26.5038C5.288 27.9195 6.65253 28.8513 8.06883 28.5843C10.29 28.1656 12.3399 27.9965 14.2144 27.9992C22.9846 28.0061 28.0476 31.8273 28.1094 31.8751C28.5828 32.2417 29.1435 32.4197 29.7 32.4206C30.1757 32.4212 30.6479 32.2909 31.0614 32.0396C31.2785 31.9597 31.492 31.8447 31.6901 31.6891C35.4341 27.0472 37.3825 24.9458 42.0814 21.4588C42.2453 21.445 42.4171 21.4291 42.5972 21.411C43.8158 21.2826 45.3417 21.0586 46.7417 20.5537C47.67 20.204 48.5924 19.7617 49.3126 18.856C49.7173 18.3423 50.0056 17.6234 49.9996 16.8767C49.9908 15.7445 49.46 14.7657 48.6672 13.8423C47.881 12.9355 46.7787 12.0179 45.2518 10.9917Z" fill="currentColor"/>
<path d="M44.2885 13.4475C45.531 11.1701 44.692 8.31662 42.4146 7.07414C40.1371 5.83167 37.2837 6.67067 36.0412 8.94811C34.7987 11.2255 35.6377 14.079 37.9152 15.3215C40.1926 16.564 43.0461 15.7249 44.2885 13.4475Z" fill="currentColor"/>
</svg>
