<svg width="50" height="50" viewBox="0 0 50 50" fill="none" xmlns="http://www.w3.org/2000/svg">
<g clip-path="url(#clip0_326_199)">
<path d="M23.2163 35.07L14.9298 26.7836C13.2164 25.0702 10.4286 25.0702 8.71511 26.7836C8.14314 27.3556 8.14314 28.2832 8.71511 28.8552L21.1447 41.2848C21.7166 41.8569 22.6443 41.8569 23.2163 41.2848C24.9298 39.5713 24.9298 36.7835 23.2163 35.07Z" fill="currentColor"/>
<path d="M10.7871 35.0703L6.64404 39.2134L10.7871 43.3565L14.9302 39.2134L10.7871 35.0703Z" fill="currentColor"/>
<path d="M8.71561 45.4283L4.57187 41.2845C2.88798 39.6005 0.000585936 40.7968 0 43.1783V45.6059C0 46.8177 0.492577 47.9152 1.28867 48.7113C2.08476 49.5074 3.18222 50 4.39403 50H6.82167C9.20242 49.9996 10.3991 47.1117 8.71561 45.4283Z" fill="currentColor"/>
<path d="M48.33 0.0131646L33.8289 2.08484C33.4657 2.1364 33.1349 2.32351 32.9023 2.60681L15.6499 23.3602L20.1091 27.8194L33.5745 14.354C34.147 13.7814 35.0736 13.7814 35.6461 14.354C36.2185 14.9265 36.2186 15.8531 35.6461 16.4255L22.1807 29.8909L26.6398 34.3501L47.3932 17.0978C47.6764 16.8652 47.8635 16.5343 47.9152 16.1712L49.9867 1.67C50.1184 0.757597 49.2423 -0.118378 48.33 0.0131646Z" fill="currentColor"/>
</g>
<defs>
<clipPath id="clip0_326_199">
<rect width="50" height="50" fill="currentColor"/>
</clipPath>
</defs>
</svg>
