<svg width="50" height="50" viewBox="0 0 50 50" fill="none" xmlns="http://www.w3.org/2000/svg">
<path fill-rule="evenodd" clip-rule="evenodd" d="M43.8455 17.3124L41.7422 18.0087C41.435 18.1104 41.2276 18.3976 41.2276 18.7212C41.2276 19.0448 41.435 19.3319 41.7422 19.4336L43.8455 20.13L44.542 22.2334C44.6437 22.5405 44.9307 22.748 45.2543 22.748C45.5779 22.748 45.865 22.5405 45.9667 22.2334L46.6631 20.13L48.7665 19.4336C49.0736 19.3319 49.2811 19.0448 49.2811 18.7212C49.2811 18.3976 49.0736 18.1104 48.7665 18.0087L46.6631 17.3124L45.9667 15.2091C45.865 14.9018 45.5779 14.6945 45.2543 14.6945C44.9307 14.6945 44.6437 14.9018 44.542 15.2091L43.8455 17.3124ZM41.5637 3.59259L40.6626 6.31431C40.6555 6.33622 40.6382 6.35326 40.6163 6.36057L37.8946 7.26169C37.5453 7.37723 37.3096 7.70364 37.3096 8.07161C37.3096 8.43959 37.5453 8.766 37.8946 8.88173L40.6163 9.78266C40.6382 9.78997 40.6555 9.80719 40.6626 9.8291L41.5637 12.5506C41.6792 12.8999 42.0058 13.1358 42.3736 13.1358C42.7416 13.1358 43.068 12.8999 43.1837 12.5506L44.0847 9.8291C44.092 9.80719 44.1092 9.78997 44.1311 9.78266L46.8526 8.88173C47.2019 8.766 47.4378 8.43959 47.4378 8.07161C47.4378 7.70364 47.2019 7.37723 46.8526 7.26169L44.1311 6.36057C44.1092 6.35326 44.092 6.33622 44.0847 6.31431L43.1837 3.59259C43.068 3.24334 42.7416 3.00757 42.3736 3.00757C42.0058 3.00757 41.6792 3.24334 41.5637 3.59259Z" fill="currentColor"/>
<path fill-rule="evenodd" clip-rule="evenodd" d="M17.9435 10.4317C16.3242 7.78848 13.3114 6.50159 10.4468 6.54147C7.96107 6.57612 5.63392 7.62106 4.36612 9.48455C3.67362 10.5023 3.57174 11.3795 3.7298 12.0815C3.95695 13.0918 4.83279 13.9741 6.33092 14.4454C6.48935 14.4952 6.65601 14.5411 6.8298 14.5832C6.88953 14.5977 6.95171 14.5978 7.01144 14.5838L29.5775 9.25009C29.6373 9.23586 29.6927 9.20795 29.7397 9.16825C29.8762 9.0529 30.0047 8.93717 30.1242 8.82162C31.2526 7.72949 31.6408 6.5484 31.3918 5.54353C31.2186 4.84484 30.7349 4.10627 29.6599 3.50608C27.692 2.40758 25.1433 2.51507 22.9051 3.5969C20.3257 4.84372 18.2079 7.34335 17.9435 10.4317ZM15.1658 11.8003C14.0963 10.2827 12.232 9.58642 10.4895 9.61058C9.04459 9.6308 7.64084 10.128 6.90377 11.2113C6.86669 11.2656 6.83392 11.3175 6.80601 11.3677C6.93298 11.4233 7.08766 11.4658 7.25208 11.5175C9.27493 12.154 12.8959 11.987 15.1658 11.8003ZM28.3214 6.28249C28.274 6.25009 28.2214 6.21825 28.1639 6.18623C27.0199 5.54765 25.542 5.73155 24.241 6.36039C22.6717 7.119 21.3165 8.57631 21.0397 10.4119C23.1532 9.56264 26.4658 8.09073 27.9895 6.61619C28.1135 6.49616 28.2328 6.38885 28.3214 6.28249Z" fill="currentColor"/>
<path fill-rule="evenodd" clip-rule="evenodd" d="M13.7107 12.1984L3.60567 14.5868C1.56784 15.0686 0.304356 17.1141 0.786004 19.1521L0.979824 19.972C1.46147 22.01 3.50698 23.2735 5.54499 22.7918L15.65 20.4034L13.7107 12.1984ZM23.6987 18.501L16.4094 20.2238L14.4701 12.019L21.7596 10.2961L23.6987 18.501ZM22.519 10.1165L24.4581 18.3216L34.5633 15.933C36.6012 15.4514 37.8647 13.4059 37.383 11.3678L37.1892 10.5478C36.7075 8.50998 34.6618 7.24649 32.624 7.72814L22.519 10.1165Z" fill="currentColor"/>
<path fill-rule="evenodd" clip-rule="evenodd" d="M18.3731 20.5615L5.72463 23.5512C5.54654 23.5933 5.36845 23.6242 5.19092 23.6446V43.0521C5.19092 45.345 7.05234 47.2066 9.34541 47.2066H18.3731V20.5615ZM25.7248 20.4946V47.2066H19.1535V20.4946H25.7248ZM26.505 20.4946V47.2066H35.5329C37.8257 47.2066 39.6874 45.345 39.6874 43.0521C39.6874 43.0521 39.6874 28.3987 39.6874 22.9195C39.6874 21.5802 38.6018 20.4946 37.2625 20.4946H26.505Z" fill="currentColor"/>
</svg>
