<svg width="50" height="50" viewBox="0 0 50 50" fill="none" xmlns="http://www.w3.org/2000/svg">
<path d="M22.9702 7.19833V8.28628C24.4801 8.18405 25.2884 8.3065 25.3723 8.32023C25.8583 8.39958 26.2734 8.71353 26.4824 9.15908L28.6041 13.681C28.8609 13.7409 29.1054 13.8676 29.3076 14.0648C29.5635 14.3143 29.8699 14.5096 30.217 14.5943C30.9101 14.7633 31.5979 14.5706 32.0839 14.098C32.5855 13.6105 33.3508 13.4865 33.942 13.8603C34.7874 14.3944 34.8782 15.5258 34.2152 16.1888C33.2798 17.1245 32.0358 17.6399 30.7125 17.6399C30.6275 17.6399 30.5428 17.6376 30.4581 17.6334L33.3103 23.7129C33.4309 23.9693 33.5449 24.2275 33.6533 24.4869C36.8649 23.4741 40.5178 24.2264 43.0702 26.7498C43.6409 27.3136 43.7042 28.2345 43.1709 28.8341C42.873 29.1691 42.4633 29.3365 42.0536 29.3365C41.6718 29.3365 41.2895 29.1908 40.9985 28.8994C39.2685 27.1698 36.7848 26.6437 34.5951 27.3186C35.4256 30.6297 35.3703 34.0469 34.5131 37.2513C34.9167 37.3848 35.3275 37.5038 35.7449 37.6076C36.2293 37.7277 36.7355 37.7289 37.2204 37.6091C44.6846 35.7628 50 29.05 50 21.273V7.19833C50 6.50139 49.5697 5.87654 48.9174 5.63125C46.8616 4.85878 42.8886 3.80859 36.4857 3.80859C30.0823 3.80859 26.1089 4.85916 24.0528 5.63164C23.4005 5.87654 22.9702 6.50139 22.9702 7.19833ZM39.4714 14.0781C40.0543 13.4952 40.9992 13.4952 41.5825 14.0781C41.954 14.4497 42.448 14.6545 42.9737 14.6545C43.4994 14.6545 43.9938 14.4497 44.3653 14.0781C44.9482 13.4949 45.8935 13.4949 46.4764 14.0781C47.0593 14.661 47.0593 15.6059 46.4764 16.1888C45.5406 17.1245 44.297 17.6399 42.9737 17.6399C41.6508 17.6399 40.4068 17.1245 39.4711 16.1888C38.8886 15.6059 38.8886 14.661 39.4714 14.0781Z" fill="currentColor"/>
<path d="M30.6079 24.981L24.5978 12.1712C24.3213 11.5815 23.7086 11.2263 23.059 11.2755C20.8888 11.4396 16.8181 12.1594 10.955 14.9102C5.15776 17.63 2.00682 20.2687 0.473695 21.8411C-0.0126781 22.34 -0.137037 23.0885 0.158983 23.7194L6.13699 36.4617C9.44014 43.5021 17.1042 47.3217 24.6463 45.8225C25.1338 45.7257 25.59 45.5116 25.9761 45.1985C31.9499 40.3569 33.911 32.0217 30.6079 24.981ZM18.5298 24.0261C19.4579 21.4573 22.3029 20.1222 24.8717 21.0507C25.6469 21.3307 26.0482 22.1863 25.7682 22.9618C25.4882 23.737 24.6325 24.1387 23.857 23.8583C22.8366 23.4898 21.7063 24.02 21.3374 25.0405C21.1177 25.6485 20.5447 26.0266 19.9336 26.0266C19.765 26.0266 19.5937 25.998 19.4262 25.9373C18.6511 25.6569 18.2494 24.8013 18.5298 24.0261ZM12.757 29.0661C12.2626 28.8876 11.7282 28.912 11.2521 29.1355C10.7764 29.3587 10.4159 29.7539 10.2374 30.2483C10.0177 30.8564 9.44433 31.2344 8.83322 31.2344C8.66499 31.2344 8.49371 31.2054 8.32625 31.1451C7.55072 30.8651 7.14941 30.0095 7.42941 29.234C7.87916 27.9896 8.7863 26.9947 9.98411 26.4328C11.1823 25.8709 12.527 25.8087 13.7713 26.2585C14.5469 26.5385 14.9482 27.3941 14.6682 28.1697C14.3878 28.9448 13.5322 29.3461 12.757 29.0661ZM17.7691 38.8233C16.7144 38.8233 15.6428 38.6441 14.5949 38.2653C13.8194 37.9853 13.4181 37.1296 13.6981 36.3541C13.9785 35.5789 14.8337 35.1773 15.6093 35.4576C18.9193 36.6535 22.5852 34.9335 23.7811 31.6239C24.0611 30.8483 24.9167 30.447 25.6923 30.727C26.4674 31.0074 26.8687 31.8631 26.5887 32.6386C25.212 36.4483 21.6048 38.8233 17.7691 38.8233Z" fill="currentColor"/>
</svg>
