<svg width="50" height="50" viewBox="0 0 50 50" fill="none" xmlns="http://www.w3.org/2000/svg">
<path d="M45.3549 35.0094L28.5058 20.0471L25.2134 23.3396L40.1756 40.1887C41.5813 41.783 44.0341 41.8584 45.5341 40.3585C47.0341 38.8584 46.9492 36.4056 45.3549 35.0094Z" fill="currentColor"/>
<path d="M25.2038 38.698C25.2038 37.0094 23.8358 35.6509 22.1566 35.6509H9.74149C8.06227 35.6509 6.69434 37.0094 6.69434 38.698V40.0565H25.2038V38.698Z" fill="currentColor"/>
<path d="M25.4586 41H6.43973C4.76051 41 3.39258 42.3585 3.39258 44.0472V46.4529C3.39258 47.0283 3.86428 47.5 4.43973 47.5H27.4586C28.0435 47.5 28.5058 47.0283 28.5058 46.4529V44.0472C28.5058 42.3585 27.1378 41 25.4586 41Z" fill="currentColor"/>
<path d="M12.3784 16.8264L22.007 7.19788L31.0032 16.1941L21.3747 25.8227L12.3784 16.8264Z" fill="currentColor"/>
<path d="M31.8586 15.7244C32.7444 16.6102 34.1782 16.6103 35.0641 15.7244C35.95 14.8385 35.9499 13.4047 35.0641 12.5189L25.7039 3.15872C25.261 2.71575 24.6782 2.4943 24.1012 2.50011C23.5242 2.4943 22.9414 2.71575 22.4984 3.15872C21.6125 4.04465 21.6125 5.47834 22.4984 6.36427L31.8586 15.7244Z" fill="currentColor"/>
<path d="M17.6901 29.8929C18.576 30.7788 20.0097 30.7788 20.8956 29.8929C21.7815 29.007 21.7814 27.5732 20.8956 26.6873L11.5355 17.3273C11.0925 16.8843 10.5097 16.6628 9.93855 16.6628C9.35573 16.6628 8.7729 16.8843 8.32993 17.3273C7.44406 18.2131 7.44406 19.6469 8.32993 20.5328L17.6901 29.8929Z" fill="currentColor"/>
</svg>
