<svg width="50" height="50" viewBox="0 0 50 50" fill="none" xmlns="http://www.w3.org/2000/svg">
<path d="M45.9094 31.8725C42.5459 23.0886 38.5349 14.8155 32.7363 7.37858C32.0309 6.43394 31.0344 5.74754 29.9004 5.4252C26.9267 4.57751 23.858 4.10762 20.7669 4.02663C20.0626 4.00323 19.3711 4.21801 18.804 4.63625C18.2368 5.05449 17.8274 5.65175 17.6417 6.3315C17.1541 8.14685 16.8015 9.99579 16.5869 11.8632C16.5424 12.3652 16.619 12.8706 16.8103 13.3368C17.0016 13.8031 17.302 14.2167 17.6863 14.5428C18.0706 14.8689 18.5275 15.098 19.0187 15.2109C19.5099 15.3237 20.021 15.3171 20.5091 15.1915L25.8219 13.7695L28.7831 25.622C30.9852 27.1285 32.826 29.1043 34.1732 31.4073C34.2249 31.4962 34.2581 31.5947 34.271 31.6968C34.2839 31.7989 34.2761 31.9025 34.2481 32.0015C34.2201 32.1005 34.1724 32.1929 34.108 32.2731C34.0436 32.3533 33.9637 32.4198 33.8731 32.4685C33.6948 32.5704 33.4836 32.5976 33.2853 32.5443C33.0871 32.491 32.918 32.3614 32.8149 32.1839C28.7885 25.103 19.6736 21.9654 13.7351 27.9349C12.4373 26.6699 10.8531 25.7372 9.11729 25.2162C7.38151 24.6951 5.54553 24.6012 3.76562 24.9423C3.65635 24.9657 3.55295 25.011 3.46165 25.0754C3.37035 25.1399 3.29304 25.2222 3.23437 25.3173C3.16661 25.4394 3.12911 25.5761 3.125 25.7157V40.9669C3.12587 41.0927 3.15681 41.2165 3.21525 41.328C3.27369 41.4394 3.35792 41.5353 3.46094 41.6076C4.75794 42.506 7.8363 43.1389 10.5552 43.6936C11.588 43.8795 12.6103 44.1195 13.6179 44.4124C16.4312 45.4633 19.4124 45.9928 22.4155 45.9751C27.7373 45.8568 32.9659 44.5544 37.7213 42.1623C40.4389 40.6651 43.819 41.4927 45.714 38.74C46.4346 37.7482 46.8388 36.5619 46.8736 35.3365C46.9085 34.111 46.5724 32.9036 45.9094 31.8725ZM30.6973 40.7559C25.3417 42.3859 20.0479 42.6502 15.0008 40.7559C14.9043 40.7205 14.8156 40.6663 14.7401 40.5965C14.6645 40.5267 14.6035 40.4426 14.5606 40.3491C14.5177 40.2556 14.4937 40.1546 14.4899 40.0518C14.4862 39.949 14.5029 39.8465 14.5389 39.7501C14.575 39.6538 14.6298 39.5655 14.7001 39.4904C14.7704 39.4153 14.8549 39.3549 14.9486 39.3126C15.0424 39.2703 15.1436 39.2469 15.2464 39.2439C15.3493 39.2408 15.4517 39.2582 15.5478 39.2949C19.8762 40.9356 24.8219 40.92 30.2442 39.2636C30.4406 39.2082 30.651 39.2321 30.8301 39.3301C31.0092 39.4281 31.1427 39.5924 31.202 39.7877C31.2613 39.983 31.2417 40.1938 31.1473 40.3749C31.0529 40.5559 30.8914 40.6927 30.6973 40.7559Z" fill="currentColor"/>
</svg>
