<svg width="50" height="50" viewBox="0 0 50 50" fill="none" xmlns="http://www.w3.org/2000/svg">
<path d="M47.1555 32.364C46.1273 31.6474 44.9123 31.3824 43.8403 31.149C43.4439 31.0579 43.0518 31.3142 42.9657 31.7106C42.8788 32.1069 43.1301 32.499 43.5272 32.5852C44.5102 32.7999 45.527 33.0217 46.3154 33.5703C46.9243 33.9947 47.5016 34.809 47.3286 35.5946C47.0801 36.7241 45.4638 37.226 44.5217 37.4249C41.2064 38.1257 37.7109 38.0941 34.3338 38.0661C32.38 38.0496 30.3587 38.0324 28.3696 38.153C26.899 38.2428 25.3624 38.4395 24.0914 39.2638C22.7795 40.114 21.724 41.935 22.3516 43.6361C22.4729 43.9643 22.6395 44.2465 22.8011 44.52C23.0072 44.8705 23.1852 45.1728 23.1946 45.4514C23.2068 45.824 22.8887 46.1867 22.5684 46.3805C22.129 46.6462 21.5639 46.7539 20.9736 46.8509C15.084 47.8167 8.5272 47.9804 2.85209 47.3148C3.13039 45.8746 3.6512 44.3044 4.43102 42.546C5.66155 42.518 7.01573 42.3576 8.47271 42.0582C12.73 41.2053 16.9947 39.2935 20.7962 36.5287C22.1859 35.5288 23.5462 34.4773 24.8404 33.3964C24.958 33.3008 25.0021 33.139 24.958 32.992C24.9065 32.8523 24.7742 32.7494 24.6197 32.742C23.3403 32.6979 21.5609 32.4405 19.7447 31.6096C21.8183 31.6464 25.5021 31.4258 28.7668 29.8891C28.8036 29.8743 28.833 29.8523 28.8624 29.8229C31.1124 27.6832 33.208 25.4037 35.0977 23.0508C35.1859 22.9479 35.2006 22.7934 35.1418 22.6685C35.083 22.5435 34.958 22.4552 34.8183 22.4552C33.6418 22.4405 31.5021 22.2346 29.3256 21.1464C31.3109 21.0067 35.2006 20.6096 37.6124 19.6243C37.6786 19.6023 37.73 19.5582 37.7742 19.4993C40.2447 15.9699 42.2815 12.3155 43.8403 8.63903C43.8845 8.53613 43.8771 8.41845 43.8256 8.3155C43.7668 8.21991 43.6786 8.15376 43.5683 8.13168C42.2889 7.89638 41.0021 7.85962 40.0462 7.88906C41.6639 7.06553 43.2374 6.79344 44.3771 6.71992C44.5168 6.7052 44.6418 6.61697 44.6933 6.47726C45.7007 3.77138 46.0242 2.14641 46.0315 2.08021C46.0683 1.90375 45.9727 1.73465 45.8109 1.66845C45.6051 1.58757 40.6933 -0.331573 33.0315 1.85227C32.958 1.87431 32.8992 1.91111 32.855 1.9699C31.3624 3.71255 30.3036 6.02874 29.7153 7.53608C29.6492 6.21256 29.7742 4.84493 30.0903 3.46993C30.1271 3.33758 30.0757 3.19787 29.9727 3.10964C29.8698 3.02141 29.7227 2.99933 29.5977 3.0508C26.8183 4.20522 24.0462 5.79344 21.355 7.77138C21.3109 7.80082 21.2815 7.84494 21.2521 7.88905C19.98 10.139 19.5904 13.2714 19.4727 15.1611C18.958 13.7934 18.6565 12.3155 18.5683 10.7493C18.5609 10.6096 18.4727 10.4846 18.3477 10.4331C18.2154 10.3743 18.0683 10.4037 17.958 10.492C16.3624 11.8817 14.7374 13.4699 13.1198 15.2052C13.0977 15.2273 13.083 15.2493 13.0683 15.2787C11.7815 17.5287 11.3992 20.6905 11.2815 22.5802C10.8845 21.5287 10.6124 20.4037 10.4653 19.2273C10.4507 19.0802 10.3477 18.9552 10.208 18.9185C10.0609 18.8817 9.91386 18.9258 9.81826 19.0361C8.00211 21.2787 6.19327 23.742 4.44326 26.3817C2.73006 28.9405 1.64915 31.7199 1.30359 34.4111C0.921219 37.389 1.42121 39.4479 1.9874 40.7273C11.8771 19.3081 28.9653 12.9773 29.1344 12.9184C29.5168 12.7787 29.9359 12.9773 30.0756 13.3596C30.2153 13.742 30.0168 14.1611 29.6344 14.3008C29.4653 14.3596 12.9065 20.5214 3.2962 41.4037C3.16385 41.6979 3.03886 41.992 2.92855 42.2714C2.93273 42.2759 2.9364 42.2798 2.94044 42.2842C2.05403 44.3409 1.50755 46.1651 1.27288 47.8489C1.21687 48.2511 1.49692 48.6223 1.89975 48.6783C1.90145 48.6786 1.90312 48.6786 1.90482 48.6788C4.47332 49.0192 7.23639 49.1882 10.0526 49.1882C13.7916 49.1882 17.6239 48.8902 21.2113 48.3021C21.9193 48.1865 22.6654 48.04 23.3296 47.6386C24.1812 47.123 24.6924 46.2664 24.6637 45.4033C24.6429 44.7491 24.337 44.2307 24.0677 43.7733C23.9334 43.5456 23.8071 43.3309 23.7317 43.1263C23.3813 42.1785 24.0462 41.0453 24.8913 40.4975C25.9268 39.8268 27.276 39.6932 28.4594 39.6207C30.3974 39.503 32.3922 39.5202 34.3216 39.5367C37.7784 39.5661 41.3543 39.597 44.8254 38.8639C47.0823 38.3878 48.4445 37.366 48.7647 35.9105C49.085 34.4571 48.1874 33.0821 47.1555 32.364Z" fill="currentColor"/>
</svg>
