<svg width="50" height="50" viewBox="0 0 50 50" fill="none" xmlns="http://www.w3.org/2000/svg">
<g clip-path="url(#clip0_326_212)">
<path d="M12.7315 7.64999C15.5371 3.90052 19.8158 1.65276 25.454 0.965478C25.6266 0.793576 25.8637 0.571781 26.1621 0.32488C19.8696 0.022743 13.4579 2.10832 9.57242 7.30597C8.09336 9.28471 6.82883 13.6434 5.91558 19.9109C5.62638 21.8951 6.95159 23.9767 8.89016 24.5549C8.56388 18.9667 9.13717 12.4538 12.7315 7.64999Z" fill="currentColor"/>
<path d="M7.86426 45.7263H40.2597V49.9999H7.86426V45.7263Z" fill="currentColor"/>
<path d="M43.2771 18.3741C40.0071 13.7175 35.8402 9.8491 32.1356 5.55957C31.8056 5.17741 31.7586 4.62688 32.0191 4.1944L34.5146 0.0504859C29.7349 -0.439258 26.9364 2.7945 26.9058 2.83072C26.7115 3.06085 26.4355 3.20711 26.1357 3.23905C10.2907 4.92709 10.0769 20.8706 12.4056 33.2462C13.1929 37.5417 12.6205 41.0815 11.9503 43.3899H36.2413C36.9851 38.3307 35.0728 33.4317 31.236 30.2174C28.0208 27.524 26.3596 24.6102 26.0623 20.3575C22.5865 17.7126 23.0663 13.1302 23.0896 12.9277C23.1632 12.2867 23.7424 11.8251 24.385 11.9001C25.0269 11.9735 25.4876 12.5526 25.4141 13.1938C24.9427 17.6006 28.5143 19.8738 32.453 19.7524C32.6867 19.7462 32.9173 19.8082 33.1149 19.9332L39.0322 23.6768C39.6697 24.08 40.4685 24.096 41.1169 23.7182C42.4898 22.9182 44.1258 21.6797 44.1239 20.322C44.1228 19.6319 43.7723 19.0793 43.2771 18.3741ZM33.4863 11.892C33.0414 12.2477 32.6003 12.2385 32.1631 11.8644L31.2778 10.9424C30.9201 10.5697 30.9325 9.97826 31.3056 9.62089C31.6788 9.26373 32.2711 9.27591 32.6288 9.64856L33.5141 10.5706C33.8717 10.9431 33.8594 11.5347 33.4863 11.892Z" fill="currentColor"/>
</g>
<defs>
<clipPath id="clip0_326_212">
<rect width="50" height="50" fill="none"/>
</clipPath>
</defs>
</svg>
