<svg width="84" height="84" viewBox="0 0 84 84" fill="none" xmlns="http://www.w3.org/2000/svg">
<g clip-path="url(#clip0_353_4)">
<path d="M27.8073 69.7966C28.1851 70.337 28.8225 70.6348 29.4795 70.5779L58.7763 68.0348L10.96 45.6939L27.8073 69.7966Z" fill="#9799F8"/>
<path d="M73.279 38.0064L56.4307 13.9059L60.991 66.4866L73.4385 39.8452C73.7176 39.2478 73.6568 38.5468 73.279 38.0064Z" fill="#9799F8"/>
<path d="M24.6866 15.3028C24.0297 15.3597 23.453 15.7629 23.1739 16.3603L10.7264 43.0017L53.9824 12.762L24.6866 15.3028Z" fill="#9799F8"/>
<path d="M44.4361 49.2473C45.2049 49.6065 46.1225 49.2733 46.4816 48.5046L48.5645 44.0467C48.9237 43.2779 48.5904 42.3604 47.8217 42.0012C47.0529 41.6421 46.1353 41.9753 45.7762 42.7439L43.6933 47.2018C43.3341 47.9706 43.6675 48.8881 44.4361 49.2473Z" fill="#9799F8"/>
<path d="M56.9945 63.1279L53.072 17.9023L15.8667 43.912L56.9945 63.1279Z" fill="#9799F8"/>
</g>
<defs>
<clipPath id="clip0_353_4">
<rect width="63" height="63" fill="white" transform="translate(26.668) rotate(25.0431)"/>
</clipPath>
</defs>
</svg>
