<svg width="29" height="29" viewBox="0 0 29 29" fill="none" xmlns="http://www.w3.org/2000/svg">
<path d="M26.4716 10.73C25.9428 10.6532 25.4381 10.4581 24.9952 10.1592C24.5522 9.86028 24.1824 9.46531 23.9132 9.00368C23.6441 8.54205 23.4826 8.02565 23.4407 7.49293C23.3988 6.96022 23.4776 6.42491 23.6713 5.92688C23.7944 5.60129 23.8125 5.24533 23.7231 4.90891C23.6337 4.5725 23.4413 4.27248 23.1728 4.05094C21.9875 3.05558 20.6383 2.27364 19.1853 1.74C18.8545 1.6171 18.4933 1.60175 18.1532 1.69612C17.8131 1.7905 17.5115 1.9898 17.2913 2.26563C16.9598 2.68944 16.5362 3.03221 16.0526 3.26795C15.569 3.50369 15.038 3.62621 14.5 3.62621C13.962 3.62621 13.431 3.50369 12.9474 3.26795C12.4638 3.03221 12.0402 2.68944 11.7088 2.26563C11.4886 1.9898 11.1869 1.7905 10.8468 1.69612C10.5068 1.60175 10.1456 1.6171 9.81471 1.74C8.47315 2.23268 7.21884 2.93632 6.09908 3.82438C5.81682 4.04783 5.61352 4.35577 5.51894 4.70313C5.42435 5.05048 5.44346 5.41899 5.57346 5.75469C5.78258 6.2659 5.86898 6.819 5.82573 7.36963C5.78248 7.92026 5.61079 8.45309 5.32442 8.92538C5.03805 9.39766 4.64498 9.79626 4.17674 10.0892C3.7085 10.3821 3.17812 10.5613 2.62814 10.6122C2.27109 10.6504 1.93572 10.8022 1.67143 11.0453C1.40713 11.2884 1.22786 11.6099 1.16002 11.9625C0.991274 12.7978 0.90627 13.6478 0.90627 14.5C0.905029 15.2134 0.96262 15.9257 1.07846 16.6297C1.13611 16.9936 1.31204 17.3284 1.57905 17.5823C1.84606 17.8362 2.18928 17.9951 2.55564 18.0344C3.1177 18.0871 3.65894 18.2737 4.13406 18.5786C4.60919 18.8834 5.00439 19.2977 5.28657 19.7866C5.56875 20.2755 5.7297 20.825 5.75597 21.3889C5.78223 21.9528 5.67303 22.5148 5.43752 23.0278C5.28339 23.3615 5.24516 23.7372 5.3289 24.0951C5.41263 24.453 5.61353 24.7727 5.89971 25.0034C7.07794 25.9807 8.41416 26.75 9.85096 27.2781C10.0347 27.3418 10.2275 27.3754 10.4219 27.3778C10.6885 27.3772 10.9511 27.3127 11.1876 27.1898C11.4241 27.0668 11.6277 26.8889 11.7813 26.6709C12.1043 26.2003 12.5373 25.8157 13.0426 25.5504C13.548 25.285 14.1105 25.1471 14.6813 25.1484C15.2343 25.1491 15.7796 25.279 16.2736 25.5275C16.7676 25.7761 17.1968 26.1366 17.5269 26.5803C17.7465 26.8755 18.0575 27.0898 18.4116 27.1898C18.7656 27.2897 19.1428 27.2698 19.4844 27.1331C20.7982 26.6044 22.0213 25.8736 23.1094 24.9672C23.3827 24.7412 23.5774 24.4343 23.6653 24.0907C23.7532 23.7472 23.7299 23.3845 23.5988 23.055C23.3856 22.5504 23.2927 22.0031 23.3273 21.4564C23.3619 20.9097 23.5231 20.3786 23.7982 19.9049C24.0733 19.4312 24.4547 19.0279 24.9124 18.7268C25.37 18.4258 25.8914 18.2353 26.4353 18.1703C26.788 18.1215 27.116 17.9618 27.3719 17.7141C27.6277 17.4664 27.798 17.1438 27.8581 16.7928C28.0037 16.0369 28.0825 15.2697 28.0938 14.5C28.0939 13.6881 28.0181 12.878 27.8672 12.0803C27.806 11.7371 27.6382 11.4219 27.3877 11.1795C27.1372 10.9371 26.8166 10.7798 26.4716 10.73ZM19.0313 14.5C19.0313 15.3962 18.7655 16.2723 18.2676 17.0174C17.7697 17.7626 17.062 18.3434 16.2341 18.6863C15.4061 19.0293 14.495 19.119 13.616 18.9442C12.737 18.7694 11.9296 18.3378 11.2959 17.7041C10.6622 17.0704 10.2307 16.263 10.0558 15.384C9.881 14.505 9.97073 13.5939 10.3137 12.766C10.6566 11.938 11.2374 11.2303 11.9826 10.7324C12.7278 10.2345 13.6038 9.96875 14.5 9.96875C15.7018 9.96875 16.8543 10.4462 17.7041 11.2959C18.5539 12.1457 19.0313 13.2982 19.0313 14.5Z" fill="currentColor"/>
</svg>
