<svg width="32" height="32" viewBox="0 0 32 32" fill="none" xmlns="http://www.w3.org/2000/svg">
<path d="M4.66675 10H27.3334C28.4382 10 29.3334 9.10482 29.3334 8C29.3334 6.89518 28.4382 6 27.3334 6H4.66675C3.56193 6 2.66675 6.89518 2.66675 8C2.66675 9.10482 3.56193 10 4.66675 10Z" fill="currentColor"/>
<path d="M27.3334 14H4.66675C3.56193 14 2.66675 14.8952 2.66675 16C2.66675 17.1048 3.56193 18 4.66675 18H27.3334C28.4382 18 29.3334 17.1048 29.3334 16C29.3334 14.8952 28.4382 14 27.3334 14Z" fill="currentColor"/>
<path d="M27.3334 22H4.66675C3.56193 22 2.66675 22.8952 2.66675 24C2.66675 25.1048 3.56193 26 4.66675 26H27.3334C28.4382 26 29.3334 25.1048 29.3334 24C29.3334 22.8952 28.4382 22 27.3334 22Z" fill="currentColor"/>
</svg>
