<svg width="29" height="29" viewBox="0 0 29 29" fill="currentColor" xmlns="http://www.w3.org/2000/svg">
<path fill-rule="evenodd" clip-rule="evenodd" d="M3.625 12.5667C3.625 9.85974 3.625 8.50629 4.1518 7.47238C4.61519 6.56293 5.3546 5.82352 6.26405 5.36013C7.29796 4.83333 8.65141 4.83333 11.3583 4.83333H17.6417C20.3486 4.83333 21.702 4.83333 22.736 5.36013C23.6454 5.82352 24.3848 6.56293 24.8482 7.47238C25.375 8.50629 25.375 9.85974 25.375 12.5667V14.0167C25.375 16.7236 25.375 18.077 24.8482 19.111C24.3848 20.0204 23.6454 20.7598 22.736 21.2232C21.702 21.75 20.3486 21.75 17.6417 21.75H8.95884C8.63837 21.75 8.33102 21.8774 8.10442 22.1039L5.68776 24.5206C4.92654 25.2818 3.625 24.7427 3.625 23.6662V21.75V15.7083V12.5667ZM10.875 9.66667C10.2077 9.66667 9.66667 10.2077 9.66667 10.875C9.66667 11.5423 10.2077 12.0833 10.875 12.0833H18.125C18.7924 12.0833 19.3333 11.5423 19.3333 10.875C19.3333 10.2077 18.7924 9.66667 18.125 9.66667H10.875ZM10.875 14.5C10.2077 14.5 9.66667 15.041 9.66667 15.7083C9.66667 16.3757 10.2077 16.9167 10.875 16.9167H14.5C15.1674 16.9167 15.7083 16.3757 15.7083 15.7083C15.7083 15.041 15.1674 14.5 14.5 14.5H10.875Z" fill="currentColor"/>
</svg>
