<svg width="13" height="12" viewBox="0 0 13 12" fill="none" xmlns="http://www.w3.org/2000/svg">
<path d="M2.09287 5.34389C1.85639 5.34455 1.62494 5.41215 1.42528 5.53887C1.22562 5.66559 1.06591 5.84625 0.964643 6.05995C0.863374 6.27365 0.824676 6.51165 0.853028 6.74643C0.88138 6.9812 0.975623 7.20315 1.12485 7.38659L4.30609 11.2836C4.41951 11.4244 4.56491 11.5362 4.73019 11.6096C4.89548 11.6829 5.07589 11.7158 5.25643 11.7054C5.64256 11.6847 5.99117 11.4781 6.21343 11.1385L12.8217 0.495965C12.8227 0.4942 12.8239 0.492434 12.825 0.490695C12.887 0.395493 12.8669 0.206827 12.739 0.0883045C12.7038 0.0557568 12.6623 0.0307512 12.6172 0.0148275C12.572 -0.00109622 12.524 -0.00760082 12.4762 -0.00428558C12.4284 -0.000970352 12.3818 0.0120945 12.3392 0.0341043C12.2967 0.056114 12.2591 0.0866027 12.2288 0.123693C12.2264 0.126609 12.224 0.129481 12.2214 0.132309L5.55695 7.66219C5.53159 7.69084 5.50079 7.71417 5.46634 7.73082C5.43189 7.74747 5.39447 7.75711 5.35626 7.75918C5.31805 7.76124 5.27982 7.7557 5.24377 7.74286C5.20772 7.73002 5.17459 7.71015 5.14628 7.6844L2.93447 5.67163C2.70475 5.46105 2.4045 5.34413 2.09287 5.34389Z" fill="#5ADEB2"/>
</svg>
