<svg width="18" height="18" viewBox="0 0 18 18" fill="none" xmlns="http://www.w3.org/2000/svg">
<g clip-path="url(#clip0_89_165)">
<path d="M1.70631 17.8873C1.265 17.9129 0.830993 17.7662 0.4958 17.4781C-0.165267 16.8131 -0.165267 15.739 0.4958 15.074L14.971 0.598801C15.6586 -0.0445791 16.7375 -0.00881393 17.3808 0.678754C17.9626 1.30052 17.9965 2.25618 17.4602 2.91759L2.89976 17.4781C2.56889 17.7621 2.14184 17.9085 1.70631 17.8873Z" fill="currentColor"/>
<path d="M16.1645 17.8873C15.7173 17.8853 15.2886 17.7078 14.971 17.3928L0.495784 2.91753C-0.116659 2.20234 -0.0333945 1.12602 0.681797 0.513515C1.32012 -0.0331254 2.26153 -0.0331254 2.8998 0.513515L17.4603 14.9888C18.1477 15.6323 18.1832 16.7113 17.5397 17.3987C17.5141 17.426 17.4876 17.4525 17.4603 17.4781C17.1037 17.7881 16.6345 17.9363 16.1645 17.8873Z" fill="currentColor"/>
</g>
<defs>
<clipPath id="clip0_89_165">
<rect width="18" height="18" fill="currentColor"/>
</clipPath>
</defs>
</svg>
