<svg width="74" height="74" viewBox="0 0 74 74" fill="none" xmlns="http://www.w3.org/2000/svg">
<g clip-path="url(#clip0_67_111)">
<path d="M65.1244 46.3686C65.1245 46.0814 65.0107 45.8059 64.8079 45.6025L62.598 43.3927C61.8082 42.605 60.7383 42.1626 59.6228 42.1626C58.5073 42.1626 57.4374 42.605 56.6476 43.3927L43.3927 56.6476C42.605 57.4374 42.1626 58.5073 42.1626 59.6228C42.1626 60.7383 42.605 61.8082 43.3927 62.598L45.6025 64.8079C45.806 65.0105 46.0814 65.1243 46.3686 65.1243C46.6557 65.1243 46.9311 65.0105 47.1346 64.8079L64.8079 47.1346C65.0107 46.9312 65.1245 46.6557 65.1244 46.3686Z" fill="url(#paint0_linear_67_111)"/>
<path d="M59.622 55.3859L55.3857 59.6221L62.2929 66.535C62.6517 65.5635 63.2166 64.6813 63.9489 63.949C64.6812 63.2168 65.5634 62.6518 66.5349 62.293L59.622 55.3859Z" fill="url(#paint1_linear_67_111)"/>
<path d="M72.5418 65.4857C71.8442 64.7889 70.9557 64.3146 69.9886 64.1227C69.0215 63.9308 68.0193 64.0299 67.1085 64.4075C66.1977 64.7851 65.4193 65.4242 64.8717 66.244C64.324 67.0639 64.0317 68.0277 64.0317 69.0137C64.0317 69.9996 64.324 70.9634 64.8717 71.7833C65.4193 72.6032 66.1977 73.2423 67.1085 73.6199C68.0193 73.9974 69.0215 74.0965 69.9886 73.9046C70.9557 73.7127 71.8442 73.2384 72.5418 72.5417C73.4761 71.6053 74.0008 70.3365 74.0008 69.0137C74.0008 67.6909 73.4761 66.4221 72.5418 65.4857Z" fill="url(#paint2_linear_67_111)"/>
<path d="M17.3524 43.3927C16.5626 42.605 15.4927 42.1626 14.3772 42.1626C13.2618 42.1626 12.1918 42.605 11.402 43.3927L9.19215 45.6025C8.98951 45.806 8.87573 46.0814 8.87573 46.3686C8.87573 46.6557 8.98951 46.9311 9.19215 47.1346L26.8654 64.8079C27.0689 65.0105 27.3443 65.1243 27.6314 65.1243C27.9186 65.1243 28.194 65.0105 28.3975 64.8079L30.6073 62.598C31.3951 61.8082 31.8374 60.7383 31.8374 59.6228C31.8374 58.5073 31.3951 57.4374 30.6073 56.6476L17.3524 43.3927Z" fill="url(#paint3_linear_67_111)"/>
<path d="M7.46509 62.293C8.43655 62.6518 9.31877 63.2168 10.051 63.949C10.7833 64.6813 11.3483 65.5635 11.7071 66.535L18.6186 59.6221L14.378 55.3859L7.46509 62.293Z" fill="url(#paint4_linear_67_111)"/>
<path d="M1.45828 65.4857C0.760556 66.1834 0.285407 67.0724 0.0929189 68.0402C-0.0995689 69.008 -0.000749677 70.0112 0.376881 70.9228C0.754511 71.8345 1.39399 72.6137 2.21446 73.1619C3.03493 73.7101 3.99953 74.0027 4.98629 74.0027C5.97305 74.0027 6.93766 73.7101 7.75812 73.1619C8.57859 72.6137 9.21807 71.8345 9.5957 70.9228C9.97333 70.0112 10.0722 69.008 9.87966 68.0402C9.68718 67.0724 9.21203 66.1834 8.5143 65.4857C7.57751 64.5521 6.30886 64.0278 4.98629 64.0278C3.66372 64.0278 2.39507 64.5521 1.45828 65.4857Z" fill="url(#paint5_linear_67_111)"/>
<path d="M3.33413 17.8639C3.38241 18.104 3.51021 18.3209 3.6969 18.4796L24.9531 36.465L29.5275 31.0596L22.4021 23.9399C22.2956 23.8407 22.2102 23.721 22.151 23.5881C22.0917 23.4551 22.0599 23.3116 22.0573 23.166C22.0547 23.0205 22.0815 22.8759 22.136 22.7409C22.1905 22.6059 22.2717 22.4833 22.3746 22.3804C22.4776 22.2775 22.6002 22.1963 22.7351 22.1418C22.8701 22.0873 23.0147 22.0605 23.1602 22.0631C23.3058 22.0656 23.4493 22.0975 23.5823 22.1567C23.7153 22.216 23.8349 22.3014 23.9342 22.4079L30.9295 29.3989L35.5776 23.9067L18.4796 3.6969C18.3209 3.51021 18.104 3.38241 17.8639 3.33413L1.30057 0.0214695C1.12497 -0.0144223 0.943215 -0.00621308 0.771567 0.0453622C0.599919 0.0969375 0.443737 0.190269 0.317003 0.317003C0.190269 0.443737 0.0969375 0.599919 0.0453622 0.771567C-0.00621308 0.943215 -0.0144223 1.12497 0.0214695 1.30057L3.33413 17.8639Z" fill="url(#paint6_linear_67_111)"/>
<path d="M49.2533 47.7213L52.761 44.2121L48.7908 39.5206L44.5994 43.0674L49.2533 47.7213Z" fill="url(#paint7_linear_67_111)"/>
<path d="M47.7213 49.2534L42.9402 44.4723L38.678 48.0783L44.2135 52.7612L47.7213 49.2534Z" fill="url(#paint8_linear_67_111)"/>
<path d="M24.7466 47.7214L50.0598 22.4024C50.2653 22.2109 50.5371 22.1067 50.8179 22.1116C51.0988 22.1166 51.3667 22.2303 51.5653 22.4289C51.7639 22.6275 51.8777 22.8955 51.8826 23.1763C51.8876 23.4571 51.7833 23.7289 51.5919 23.9344L26.2787 49.2534L29.7864 52.7612L70.3029 18.4798C70.4896 18.3212 70.6174 18.1043 70.6657 17.8641L73.9783 1.30082C74.0142 1.12522 74.006 0.943459 73.9544 0.771811C73.9029 0.600163 73.8095 0.443982 73.6828 0.317248C73.5561 0.190514 73.3999 0.0971817 73.2282 0.0456064C73.0566 -0.00596894 72.8748 -0.0141781 72.6992 0.0217136L56.1359 3.33437C55.8958 3.38265 55.6789 3.51045 55.5202 3.69714L21.2461 44.2136L24.7466 47.7214Z" fill="url(#paint9_linear_67_111)"/>
</g>
<defs>
<linearGradient id="paint0_linear_67_111" x1="53.6435" y1="42.1626" x2="53.6435" y2="65.1243" gradientUnits="userSpaceOnUse">
<stop stop-color="#B384F5"/>
<stop offset="1" stop-color="#52B2F4"/>
</linearGradient>
<linearGradient id="paint1_linear_67_111" x1="60.9603" y1="55.3859" x2="60.9603" y2="66.535" gradientUnits="userSpaceOnUse">
<stop stop-color="#B384F5"/>
<stop offset="1" stop-color="#52B2F4"/>
</linearGradient>
<linearGradient id="paint2_linear_67_111" x1="69.0163" y1="64.0273" x2="69.0163" y2="74" gradientUnits="userSpaceOnUse">
<stop stop-color="#B384F5"/>
<stop offset="1" stop-color="#52B2F4"/>
</linearGradient>
<linearGradient id="paint3_linear_67_111" x1="20.3566" y1="42.1626" x2="20.3566" y2="65.1243" gradientUnits="userSpaceOnUse">
<stop stop-color="#B384F5"/>
<stop offset="1" stop-color="#52B2F4"/>
</linearGradient>
<linearGradient id="paint4_linear_67_111" x1="13.0418" y1="55.3859" x2="13.0418" y2="66.535" gradientUnits="userSpaceOnUse">
<stop stop-color="#B384F5"/>
<stop offset="1" stop-color="#52B2F4"/>
</linearGradient>
<linearGradient id="paint5_linear_67_111" x1="4.98629" y1="64.0278" x2="4.98629" y2="74.0027" gradientUnits="userSpaceOnUse">
<stop stop-color="#B384F5"/>
<stop offset="1" stop-color="#52B2F4"/>
</linearGradient>
<linearGradient id="paint6_linear_67_111" x1="17.7886" y1="-0.000488281" x2="17.7886" y2="36.465" gradientUnits="userSpaceOnUse">
<stop stop-color="#B384F5"/>
<stop offset="1" stop-color="#52B2F4"/>
</linearGradient>
<linearGradient id="paint7_linear_67_111" x1="48.6802" y1="39.5206" x2="48.6802" y2="47.7213" gradientUnits="userSpaceOnUse">
<stop stop-color="#B384F5"/>
<stop offset="1" stop-color="#52B2F4"/>
</linearGradient>
<linearGradient id="paint8_linear_67_111" x1="43.1996" y1="44.4723" x2="43.1996" y2="52.7612" gradientUnits="userSpaceOnUse">
<stop stop-color="#B384F5"/>
<stop offset="1" stop-color="#52B2F4"/>
</linearGradient>
<linearGradient id="paint9_linear_67_111" x1="47.6232" y1="-0.000244141" x2="47.6232" y2="52.7612" gradientUnits="userSpaceOnUse">
<stop stop-color="#B384F5"/>
<stop offset="1" stop-color="#52B2F4"/>
</linearGradient>
<clipPath id="clip0_67_111">
<rect width="74" height="74" fill="white"/>
</clipPath>
</defs>
</svg>
