<svg width="24" height="24" viewBox="0 0 24 24" fill="none" xmlns="http://www.w3.org/2000/svg">
<g clip-path="url(#clip0_91_499)">
<path d="M21.1214 15.0384C21.1214 14.9453 21.0845 14.8559 21.0187 14.79L20.302 14.0733C20.0459 13.8178 19.6989 13.6743 19.3371 13.6743C18.9753 13.6743 18.6283 13.8178 18.3722 14.0733L14.0733 18.3722C13.8178 18.6283 13.6743 18.9753 13.6743 19.3371C13.6743 19.6989 13.8178 20.0459 14.0733 20.302L14.79 21.0188C14.856 21.0845 14.9453 21.1214 15.0384 21.1214C15.1315 21.1214 15.2209 21.0845 15.2868 21.0188L21.0187 15.2869C21.0845 15.2209 21.1214 15.1316 21.1214 15.0384Z" fill="currentColor"/>
<path d="M19.3369 17.963L17.963 19.3369L20.2032 21.5789C20.3195 21.2638 20.5028 20.9777 20.7403 20.7402C20.9778 20.5027 21.2639 20.3195 21.579 20.2031L19.3369 17.963Z" fill="currentColor"/>
<path d="M23.527 21.2386C23.3007 21.0126 23.0126 20.8588 22.6989 20.7966C22.3853 20.7343 22.0602 20.7665 21.7648 20.8889C21.4694 21.0114 21.217 21.2187 21.0394 21.4846C20.8618 21.7505 20.767 22.063 20.767 22.3828C20.767 22.7026 20.8618 23.0152 21.0394 23.2811C21.217 23.547 21.4694 23.7543 21.7648 23.8767C22.0602 23.9992 22.3853 24.0313 22.6989 23.9691C23.0126 23.9068 23.3007 23.753 23.527 23.527C23.83 23.2233 24.0002 22.8118 24.0002 22.3828C24.0002 21.9538 23.83 21.5423 23.527 21.2386Z" fill="currentColor"/>
<path d="M5.62785 14.0733C5.3717 13.8178 5.02469 13.6743 4.66293 13.6743C4.30115 13.6743 3.95415 13.8178 3.698 14.0733L2.98128 14.79C2.91556 14.856 2.87866 14.9453 2.87866 15.0384C2.87866 15.1316 2.91556 15.2209 2.98128 15.2869L8.71316 21.0188C8.77914 21.0845 8.86847 21.1214 8.9616 21.1214C9.05472 21.1214 9.14406 21.0845 9.21003 21.0188L9.92675 20.302C10.1822 20.0459 10.3257 19.6989 10.3257 19.3371C10.3257 18.9753 10.1822 18.6283 9.92675 18.3722L5.62785 14.0733Z" fill="currentColor"/>
<path d="M2.42114 20.2031C2.73621 20.3195 3.02234 20.5027 3.25983 20.7402C3.49733 20.9777 3.68056 21.2638 3.79692 21.5789L6.03849 19.3369L4.66317 17.963L2.42114 20.2031Z" fill="currentColor"/>
<path d="M0.47293 21.2386C0.246641 21.4649 0.0925379 21.7532 0.0301095 22.0671C-0.032319 22.381 -0.000269532 22.7063 0.122205 23.002C0.24468 23.2977 0.452079 23.5504 0.718176 23.7282C0.984274 23.906 1.29712 24.0009 1.61715 24.0009C1.93718 24.0009 2.25002 23.906 2.51612 23.7282C2.78222 23.5504 2.98962 23.2977 3.11209 23.002C3.23457 22.7063 3.26662 22.381 3.20419 22.0671C3.14176 21.7532 2.98766 21.4649 2.76137 21.2386C2.45754 20.9358 2.04609 20.7658 1.61715 20.7658C1.18821 20.7658 0.776755 20.9358 0.47293 21.2386Z" fill="white"/>
<path d="M1.08125 5.79366C1.09691 5.87155 1.13836 5.9419 1.19891 5.99334L8.09281 11.8265L9.57641 10.0733L7.26547 7.76428C7.23093 7.7321 7.20323 7.69328 7.18401 7.65016C7.1648 7.60703 7.15446 7.56048 7.15363 7.51328C7.1528 7.46607 7.16148 7.41918 7.17916 7.37541C7.19685 7.33163 7.22316 7.29187 7.25655 7.25848C7.28993 7.2251 7.3297 7.19878 7.37347 7.1811C7.41725 7.16342 7.46414 7.15473 7.51134 7.15557C7.55855 7.1564 7.6051 7.16673 7.64822 7.18595C7.69135 7.20516 7.73016 7.23287 7.76235 7.26741L10.0311 9.53475L11.5386 7.7535L5.99328 1.19897C5.94184 1.13842 5.87149 1.09697 5.7936 1.08131L0.421721 0.00693834C0.36477 -0.00470224 0.305822 -0.0020398 0.250152 0.0146873C0.194482 0.0314144 0.143829 0.0616843 0.102726 0.102787C0.0616232 0.14389 0.0313534 0.194543 0.0146263 0.250213C-0.00210083 0.305883 -0.00476327 0.364831 0.0068773 0.421782L1.08125 5.79366Z" fill="currentColor"/>
<path d="M15.9741 15.4772L17.1118 14.3391L15.8241 12.8175L14.4647 13.9678L15.9741 15.4772Z" fill="currentColor"/>
<path d="M15.4772 15.9741L13.9265 14.4234L12.5442 15.593L14.3395 17.1117L15.4772 15.9741Z" fill="currentColor"/>
<path d="M8.02594 15.4772L16.2356 7.26562C16.3023 7.20352 16.3904 7.16972 16.4815 7.17132C16.5726 7.17293 16.6595 7.20983 16.7239 7.27424C16.7883 7.33865 16.8252 7.42555 16.8268 7.51663C16.8284 7.60771 16.7946 7.69585 16.7325 7.7625L8.52281 15.9741L9.66047 17.1117L22.8009 5.99344C22.8615 5.94199 22.9029 5.87164 22.9186 5.79375L23.993 0.421874C24.0046 0.364923 24.0019 0.305974 23.9852 0.250305C23.9685 0.194635 23.9382 0.143982 23.8971 0.102879C23.856 0.0617758 23.8054 0.031506 23.7497 0.0147789C23.694 -0.00194824 23.6351 -0.00461068 23.5781 0.00702989L18.2062 1.0814C18.1284 1.09706 18.058 1.13851 18.0066 1.19906L6.89062 14.3395L8.02594 15.4772Z" fill="currentColor"/>
</g>
<defs>
<clipPath id="clip0_91_499">
<rect width="24" height="24" fill="currentColor"/>
</clipPath>
</defs>
</svg>
