<svg width="33" height="33" viewBox="0 0 33 33" fill="none" xmlns="http://www.w3.org/2000/svg">
<g clip-path="url(#clip0_114_959)">
<path d="M12.2236 6.09535L26.5181 16.7722L9.15642 23.8396L12.2236 6.09535ZM5.96018 29.6831L21.1065 31.7523L8.8282 24.901L5.96018 29.6831ZM32.9674 18.6963L27.5972 4.55987V16.6065L27.6082 16.6231L32.9674 18.6963ZM26.9259 3.03896L12.8845 5.65904L26.9259 16.1478L26.9259 3.03896ZM27.48 17.3414L23.7436 30.8168L33.0002 19.477L27.48 17.3414ZM8.228 24.4158L0.432605 14.9908L5.45642 29.1276L8.23382 24.4858C8.24014 24.475 8.24297 24.4624 8.24193 24.4499C8.24089 24.4374 8.23603 24.4255 8.228 24.4158ZM9.51946 24.4659L22.718 31.8296L26.7004 17.4717L9.51946 24.4659ZM12.2912 5.03217L24.8187 2.69523L11.2684 1.17017L12.2221 4.98817C12.2259 5.00291 12.2351 5.01566 12.248 5.02384C12.2608 5.03201 12.2762 5.03499 12.2912 5.03217ZM11.4816 6.17948L0.0410143 13.2354C0.0305482 13.2425 0.0216495 13.2516 0.0148712 13.2623C0.00809293 13.273 0.00357983 13.2849 0.00161235 13.2974C-0.000355122 13.3099 0.000265069 13.3226 0.00343439 13.3348C0.00660371 13.3471 0.0122544 13.3585 0.0200355 13.3685L8.47274 23.5859L11.4816 6.17948ZM11.5454 5.2378L10.6083 1.49103L1.41508 11.546L11.5135 5.31763C11.5266 5.30937 11.5367 5.29721 11.5424 5.28288C11.5481 5.26854 11.5492 5.25277 11.5454 5.2378Z" fill="currentColor"/>
</g>
<defs>
<clipPath id="clip0_114_959">
<rect width="33" height="33" fill="currentColor"/>
</clipPath>
</defs>
</svg>
