<svg width="21" height="21" viewBox="0 0 21 21" fill="none" xmlns="http://www.w3.org/2000/svg">
<g clip-path="url(#clip0_91_906)">
<path d="M0 0.533203H3.44531V14.3249H0V0.533203Z" fill="#FB8B8D"/>
<path d="M21 8.60977C21 7.79346 20.5254 7.08627 19.8378 6.74869C20.0206 6.44011 20.126 6.08042 20.126 5.69638C20.126 4.81182 19.5686 4.05527 18.7866 3.75871C18.9426 3.46776 19.0314 3.13547 19.0314 2.78299C19.0314 1.64048 18.102 0.71106 16.9595 0.71106H7.56658L4.67578 1.8015V13.1503H5.82182L9.68674 17.6215L10.0189 19.4514C10.124 20.0299 10.6269 20.4498 11.215 20.4498H11.9259C13.2947 20.4498 14.4083 19.3362 14.4083 17.9674C14.4083 17.1071 14.2428 16.2675 13.9163 15.4716L13.1787 13.5951H18.3064C19.4489 13.5951 20.3785 12.6657 20.3785 11.5232C20.3785 11.0952 20.2479 10.6971 20.0248 10.3666C20.6099 9.99998 21 9.34966 21 8.60977Z" fill="#FB8B8D"/>
</g>
<defs>
<clipPath id="clip0_91_906">
<rect width="21" height="21" fill="white"/>
</clipPath>
</defs>
</svg>
