<svg width="24" height="24" viewBox="0 0 24 24" fill="none" xmlns="http://www.w3.org/2000/svg">
<path d="M11.9999 0C6.93806 0 2.81995 4.11816 2.81995 9.18C2.81995 14.2418 6.9381 18.36 11.9999 18.36C17.0618 18.36 21.1799 14.2418 21.1799 9.18C21.1799 4.11816 17.0618 0 11.9999 0ZM16.3077 15.1091L11.9999 13.0706L7.69218 15.1091L8.29977 10.3823L5.02987 6.91538L9.7131 6.03258L11.9999 1.85123L14.2867 6.03248L18.97 6.91528L15.7001 10.3823L16.3077 15.1091Z" fill="currentColor"/>
<path d="M13.3723 7.29114L11.9999 4.78192L10.6275 7.29114L7.81702 7.82092L9.77939 9.90151L9.41475 12.7382L11.9999 11.5148L14.5851 12.7382L14.2204 9.90151L16.1828 7.82092L13.3723 7.29114Z" fill="currentColor"/>
<path d="M5.58716 20.7868C6.20802 20.6966 6.80258 20.4866 7.34352 20.166V18.6925C6.72716 18.3902 6.13921 18.0264 5.58716 17.6043V20.7868Z" fill="currentColor"/>
<path d="M16.6564 20.166C17.1973 20.4866 17.7919 20.6966 18.4127 20.7868V17.6043C17.8607 18.0264 17.2727 18.3901 16.6564 18.6925V20.166Z" fill="currentColor"/>
<path d="M8.74988 19.2598V24C9.79092 23.8497 10.7482 23.3662 11.4979 22.6014L12 22.0891L12.5021 22.6014C13.2518 23.3662 14.2091 23.8497 15.2501 24V19.2598C14.2135 19.5928 13.1202 19.7663 12 19.7663C10.8798 19.7663 9.78647 19.5928 8.74988 19.2598Z" fill="currentColor"/>
</svg>
