<svg width="31" height="31" viewBox="0 0 31 31" fill="none" xmlns="http://www.w3.org/2000/svg">
<path d="M25.8606 3.875H5.13903C4.61299 3.87541 4.09837 4.02851 3.65764 4.3157C3.21691 4.6029 2.86902 5.01184 2.65618 5.49291C2.44334 5.97397 2.37471 6.50647 2.45862 7.02578C2.54253 7.54509 2.77537 8.02888 3.12888 8.41844L12.1092 18.2948V27.6094C12.1093 27.7915 12.1607 27.9698 12.2575 28.124C12.3543 28.2782 12.4926 28.402 12.6565 28.4812C12.7876 28.5459 12.9319 28.579 13.0779 28.5781C13.2981 28.578 13.5117 28.5028 13.6834 28.365L15.4998 26.9119L18.5272 24.49C18.6404 24.3993 18.7319 24.2843 18.7948 24.1535C18.8577 24.0227 18.8903 23.8795 18.8904 23.7344V18.2948L27.8708 8.41844C28.2243 8.02888 28.4571 7.54509 28.541 7.02578C28.6249 6.50647 28.5563 5.97397 28.3435 5.49291C28.1306 5.01184 27.7827 4.6029 27.342 4.3157C26.9013 4.02851 26.3866 3.87541 25.8606 3.875Z" fill="black"/>
</svg>
