<svg width="36" height="36" viewBox="0 0 36 36" fill="none" xmlns="http://www.w3.org/2000/svg">
<path d="M19.4804 17.5548L33.4395 8.751C32.9119 7.92964 32.1951 7.24668 31.3493 6.75923L21.0593 0.819956C19.1663 -0.273319 16.8338 -0.273319 14.9407 0.819956L4.65061 6.75923C3.90785 7.1884 3.26376 7.76917 2.76025 8.46375L17.1999 17.5549C17.8972 17.9919 18.7831 17.9919 19.4804 17.5548ZM15.602 8.05009C15.6015 6.72572 16.6749 5.65173 17.9993 5.6513C19.3237 5.65087 20.3977 6.7242 20.3981 8.04863C20.3985 9.37307 19.3252 10.447 18.0008 10.4474C18.0005 10.4474 18.0003 10.4474 18 10.4474C16.6759 10.4474 15.6023 9.37416 15.602 8.05009Z" fill="#02080D"/>
<path d="M17.8641 18.7538C17.4556 18.6909 17.0643 18.5452 16.7143 18.3255L2.28126 9.23807C1.8277 10.1096 1.59082 11.0776 1.59064 12.06V23.9422C1.59118 26.1282 2.75758 28.1478 4.65061 29.2408L14.9407 35.1816C15.831 35.6961 16.8367 35.9777 17.8648 36C17.8648 36 17.8648 35.9963 17.8648 35.9941L17.8641 18.7538ZM5.31259 27.1557C4.35308 26.449 3.60004 24.8708 3.60004 23.6196C3.60004 22.3684 4.35679 21.8563 5.3163 22.4999C6.30518 23.1612 7.12952 24.7819 7.12952 26.0999C7.12952 27.418 6.30147 27.8868 5.31259 27.1557ZM12.6683 23.6682C11.7088 22.9584 10.9521 21.3833 10.9521 20.1321C10.9521 18.8809 11.7088 18.3688 12.6683 19.0124C13.6572 19.6736 14.4808 21.2943 14.4808 22.6161C14.4808 23.9378 13.6572 24.3992 12.6683 23.6682Z" fill="#02080D"/>
<path d="M33.8694 9.55106L19.966 18.3255C19.6042 18.553 19.1983 18.7015 18.7751 18.7612V35.953C19.5801 35.8504 20.3566 35.5884 21.0593 35.1823L31.3494 29.2408C33.2427 28.1477 34.4091 26.1277 34.4094 23.9415V12.06C34.4091 11.1949 34.225 10.3397 33.8694 9.55106ZM22.727 32.4536C21.7675 33.0942 21.0107 32.5851 21.0107 31.3339C21.0107 30.0827 21.7675 28.5075 22.727 27.7979C23.7159 27.0632 24.5395 27.5283 24.5395 28.85C24.5395 30.1717 23.7159 31.7931 22.727 32.4536ZM22.727 23.7372C21.7675 24.3778 21.0107 23.8687 21.0107 22.6175C21.0107 21.3663 21.7675 19.7912 22.727 19.0814C23.7159 18.3497 24.5387 18.8118 24.5387 20.1305C24.5387 21.4493 23.7159 23.0768 22.727 23.7372ZM30.7726 27.2476C29.8131 27.8882 29.0564 27.3798 29.0564 26.1279C29.0564 24.876 29.8131 23.3015 30.7726 22.5918C31.7615 21.8608 32.5851 22.3222 32.5851 23.6439C32.5851 24.9657 31.7615 26.5871 30.7726 27.2476ZM30.7726 18.5312C29.8131 19.1755 29.0564 18.6613 29.0564 17.4123C29.0564 16.1633 29.8131 14.5859 30.7726 13.8762C31.7615 13.1415 32.5851 13.6073 32.5851 14.9282C32.5851 16.2492 31.7615 17.8707 30.7726 18.5312Z" fill="#02080D"/>
</svg>
