<svg width="27" height="27" viewBox="0 0 27 27" fill="none" xmlns="http://www.w3.org/2000/svg">
<path d="M25.2866 12.6385C25.2065 12.1239 24.9625 11.6488 24.5908 11.284C24.2191 10.9191 23.7396 10.684 23.2236 10.6134H16.7731C16.7059 10.6131 16.6398 10.5967 16.5802 10.5657C16.5206 10.5346 16.4693 10.4898 16.4305 10.4349C16.3917 10.38 16.3666 10.3167 16.3572 10.2502C16.3478 10.1836 16.3545 10.1158 16.3766 10.0524C16.6106 9.42469 16.7968 8.78019 16.9334 8.12438C17.5408 5.83888 17.2718 3.914 15.2374 2.6147C14.941 2.43081 14.6004 2.3305 14.2517 2.32439C13.9029 2.31828 13.559 2.4066 13.2564 2.57999C12.9538 2.75338 12.7036 3.00539 12.5325 3.30933C12.3614 3.61327 12.2757 3.95783 12.2844 4.30651C12.2904 5.2354 12.5037 6.72937 12.1241 7.58862C11.5321 9.17458 10.7712 10.6922 9.85438 12.1153L9.39453 12.6089C9.70005 13.0467 9.86219 13.5685 9.85859 14.1024V22.8731C9.85762 23.363 9.72189 23.8432 9.46625 24.2611C9.9528 24.5292 10.4971 24.6754 11.0525 24.6872H20.9455C21.4693 24.6976 21.9813 24.5313 22.3992 24.2153C22.817 23.8992 23.1163 23.4517 23.2489 22.9449C23.3639 22.3986 23.2642 21.8291 22.9705 21.3544C23.4869 21.1367 23.8984 20.7267 24.118 20.2111C24.244 19.906 24.2992 19.5763 24.2795 19.2467C24.2598 18.9172 24.1656 18.5964 24.0041 18.3085C24.5266 18.0884 24.9418 17.6717 25.16 17.1483C25.3134 16.7323 25.3416 16.2805 25.2411 15.8487C25.1406 15.4169 24.9159 15.0239 24.5947 14.7183C24.8651 14.4503 25.0687 14.1223 25.1889 13.761C25.3091 13.3997 25.3426 13.0151 25.2866 12.6385Z" fill="#67FFCC"/>
<path d="M7.20936 12.2925H2.10889C1.9971 12.2929 1.88999 12.3374 1.81094 12.4165C1.7319 12.4955 1.68735 12.6026 1.68701 12.7144V24.2611C1.68735 24.3729 1.7319 24.48 1.81094 24.5591C1.88999 24.6381 1.9971 24.6827 2.10889 24.683H7.20936C7.529 24.6826 7.84279 24.5973 8.11856 24.4356C8.39434 24.274 8.62218 24.042 8.77873 23.7633C8.9349 23.4927 9.01643 23.1856 9.01498 22.8731V14.1024C9.01493 13.6231 8.82481 13.1634 8.48632 12.8242C8.14783 12.4849 7.68861 12.2937 7.20936 12.2925Z" fill="#67FFCC"/>
<path d="M19.6166 5.48347C20.1198 5.48423 20.6023 5.68449 20.9581 6.04035C21.314 6.39621 21.5142 6.87865 21.515 7.38191C21.5166 7.49272 21.5618 7.59843 21.6408 7.6762C21.7197 7.75398 21.8261 7.79757 21.9369 7.79757C22.0477 7.79757 22.1541 7.75398 22.233 7.6762C22.3119 7.59843 22.3571 7.49272 22.3587 7.38191C22.3595 6.87865 22.5598 6.39621 22.9156 6.04035C23.2715 5.68449 23.7539 5.48423 24.2572 5.48347C24.368 5.48183 24.4737 5.43666 24.5515 5.35772C24.6293 5.27878 24.6729 5.17242 24.6729 5.0616C24.6729 4.95078 24.6293 4.84441 24.5515 4.76548C24.4737 4.68654 24.368 4.64137 24.2572 4.63972C23.7539 4.63896 23.2715 4.43871 22.9156 4.08285C22.5598 3.72698 22.3595 3.24455 22.3587 2.74129C22.3571 2.63048 22.3119 2.52477 22.233 2.447C22.1541 2.36922 22.0477 2.32562 21.9369 2.32562C21.8261 2.32562 21.7197 2.36922 21.6408 2.447C21.5618 2.52477 21.5166 2.63048 21.515 2.74129C21.5142 3.24455 21.314 3.72698 20.9581 4.08285C20.6023 4.43871 20.1198 4.63896 19.6166 4.63972C19.5058 4.64144 19.4002 4.68664 19.3224 4.76557C19.2447 4.8445 19.2012 4.95083 19.2012 5.0616C19.2012 5.17237 19.2447 5.2787 19.3224 5.35763C19.4002 5.43656 19.5058 5.48176 19.6166 5.48347Z" fill="#67FFCC"/>
<path d="M5.27281 5.48347C5.77608 5.48423 6.25851 5.68449 6.61437 6.04035C6.97023 6.39621 7.17049 6.87865 7.17125 7.38191C7.17289 7.49272 7.21806 7.59843 7.297 7.6762C7.37594 7.75398 7.48231 7.79757 7.59312 7.79757C7.70394 7.79757 7.81031 7.75398 7.88925 7.6762C7.96818 7.59843 8.01336 7.49272 8.015 7.38191C8.01576 6.87865 8.21601 6.39621 8.57188 6.04035C8.92774 5.68449 9.41017 5.48423 9.91344 5.48347C10.0242 5.48183 10.13 5.43666 10.2077 5.35772C10.2855 5.27878 10.3291 5.17242 10.3291 5.0616C10.3291 4.95078 10.2855 4.84441 10.2077 4.76548C10.13 4.68654 10.0242 4.64137 9.91344 4.63972C9.41017 4.63896 8.92774 4.43871 8.57188 4.08285C8.21602 3.72698 8.01576 3.24455 8.015 2.74129C8.01336 2.63048 7.96818 2.52477 7.88925 2.447C7.81031 2.36922 7.70394 2.32562 7.59312 2.32562C7.48231 2.32562 7.37594 2.36922 7.297 2.447C7.21806 2.52477 7.17289 2.63048 7.17125 2.74129C7.17049 3.24455 6.97023 3.72698 6.61437 4.08285C6.25851 4.43871 5.77608 4.63896 5.27281 4.63972C5.16206 4.64144 5.05642 4.68664 4.9787 4.76557C4.90098 4.8445 4.85742 4.95083 4.85742 5.0616C4.85742 5.17237 4.90098 5.2787 4.9787 5.35763C5.05642 5.43656 5.16206 5.48176 5.27281 5.48347Z" fill="#67FFCC"/>
</svg>
