<svg width="98" height="27" viewBox="0 0 98 27" fill="none" xmlns="http://www.w3.org/2000/svg">
<path d="M90.7949 1.94238C91.2357 1.70765 91.7643 1.70765 92.2051 1.94238L95.835 3.87695C96.3237 4.1376 96.6288 4.64629 96.6289 5.2002V8.7998C96.6288 9.35371 96.3237 9.8624 95.835 10.123L92.2051 12.0576C91.7643 12.2924 91.2357 12.2924 90.7949 12.0576L87.165 10.123C86.6763 9.8624 86.3712 9.35371 86.3711 8.7998V5.2002C86.3712 4.64629 86.6763 4.1376 87.165 3.87695L90.7949 1.94238Z" stroke="#5DDDB1"/>
<path d="M5.79492 0.942383C6.23568 0.707647 6.76432 0.707647 7.20508 0.942383L10.835 2.87695C11.3237 3.1376 11.6288 3.64629 11.6289 4.2002V7.7998C11.6288 8.35371 11.3237 8.8624 10.835 9.12305L7.20508 11.0576C6.76432 11.2924 6.23568 11.2924 5.79492 11.0576L2.16504 9.12305C1.6763 8.8624 1.37118 8.35371 1.37109 7.7998V4.2002C1.37118 3.64629 1.6763 3.1376 2.16504 2.87695L5.79492 0.942383Z" stroke="#B384F5"/>
<path d="M36.993 17.827C37.2769 17.4945 37.6896 17.3045 38.1209 17.3009L38.3063 17.3109L40.5643 17.5724C41.1145 17.6362 41.5846 17.998 41.7873 18.5135L42.471 20.2531C42.6735 20.7686 42.5756 21.3537 42.2161 21.7751L40.7404 23.504C40.4565 23.8365 40.0437 24.0264 39.6125 24.0302L39.427 24.0202L37.169 23.7587C36.6188 23.6949 36.1488 23.3331 35.9461 22.8175L35.2624 21.0779C35.0598 20.5623 35.1577 19.9773 35.5173 19.556L36.993 17.827Z" stroke="#4FB3F4"/>
<mask id="path-4-outside-1_476_2" maskUnits="userSpaceOnUse" x="7" y="4" width="86" height="18" fill="black">
<rect fill="white" x="7" y="4" width="86" height="18"/>
<path d="M8.26953 20V5.44922H13.9922C15.099 5.44922 16.0397 5.66081 16.8145 6.08398C17.5957 6.50716 18.1914 7.08984 18.6016 7.83203C19.0117 8.57422 19.2168 9.42708 19.2168 10.3906C19.2168 11.3542 19.0085 12.2038 18.5918 12.9395C18.1751 13.6751 17.5729 14.2513 16.7852 14.668C15.9974 15.0781 15.0436 15.2832 13.9238 15.2832H11.3359V20H8.26953ZM11.3359 12.8223H13.416C14.3079 12.8223 14.9688 12.5977 15.3984 12.1484C15.8346 11.6927 16.0527 11.1068 16.0527 10.3906C16.0527 9.66146 15.8346 9.07552 15.3984 8.63281C14.9622 8.1901 14.2982 7.96875 13.4062 7.96875H11.3359V12.8223ZM23.3875 5.44922V20H20.3602V5.44922H23.3875ZM29.9312 20.2148C28.831 20.2148 27.8772 19.9805 27.0699 19.5117C26.2691 19.0365 25.6507 18.3789 25.2145 17.5391C24.7848 16.6927 24.5699 15.7096 24.5699 14.5898C24.5699 13.4635 24.7848 12.4772 25.2145 11.6309C25.6507 10.7845 26.2691 10.127 27.0699 9.6582C27.8772 9.18294 28.831 8.94531 29.9312 8.94531C31.038 8.94531 31.9918 9.18294 32.7926 9.6582C33.5999 10.127 34.2184 10.7845 34.648 11.6309C35.0842 12.4772 35.3023 13.4635 35.3023 14.5898C35.3023 15.7096 35.0842 16.6927 34.648 17.5391C34.2184 18.3789 33.5999 19.0365 32.7926 19.5117C31.9918 19.9805 31.038 20.2148 29.9312 20.2148ZM27.6461 14.5703C27.6461 15.5208 27.8382 16.3053 28.2223 16.9238C28.6064 17.5423 29.1793 17.8516 29.941 17.8516C30.6962 17.8516 31.2659 17.5423 31.65 16.9238C32.0341 16.3053 32.2262 15.5208 32.2262 14.5703C32.2262 13.6198 32.0341 12.8385 31.65 12.2266C31.2659 11.6146 30.6962 11.3086 29.941 11.3086C29.1793 11.3086 28.6064 11.6146 28.2223 12.2266C27.8382 12.8385 27.6461 13.6198 27.6461 14.5703ZM42.2953 9.08203V11.3672H40.225V16.6406C40.225 17.3503 40.5701 17.7051 41.2602 17.7051C41.3773 17.7051 41.5043 17.6953 41.641 17.6758C41.7842 17.6562 41.9079 17.6335 42.0121 17.6074L42.4906 19.873C41.8461 20.0618 41.2211 20.1562 40.6156 20.1562C39.5349 20.1562 38.6951 19.8828 38.0961 19.3359C37.5036 18.7891 37.2074 18.0241 37.2074 17.041V11.3672H35.723V9.08203H37.2074V6.48438H40.225V9.08203H42.2953ZM43.5266 20V5.44922H46.593V11.4551H52.8332V5.44922H55.9094V20H52.8332V13.9844H46.593V20H43.5266ZM62.5117 20.2148C61.4115 20.2148 60.4577 19.9805 59.6504 19.5117C58.8496 19.0365 58.2311 18.3789 57.7949 17.5391C57.3652 16.6927 57.1504 15.7096 57.1504 14.5898C57.1504 13.4635 57.3652 12.4772 57.7949 11.6309C58.2311 10.7845 58.8496 10.127 59.6504 9.6582C60.4577 9.18294 61.4115 8.94531 62.5117 8.94531C63.6185 8.94531 64.5723 9.18294 65.373 9.6582C66.1803 10.127 66.7988 10.7845 67.2285 11.6309C67.6647 12.4772 67.8828 13.4635 67.8828 14.5898C67.8828 15.7096 67.6647 16.6927 67.2285 17.5391C66.7988 18.3789 66.1803 19.0365 65.373 19.5117C64.5723 19.9805 63.6185 20.2148 62.5117 20.2148ZM60.2266 14.5703C60.2266 15.5208 60.4186 16.3053 60.8027 16.9238C61.1868 17.5423 61.7598 17.8516 62.5215 17.8516C63.2767 17.8516 63.8464 17.5423 64.2305 16.9238C64.6146 16.3053 64.8066 15.5208 64.8066 14.5703C64.8066 13.6198 64.6146 12.8385 64.2305 12.2266C63.8464 11.6146 63.2767 11.3086 62.5215 11.3086C61.7598 11.3086 61.1868 11.6146 60.8027 12.2266C60.4186 12.8385 60.2266 13.6198 60.2266 14.5703ZM73.9969 20.2148C72.8966 20.2148 71.9428 19.9805 71.1355 19.5117C70.3348 19.0365 69.7163 18.3789 69.2801 17.5391C68.8504 16.6927 68.6355 15.7096 68.6355 14.5898C68.6355 13.4635 68.8504 12.4772 69.2801 11.6309C69.7163 10.7845 70.3348 10.127 71.1355 9.6582C71.9428 9.18294 72.8966 8.94531 73.9969 8.94531C75.1036 8.94531 76.0574 9.18294 76.8582 9.6582C77.6655 10.127 78.284 10.7845 78.7137 11.6309C79.1499 12.4772 79.368 13.4635 79.368 14.5898C79.368 15.7096 79.1499 16.6927 78.7137 17.5391C78.284 18.3789 77.6655 19.0365 76.8582 19.5117C76.0574 19.9805 75.1036 20.2148 73.9969 20.2148ZM71.7117 14.5703C71.7117 15.5208 71.9038 16.3053 72.2879 16.9238C72.672 17.5423 73.2449 17.8516 74.0066 17.8516C74.7618 17.8516 75.3315 17.5423 75.7156 16.9238C76.0997 16.3053 76.2918 15.5208 76.2918 14.5703C76.2918 13.6198 76.0997 12.8385 75.7156 12.2266C75.3315 11.6146 74.7618 11.3086 74.0066 11.3086C73.2449 11.3086 72.672 11.6146 72.2879 12.2266C71.9038 12.8385 71.7117 13.6198 71.7117 14.5703ZM80.5602 5.44922H83.5875V13.2324H83.7535L87.2398 9.08203H90.7164L86.6734 13.8184L90.9117 20H87.3766L84.4078 15.5957L83.5875 16.5234V20H80.5602V5.44922Z"/>
</mask>
<path d="M8.26953 20V5.44922H13.9922C15.099 5.44922 16.0397 5.66081 16.8145 6.08398C17.5957 6.50716 18.1914 7.08984 18.6016 7.83203C19.0117 8.57422 19.2168 9.42708 19.2168 10.3906C19.2168 11.3542 19.0085 12.2038 18.5918 12.9395C18.1751 13.6751 17.5729 14.2513 16.7852 14.668C15.9974 15.0781 15.0436 15.2832 13.9238 15.2832H11.3359V20H8.26953ZM11.3359 12.8223H13.416C14.3079 12.8223 14.9688 12.5977 15.3984 12.1484C15.8346 11.6927 16.0527 11.1068 16.0527 10.3906C16.0527 9.66146 15.8346 9.07552 15.3984 8.63281C14.9622 8.1901 14.2982 7.96875 13.4062 7.96875H11.3359V12.8223ZM23.3875 5.44922V20H20.3602V5.44922H23.3875ZM29.9312 20.2148C28.831 20.2148 27.8772 19.9805 27.0699 19.5117C26.2691 19.0365 25.6507 18.3789 25.2145 17.5391C24.7848 16.6927 24.5699 15.7096 24.5699 14.5898C24.5699 13.4635 24.7848 12.4772 25.2145 11.6309C25.6507 10.7845 26.2691 10.127 27.0699 9.6582C27.8772 9.18294 28.831 8.94531 29.9312 8.94531C31.038 8.94531 31.9918 9.18294 32.7926 9.6582C33.5999 10.127 34.2184 10.7845 34.648 11.6309C35.0842 12.4772 35.3023 13.4635 35.3023 14.5898C35.3023 15.7096 35.0842 16.6927 34.648 17.5391C34.2184 18.3789 33.5999 19.0365 32.7926 19.5117C31.9918 19.9805 31.038 20.2148 29.9312 20.2148ZM27.6461 14.5703C27.6461 15.5208 27.8382 16.3053 28.2223 16.9238C28.6064 17.5423 29.1793 17.8516 29.941 17.8516C30.6962 17.8516 31.2659 17.5423 31.65 16.9238C32.0341 16.3053 32.2262 15.5208 32.2262 14.5703C32.2262 13.6198 32.0341 12.8385 31.65 12.2266C31.2659 11.6146 30.6962 11.3086 29.941 11.3086C29.1793 11.3086 28.6064 11.6146 28.2223 12.2266C27.8382 12.8385 27.6461 13.6198 27.6461 14.5703ZM42.2953 9.08203V11.3672H40.225V16.6406C40.225 17.3503 40.5701 17.7051 41.2602 17.7051C41.3773 17.7051 41.5043 17.6953 41.641 17.6758C41.7842 17.6562 41.9079 17.6335 42.0121 17.6074L42.4906 19.873C41.8461 20.0618 41.2211 20.1562 40.6156 20.1562C39.5349 20.1562 38.6951 19.8828 38.0961 19.3359C37.5036 18.7891 37.2074 18.0241 37.2074 17.041V11.3672H35.723V9.08203H37.2074V6.48438H40.225V9.08203H42.2953ZM43.5266 20V5.44922H46.593V11.4551H52.8332V5.44922H55.9094V20H52.8332V13.9844H46.593V20H43.5266ZM62.5117 20.2148C61.4115 20.2148 60.4577 19.9805 59.6504 19.5117C58.8496 19.0365 58.2311 18.3789 57.7949 17.5391C57.3652 16.6927 57.1504 15.7096 57.1504 14.5898C57.1504 13.4635 57.3652 12.4772 57.7949 11.6309C58.2311 10.7845 58.8496 10.127 59.6504 9.6582C60.4577 9.18294 61.4115 8.94531 62.5117 8.94531C63.6185 8.94531 64.5723 9.18294 65.373 9.6582C66.1803 10.127 66.7988 10.7845 67.2285 11.6309C67.6647 12.4772 67.8828 13.4635 67.8828 14.5898C67.8828 15.7096 67.6647 16.6927 67.2285 17.5391C66.7988 18.3789 66.1803 19.0365 65.373 19.5117C64.5723 19.9805 63.6185 20.2148 62.5117 20.2148ZM60.2266 14.5703C60.2266 15.5208 60.4186 16.3053 60.8027 16.9238C61.1868 17.5423 61.7598 17.8516 62.5215 17.8516C63.2767 17.8516 63.8464 17.5423 64.2305 16.9238C64.6146 16.3053 64.8066 15.5208 64.8066 14.5703C64.8066 13.6198 64.6146 12.8385 64.2305 12.2266C63.8464 11.6146 63.2767 11.3086 62.5215 11.3086C61.7598 11.3086 61.1868 11.6146 60.8027 12.2266C60.4186 12.8385 60.2266 13.6198 60.2266 14.5703ZM73.9969 20.2148C72.8966 20.2148 71.9428 19.9805 71.1355 19.5117C70.3348 19.0365 69.7163 18.3789 69.2801 17.5391C68.8504 16.6927 68.6355 15.7096 68.6355 14.5898C68.6355 13.4635 68.8504 12.4772 69.2801 11.6309C69.7163 10.7845 70.3348 10.127 71.1355 9.6582C71.9428 9.18294 72.8966 8.94531 73.9969 8.94531C75.1036 8.94531 76.0574 9.18294 76.8582 9.6582C77.6655 10.127 78.284 10.7845 78.7137 11.6309C79.1499 12.4772 79.368 13.4635 79.368 14.5898C79.368 15.7096 79.1499 16.6927 78.7137 17.5391C78.284 18.3789 77.6655 19.0365 76.8582 19.5117C76.0574 19.9805 75.1036 20.2148 73.9969 20.2148ZM71.7117 14.5703C71.7117 15.5208 71.9038 16.3053 72.2879 16.9238C72.672 17.5423 73.2449 17.8516 74.0066 17.8516C74.7618 17.8516 75.3315 17.5423 75.7156 16.9238C76.0997 16.3053 76.2918 15.5208 76.2918 14.5703C76.2918 13.6198 76.0997 12.8385 75.7156 12.2266C75.3315 11.6146 74.7618 11.3086 74.0066 11.3086C73.2449 11.3086 72.672 11.6146 72.2879 12.2266C71.9038 12.8385 71.7117 13.6198 71.7117 14.5703ZM80.5602 5.44922H83.5875V13.2324H83.7535L87.2398 9.08203H90.7164L86.6734 13.8184L90.9117 20H87.3766L84.4078 15.5957L83.5875 16.5234V20H80.5602V5.44922Z" fill="url(#paint0_linear_476_2)"/>
<path d="M8.26953 20H7.26953V21H8.26953V20ZM8.26953 5.44922V4.44922H7.26953V5.44922H8.26953ZM16.8145 6.08398L16.3351 6.9616L16.3382 6.96328L16.8145 6.08398ZM16.7852 14.668L17.247 15.555L17.2527 15.5519L16.7852 14.668ZM11.3359 15.2832V14.2832H10.3359V15.2832H11.3359ZM11.3359 20V21H12.3359V20H11.3359ZM11.3359 12.8223H10.3359V13.8223H11.3359V12.8223ZM15.3984 12.1484L14.676 11.457L14.6758 11.4572L15.3984 12.1484ZM11.3359 7.96875V6.96875H10.3359V7.96875H11.3359ZM8.26953 20H9.26953V5.44922H8.26953H7.26953V20H8.26953ZM8.26953 5.44922V6.44922H13.9922V5.44922V4.44922H8.26953V5.44922ZM13.9922 5.44922V6.44922C14.9732 6.44922 15.7401 6.63661 16.3351 6.9616L16.8145 6.08398L17.2938 5.20637C16.3393 4.685 15.2247 4.44922 13.9922 4.44922V5.44922ZM16.8145 6.08398L16.3382 6.96328C16.9598 7.29999 17.4131 7.74902 17.7263 8.31572L18.6016 7.83203L19.4768 7.34835C18.9697 6.43066 18.2316 5.71433 17.2907 5.20469L16.8145 6.08398ZM18.6016 7.83203L17.7263 8.31572C18.044 8.89063 18.2168 9.57289 18.2168 10.3906H19.2168H20.2168C20.2168 9.28127 19.9794 8.25781 19.4768 7.34835L18.6016 7.83203ZM19.2168 10.3906H18.2168C18.2168 11.2059 18.0419 11.8812 17.7217 12.4466L18.5918 12.9395L19.4619 13.4323C19.975 12.5263 20.2168 11.5024 20.2168 10.3906H19.2168ZM18.5918 12.9395L17.7217 12.4466C17.4043 13.007 16.9462 13.4515 16.3176 13.784L16.7852 14.668L17.2527 15.5519C18.1997 15.0511 18.946 14.3433 19.4619 13.4323L18.5918 12.9395ZM16.7852 14.668L16.3233 13.781C15.7106 14.1 14.9238 14.2832 13.9238 14.2832V15.2832V16.2832C15.1634 16.2832 16.2842 16.0562 17.247 15.5549L16.7852 14.668ZM13.9238 15.2832V14.2832H11.3359V15.2832V16.2832H13.9238V15.2832ZM11.3359 15.2832H10.3359V20H11.3359H12.3359V15.2832H11.3359ZM11.3359 20V19H8.26953V20V21H11.3359V20ZM11.3359 12.8223V13.8223H13.416V12.8223V11.8223H11.3359V12.8223ZM13.416 12.8223V13.8223C14.4607 13.8223 15.4333 13.5587 16.1211 12.8397L15.3984 12.1484L14.6758 11.4572C14.5042 11.6366 14.1552 11.8223 13.416 11.8223V12.8223ZM15.3984 12.1484L16.1209 12.8399C16.7596 12.1725 17.0527 11.3267 17.0527 10.3906H16.0527H15.0527C15.0527 10.8868 14.9096 11.2129 14.676 11.457L15.3984 12.1484ZM16.0527 10.3906H17.0527C17.0527 9.44774 16.763 8.59295 16.1108 7.93096L15.3984 8.63281L14.6861 9.33466C14.9063 9.55809 15.0527 9.87518 15.0527 10.3906H16.0527ZM15.3984 8.63281L16.1108 7.93096C15.4177 7.22757 14.4485 6.96875 13.4062 6.96875V7.96875V8.96875C14.1478 8.96875 14.5068 9.15264 14.6861 9.33466L15.3984 8.63281ZM13.4062 7.96875V6.96875H11.3359V7.96875V8.96875H13.4062V7.96875ZM11.3359 7.96875H10.3359V12.8223H11.3359H12.3359V7.96875H11.3359ZM23.3875 5.44922H24.3875V4.44922H23.3875V5.44922ZM23.3875 20V21H24.3875V20H23.3875ZM20.3602 20H19.3602V21H20.3602V20ZM20.3602 5.44922V4.44922H19.3602V5.44922H20.3602ZM23.3875 5.44922H22.3875V20H23.3875H24.3875V5.44922H23.3875ZM23.3875 20V19H20.3602V20V21H23.3875V20ZM20.3602 20H21.3602V5.44922H20.3602H19.3602V20H20.3602ZM20.3602 5.44922V6.44922H23.3875V5.44922V4.44922H20.3602V5.44922ZM27.0699 19.5117L26.5595 20.3717L26.5678 20.3765L27.0699 19.5117ZM25.2145 17.5391L24.3227 17.9918L24.327 18L25.2145 17.5391ZM25.2145 11.6309L24.3255 11.1727L24.3228 11.1782L25.2145 11.6309ZM27.0699 9.6582L27.5751 10.5212L27.5772 10.52L27.0699 9.6582ZM32.7926 9.6582L32.2822 10.5182L32.2904 10.523L32.7926 9.6582ZM34.648 11.6309L33.7564 12.0836L33.7592 12.089L34.648 11.6309ZM34.648 17.5391L33.7592 17.0809L33.7578 17.0836L34.648 17.5391ZM32.7926 19.5117L33.2978 20.3747L33.2999 20.3735L32.7926 19.5117ZM31.65 16.9238L30.8005 16.3962L31.65 16.9238ZM29.9312 20.2148V19.2148C28.9756 19.2148 28.2015 19.0124 27.5721 18.6469L27.0699 19.5117L26.5678 20.3765C27.5529 20.9485 28.6863 21.2148 29.9312 21.2148V20.2148ZM27.0699 19.5117L27.5803 18.6518C26.9427 18.2734 26.4536 17.7553 26.1019 17.0781L25.2145 17.5391L24.327 18C24.8477 19.0026 25.5956 19.7996 26.5595 20.3717L27.0699 19.5117ZM25.2145 17.5391L26.1061 17.0864C25.7594 16.4034 25.5699 15.5805 25.5699 14.5898H24.5699H23.5699C23.5699 15.8388 23.8101 16.982 24.3228 17.9918L25.2145 17.5391ZM24.5699 14.5898H25.5699C25.5699 13.5917 25.7598 12.7657 26.1061 12.0836L25.2145 11.6309L24.3228 11.1782C23.8098 12.1887 23.5699 13.3354 23.5699 14.5898H24.5699ZM25.2145 11.6309L26.1033 12.089C26.455 11.4066 26.9425 10.8915 27.5751 10.5212L27.0699 9.6582L26.5647 8.79519C25.5958 9.36239 24.8463 10.1624 24.3256 11.1727L25.2145 11.6309ZM27.0699 9.6582L27.5772 10.52C28.2058 10.1499 28.978 9.94531 29.9312 9.94531V8.94531V7.94531C28.684 7.94531 27.5486 8.21596 26.5626 8.79645L27.0699 9.6582ZM29.9312 8.94531V9.94531C30.8925 9.94531 31.6628 10.1505 32.2822 10.5182L32.7926 9.6582L33.303 8.79825C32.3208 8.21536 31.1836 7.94531 29.9312 7.94531V8.94531ZM32.7926 9.6582L32.2904 10.523C32.9279 10.8931 33.4125 11.4062 33.7564 12.0836L34.648 11.6309L35.5397 11.1782C35.0242 10.1628 34.2718 9.36078 33.2947 8.79341L32.7926 9.6582ZM34.648 11.6309L33.7592 12.089C34.1101 12.7699 34.3023 13.5939 34.3023 14.5898H35.3023H36.3023C36.3023 13.3332 36.0584 12.1845 35.5369 11.1727L34.648 11.6309ZM35.3023 14.5898H34.3023C34.3023 15.5783 34.1105 16.3992 33.7592 17.0809L34.648 17.5391L35.5369 17.9972C36.058 16.9862 36.3023 15.841 36.3023 14.5898H35.3023ZM34.648 17.5391L33.7578 17.0836C33.4139 17.7557 32.9277 18.2717 32.2853 18.65L32.7926 19.5117L33.2999 20.3735C34.272 19.8012 35.0228 19.0022 35.5383 17.9945L34.648 17.5391ZM32.7926 19.5117L32.2874 18.6487C31.667 19.0118 30.8948 19.2148 29.9312 19.2148V20.2148V21.2148C31.1812 21.2148 32.3166 20.9491 33.2978 20.3747L32.7926 19.5117ZM27.6461 14.5703H26.6461C26.6461 15.6514 26.8645 16.633 27.3728 17.4514L28.2223 16.9238L29.0718 16.3962C28.8118 15.9777 28.6461 15.3902 28.6461 14.5703H27.6461ZM28.2223 16.9238L27.3728 17.4514C27.9493 18.3798 28.8529 18.8516 29.941 18.8516V17.8516V16.8516C29.5057 16.8516 29.2634 16.7049 29.0718 16.3962L28.2223 16.9238ZM29.941 17.8516V18.8516C31.0264 18.8516 31.9248 18.3767 32.4995 17.4514L31.65 16.9238L30.8005 16.3962C30.6069 16.7079 30.3661 16.8516 29.941 16.8516V17.8516ZM31.65 16.9238L32.4995 17.4514C33.0078 16.633 33.2262 15.6514 33.2262 14.5703H32.2262H31.2262C31.2262 15.3902 31.0604 15.9777 30.8005 16.3962L31.65 16.9238ZM32.2262 14.5703H33.2262C33.2262 13.4898 33.008 12.5091 32.497 11.6949L31.65 12.2266L30.803 12.7582C31.0602 13.1679 31.2262 13.7498 31.2262 14.5703H32.2262ZM31.65 12.2266L32.497 11.6949C31.9201 10.7759 31.0215 10.3086 29.941 10.3086V11.3086V12.3086C30.3709 12.3086 30.6116 12.4533 30.803 12.7582L31.65 12.2266ZM29.941 11.3086V10.3086C28.8577 10.3086 27.954 10.7729 27.3753 11.6949L28.2223 12.2266L29.0692 12.7582C29.2588 12.4562 29.5009 12.3086 29.941 12.3086V11.3086ZM28.2223 12.2266L27.3753 11.6949C26.8642 12.5091 26.6461 13.4898 26.6461 14.5703H27.6461H28.6461C28.6461 13.7498 28.8121 13.1679 29.0692 12.7582L28.2223 12.2266ZM42.2953 9.08203H43.2953V8.08203H42.2953V9.08203ZM42.2953 11.3672V12.3672H43.2953V11.3672H42.2953ZM40.225 11.3672V10.3672H39.225V11.3672H40.225ZM41.641 17.6758L41.5059 16.6849L41.4996 16.6858L41.641 17.6758ZM42.0121 17.6074L42.9905 17.4008L42.7761 16.3856L41.7696 16.6373L42.0121 17.6074ZM42.4906 19.873L42.7717 20.8327L43.6604 20.5724L43.469 19.6664L42.4906 19.873ZM38.0961 19.3359L37.4178 20.0708L37.4218 20.0744L38.0961 19.3359ZM37.2074 11.3672H38.2074V10.3672H37.2074V11.3672ZM35.723 11.3672H34.723V12.3672H35.723V11.3672ZM35.723 9.08203V8.08203H34.723V9.08203H35.723ZM37.2074 9.08203V10.082H38.2074V9.08203H37.2074ZM37.2074 6.48438V5.48438H36.2074V6.48438H37.2074ZM40.225 6.48438H41.225V5.48438H40.225V6.48438ZM40.225 9.08203H39.225V10.082H40.225V9.08203ZM42.2953 9.08203H41.2953V11.3672H42.2953H43.2953V9.08203H42.2953ZM42.2953 11.3672V10.3672H40.225V11.3672V12.3672H42.2953V11.3672ZM40.225 11.3672H39.225V16.6406H40.225H41.225V11.3672H40.225ZM40.225 16.6406H39.225C39.225 17.1427 39.3468 17.7042 39.7669 18.1361C40.192 18.5732 40.7538 18.7051 41.2602 18.7051V17.7051V16.7051C41.1704 16.7051 41.1334 16.6932 41.1315 16.6926C41.1314 16.6925 41.1336 16.6933 41.1377 16.6952C41.1418 16.6971 41.1475 16.7001 41.1544 16.7043C41.1689 16.7132 41.1851 16.7257 41.2007 16.7418C41.2163 16.7578 41.2273 16.7733 41.2343 16.7853C41.2411 16.797 41.2424 16.8024 41.241 16.798C41.2374 16.7871 41.225 16.7401 41.225 16.6406H40.225ZM41.2602 17.7051V18.7051C41.4321 18.7051 41.6069 18.6908 41.7824 18.6657L41.641 17.6758L41.4996 16.6858C41.4017 16.6998 41.3226 16.7051 41.2602 16.7051V17.7051ZM41.641 17.6758L41.7761 18.6666C41.944 18.6437 42.1054 18.6149 42.2546 18.5776L42.0121 17.6074L41.7696 16.6373C41.7105 16.652 41.6245 16.6688 41.5059 16.685L41.641 17.6758ZM42.0121 17.6074L41.0337 17.8141L41.5122 20.0797L42.4906 19.873L43.469 19.6664L42.9905 17.4008L42.0121 17.6074ZM42.4906 19.873L42.2095 18.9134C41.6464 19.0783 41.1162 19.1562 40.6156 19.1562V20.1562V21.1562C41.326 21.1562 42.0458 21.0454 42.7717 20.8327L42.4906 19.873ZM40.6156 20.1562V19.1562C39.6998 19.1562 39.1309 18.9267 38.7704 18.5975L38.0961 19.3359L37.4218 20.0744C38.2592 20.839 39.37 21.1562 40.6156 21.1562V20.1562ZM38.0961 19.3359L38.7744 18.6011C38.431 18.2841 38.2074 17.811 38.2074 17.041H37.2074H36.2074C36.2074 18.2372 36.5763 19.294 37.4178 20.0707L38.0961 19.3359ZM37.2074 17.041H38.2074V11.3672H37.2074H36.2074V17.041H37.2074ZM37.2074 11.3672V10.3672H35.723V11.3672V12.3672H37.2074V11.3672ZM35.723 11.3672H36.723V9.08203H35.723H34.723V11.3672H35.723ZM35.723 9.08203V10.082H37.2074V9.08203V8.08203H35.723V9.08203ZM37.2074 9.08203H38.2074V6.48438H37.2074H36.2074V9.08203H37.2074ZM37.2074 6.48438V7.48438H40.225V6.48438V5.48438H37.2074V6.48438ZM40.225 6.48438H39.225V9.08203H40.225H41.225V6.48438H40.225ZM40.225 9.08203V10.082H42.2953V9.08203V8.08203H40.225V9.08203ZM43.5266 20H42.5266V21H43.5266V20ZM43.5266 5.44922V4.44922H42.5266V5.44922H43.5266ZM46.593 5.44922H47.593V4.44922H46.593V5.44922ZM46.593 11.4551H45.593V12.4551H46.593V11.4551ZM52.8332 11.4551V12.4551H53.8332V11.4551H52.8332ZM52.8332 5.44922V4.44922H51.8332V5.44922H52.8332ZM55.9094 5.44922H56.9094V4.44922H55.9094V5.44922ZM55.9094 20V21H56.9094V20H55.9094ZM52.8332 20H51.8332V21H52.8332V20ZM52.8332 13.9844H53.8332V12.9844H52.8332V13.9844ZM46.593 13.9844V12.9844H45.593V13.9844H46.593ZM46.593 20V21H47.593V20H46.593ZM43.5266 20H44.5266V5.44922H43.5266H42.5266V20H43.5266ZM43.5266 5.44922V6.44922H46.593V5.44922V4.44922H43.5266V5.44922ZM46.593 5.44922H45.593V11.4551H46.593H47.593V5.44922H46.593ZM46.593 11.4551V12.4551H52.8332V11.4551V10.4551H46.593V11.4551ZM52.8332 11.4551H53.8332V5.44922H52.8332H51.8332V11.4551H52.8332ZM52.8332 5.44922V6.44922H55.9094V5.44922V4.44922H52.8332V5.44922ZM55.9094 5.44922H54.9094V20H55.9094H56.9094V5.44922H55.9094ZM55.9094 20V19H52.8332V20V21H55.9094V20ZM52.8332 20H53.8332V13.9844H52.8332H51.8332V20H52.8332ZM52.8332 13.9844V12.9844H46.593V13.9844V14.9844H52.8332V13.9844ZM46.593 13.9844H45.593V20H46.593H47.593V13.9844H46.593ZM46.593 20V19H43.5266V20V21H46.593V20ZM59.6504 19.5117L59.14 20.3717L59.1483 20.3765L59.6504 19.5117ZM57.7949 17.5391L56.9032 17.9918L56.9075 18L57.7949 17.5391ZM57.7949 11.6309L56.906 11.1727L56.9033 11.1782L57.7949 11.6309ZM59.6504 9.6582L60.1556 10.5212L60.1577 10.52L59.6504 9.6582ZM65.373 9.6582L64.8626 10.5182L64.8709 10.523L65.373 9.6582ZM67.2285 11.6309L66.3368 12.0836L66.3396 12.089L67.2285 11.6309ZM67.2285 17.5391L66.3396 17.0809L66.3383 17.0836L67.2285 17.5391ZM65.373 19.5117L65.8782 20.3747L65.8804 20.3735L65.373 19.5117ZM64.2305 16.9238L63.381 16.3962L64.2305 16.9238ZM62.5117 20.2148V19.2148C61.5561 19.2148 60.782 19.0124 60.1525 18.6469L59.6504 19.5117L59.1483 20.3765C60.1333 20.9485 61.2668 21.2148 62.5117 21.2148V20.2148ZM59.6504 19.5117L60.1608 18.6518C59.5232 18.2734 59.034 17.7553 58.6824 17.0781L57.7949 17.5391L56.9075 18C57.4282 19.0026 58.176 19.7996 59.14 20.3717L59.6504 19.5117ZM57.7949 17.5391L58.6866 17.0864C58.3399 16.4034 58.1504 15.5805 58.1504 14.5898H57.1504H56.1504C56.1504 15.8388 56.3906 16.982 56.9033 17.9918L57.7949 17.5391ZM57.1504 14.5898H58.1504C58.1504 13.5917 58.3402 12.7657 58.6866 12.0836L57.7949 11.6309L56.9033 11.1782C56.3902 12.1887 56.1504 13.3354 56.1504 14.5898H57.1504ZM57.7949 11.6309L58.6838 12.089C59.0355 11.4066 59.523 10.8915 60.1556 10.5212L59.6504 9.6582L59.1452 8.79519C58.1762 9.36239 57.4267 10.1624 56.906 11.1727L57.7949 11.6309ZM59.6504 9.6582L60.1577 10.52C60.7863 10.1499 61.5584 9.94531 62.5117 9.94531V8.94531V7.94531C61.2645 7.94531 60.1291 8.21596 59.1431 8.79645L59.6504 9.6582ZM62.5117 8.94531V9.94531C63.473 9.94531 64.2432 10.1505 64.8627 10.5182L65.373 9.6582L65.8834 8.79825C64.9013 8.21536 63.764 7.94531 62.5117 7.94531V8.94531ZM65.373 9.6582L64.8709 10.523C65.5084 10.8931 65.993 11.4062 66.3368 12.0836L67.2285 11.6309L68.1202 11.1782C67.6047 10.1628 66.8523 9.36078 65.8752 8.79341L65.373 9.6582ZM67.2285 11.6309L66.3396 12.089C66.6906 12.7699 66.8828 13.5939 66.8828 14.5898H67.8828H68.8828C68.8828 13.3332 68.6389 12.1845 68.1174 11.1727L67.2285 11.6309ZM67.8828 14.5898H66.8828C66.8828 15.5783 66.691 16.3992 66.3396 17.0809L67.2285 17.5391L68.1174 17.9972C68.6385 16.9862 68.8828 15.841 68.8828 14.5898H67.8828ZM67.2285 17.5391L66.3383 17.0836C65.9944 17.7557 65.5082 18.2717 64.8657 18.65L65.373 19.5117L65.8804 20.3735C66.8525 19.8012 67.6032 19.0022 68.1188 17.9945L67.2285 17.5391ZM65.373 19.5117L64.8679 18.6487C64.2475 19.0118 63.4753 19.2148 62.5117 19.2148V20.2148V21.2148C63.7617 21.2148 64.897 20.9491 65.8782 20.3747L65.373 19.5117ZM60.2266 14.5703H59.2266C59.2266 15.6514 59.4449 16.633 59.9532 17.4514L60.8027 16.9238L61.6522 16.3962C61.3923 15.9777 61.2266 15.3902 61.2266 14.5703H60.2266ZM60.8027 16.9238L59.9532 17.4514C60.5298 18.3798 61.4333 18.8516 62.5215 18.8516V17.8516V16.8516C62.0862 16.8516 61.8439 16.7049 61.6522 16.3962L60.8027 16.9238ZM62.5215 17.8516V18.8516C63.6068 18.8516 64.5053 18.3767 65.08 17.4514L64.2305 16.9238L63.381 16.3962C63.1874 16.7079 62.9466 16.8516 62.5215 16.8516V17.8516ZM64.2305 16.9238L65.08 17.4514C65.5883 16.633 65.8066 15.6514 65.8066 14.5703H64.8066H63.8066C63.8066 15.3902 63.6409 15.9777 63.381 16.3962L64.2305 16.9238ZM64.8066 14.5703H65.8066C65.8066 13.4898 65.5885 12.5091 65.0775 11.6949L64.2305 12.2266L63.3835 12.7582C63.6407 13.1679 63.8066 13.7498 63.8066 14.5703H64.8066ZM64.2305 12.2266L65.0775 11.6949C64.5006 10.7759 63.602 10.3086 62.5215 10.3086V11.3086V12.3086C62.9514 12.3086 63.1921 12.4533 63.3835 12.7582L64.2305 12.2266ZM62.5215 11.3086V10.3086C61.4382 10.3086 60.5345 10.7729 59.9558 11.6949L60.8027 12.2266L61.6497 12.7582C61.8392 12.4562 62.0813 12.3086 62.5215 12.3086V11.3086ZM60.8027 12.2266L59.9558 11.6949C59.4447 12.5091 59.2266 13.4898 59.2266 14.5703H60.2266H61.2266C61.2266 13.7498 61.3925 13.1679 61.6497 12.7582L60.8027 12.2266ZM71.1355 19.5117L70.6251 20.3717L70.6334 20.3765L71.1355 19.5117ZM69.2801 17.5391L68.3884 17.9918L68.3926 18L69.2801 17.5391ZM69.2801 11.6309L68.3912 11.1727L68.3884 11.1782L69.2801 11.6309ZM71.1355 9.6582L71.6407 10.5212L71.6429 10.52L71.1355 9.6582ZM76.8582 9.6582L76.3478 10.5182L76.3561 10.523L76.8582 9.6582ZM78.7137 11.6309L77.822 12.0836L77.8248 12.089L78.7137 11.6309ZM78.7137 17.5391L77.8248 17.0809L77.8234 17.0836L78.7137 17.5391ZM76.8582 19.5117L77.3634 20.3747L77.3655 20.3735L76.8582 19.5117ZM75.7156 16.9238L74.8661 16.3962L75.7156 16.9238ZM73.9969 20.2148V19.2148C73.0413 19.2148 72.2672 19.0124 71.6377 18.6469L71.1355 19.5117L70.6334 20.3765C71.6185 20.9485 72.752 21.2148 73.9969 21.2148V20.2148ZM71.1355 19.5117L71.6459 18.6518C71.0083 18.2734 70.5192 17.7553 70.1675 17.0781L69.2801 17.5391L68.3926 18C68.9134 19.0026 69.6612 19.7996 70.6252 20.3717L71.1355 19.5117ZM69.2801 17.5391L70.1717 17.0864C69.825 16.4034 69.6355 15.5805 69.6355 14.5898H68.6355H67.6355C67.6355 15.8388 67.8758 16.982 68.3884 17.9918L69.2801 17.5391ZM68.6355 14.5898H69.6355C69.6355 13.5917 69.8254 12.7657 70.1717 12.0836L69.2801 11.6309L68.3884 11.1782C67.8754 12.1887 67.6355 13.3354 67.6355 14.5898H68.6355ZM69.2801 11.6309L70.169 12.089C70.5207 11.4066 71.0081 10.8915 71.6407 10.5212L71.1355 9.6582L70.6304 8.79519C69.6614 9.36239 68.9119 10.1624 68.3912 11.1727L69.2801 11.6309ZM71.1355 9.6582L71.6429 10.52C72.2714 10.1499 73.0436 9.94531 73.9969 9.94531V8.94531V7.94531C72.7496 7.94531 71.6143 8.21596 70.6282 8.79645L71.1355 9.6582ZM73.9969 8.94531V9.94531C74.9581 9.94531 75.7284 10.1505 76.3478 10.5182L76.8582 9.6582L77.3686 8.79825C76.3864 8.21536 75.2492 7.94531 73.9969 7.94531V8.94531ZM76.8582 9.6582L76.3561 10.523C76.9935 10.8931 77.4781 11.4062 77.822 12.0836L78.7137 11.6309L79.6053 11.1782C79.0898 10.1628 78.3375 9.36078 77.3603 8.79341L76.8582 9.6582ZM78.7137 11.6309L77.8248 12.089C78.1757 12.7699 78.368 13.5939 78.368 14.5898H79.368H80.368C80.368 13.3332 80.124 12.1845 79.6026 11.1727L78.7137 11.6309ZM79.368 14.5898H78.368C78.368 15.5783 78.1761 16.3992 77.8248 17.0809L78.7137 17.5391L79.6026 17.9972C80.1236 16.9862 80.368 15.841 80.368 14.5898H79.368ZM78.7137 17.5391L77.8234 17.0836C77.4796 17.7557 76.9933 18.2717 76.3509 18.65L76.8582 19.5117L77.3655 20.3735C78.3377 19.8012 79.0884 19.0022 79.6039 17.9945L78.7137 17.5391ZM76.8582 19.5117L76.353 18.6487C75.7327 19.0118 74.9605 19.2148 73.9969 19.2148V20.2148V21.2148C75.2468 21.2148 76.3822 20.9491 77.3634 20.3747L76.8582 19.5117ZM71.7117 14.5703H70.7117C70.7117 15.6514 70.9301 16.633 71.4384 17.4514L72.2879 16.9238L73.1374 16.3962C72.8775 15.9777 72.7117 15.3902 72.7117 14.5703H71.7117ZM72.2879 16.9238L71.4384 17.4514C72.0149 18.3798 72.9185 18.8516 74.0066 18.8516V17.8516V16.8516C73.5713 16.8516 73.3291 16.7049 73.1374 16.3962L72.2879 16.9238ZM74.0066 17.8516V18.8516C75.092 18.8516 75.9905 18.3767 76.5651 17.4514L75.7156 16.9238L74.8661 16.3962C74.6726 16.7079 74.4317 16.8516 74.0066 16.8516V17.8516ZM75.7156 16.9238L76.5651 17.4514C77.0734 16.633 77.2918 15.6514 77.2918 14.5703H76.2918H75.2918C75.2918 15.3902 75.1261 15.9777 74.8661 16.3962L75.7156 16.9238ZM76.2918 14.5703H77.2918C77.2918 13.4898 77.0736 12.5091 76.5626 11.6949L75.7156 12.2266L74.8686 12.7582C75.1258 13.1679 75.2918 13.7498 75.2918 14.5703H76.2918ZM75.7156 12.2266L76.5626 11.6949C75.9858 10.7759 75.0871 10.3086 74.0066 10.3086V11.3086V12.3086C74.4366 12.3086 74.6773 12.4533 74.8686 12.7582L75.7156 12.2266ZM74.0066 11.3086V10.3086C72.9233 10.3086 72.0196 10.7729 71.4409 11.6949L72.2879 12.2266L73.1349 12.7582C73.3244 12.4562 73.5665 12.3086 74.0066 12.3086V11.3086ZM72.2879 12.2266L71.4409 11.6949C70.9299 12.5091 70.7117 13.4898 70.7117 14.5703H71.7117H72.7117C72.7117 13.7498 72.8777 13.1679 73.1349 12.7582L72.2879 12.2266ZM80.5602 5.44922V4.44922H79.5602V5.44922H80.5602ZM83.5875 5.44922H84.5875V4.44922H83.5875V5.44922ZM83.5875 13.2324H82.5875V14.2324H83.5875V13.2324ZM83.7535 13.2324V14.2324H84.2195L84.5192 13.8756L83.7535 13.2324ZM87.2398 9.08203V8.08203H86.7739L86.4741 8.43884L87.2398 9.08203ZM90.7164 9.08203L91.477 9.73127L92.8848 8.08203H90.7164V9.08203ZM86.6734 13.8184L85.9129 13.1691L85.4154 13.7519L85.8487 14.3838L86.6734 13.8184ZM90.9117 20V21H92.8098L91.7365 19.4345L90.9117 20ZM87.3766 20L86.5474 20.5589L86.8447 21H87.3766V20ZM84.4078 15.5957L85.237 15.0368L84.5147 13.9652L83.6587 14.9333L84.4078 15.5957ZM83.5875 16.5234L82.8384 15.861L82.5875 16.1447V16.5234H83.5875ZM83.5875 20V21H84.5875V20H83.5875ZM80.5602 20H79.5602V21H80.5602V20ZM80.5602 5.44922V6.44922H83.5875V5.44922V4.44922H80.5602V5.44922ZM83.5875 5.44922H82.5875V13.2324H83.5875H84.5875V5.44922H83.5875ZM83.5875 13.2324V14.2324H83.7535V13.2324V12.2324H83.5875V13.2324ZM83.7535 13.2324L84.5192 13.8756L88.0056 9.72522L87.2398 9.08203L86.4741 8.43884L82.9878 12.5892L83.7535 13.2324ZM87.2398 9.08203V10.082H90.7164V9.08203V8.08203H87.2398V9.08203ZM90.7164 9.08203L89.9558 8.43279L85.9129 13.1691L86.6734 13.8184L87.434 14.4676L91.477 9.73127L90.7164 9.08203ZM86.6734 13.8184L85.8487 14.3838L90.087 20.5655L90.9117 20L91.7365 19.4345L87.4982 13.2529L86.6734 13.8184ZM90.9117 20V19H87.3766V20V21H90.9117V20ZM87.3766 20L88.2058 19.4411L85.237 15.0368L84.4078 15.5957L83.5786 16.1546L86.5474 20.5589L87.3766 20ZM84.4078 15.5957L83.6587 14.9333L82.8384 15.861L83.5875 16.5234L84.3366 17.1858L85.157 16.2581L84.4078 15.5957ZM83.5875 16.5234H82.5875V20H83.5875H84.5875V16.5234H83.5875ZM83.5875 20V19H80.5602V20V21H83.5875V20ZM80.5602 20H81.5602V5.44922H80.5602H79.5602V20H80.5602Z" fill="#02080F" mask="url(#path-4-outside-1_476_2)"/>
<defs>
<linearGradient id="paint0_linear_476_2" x1="3.68421" y1="13.8333" x2="7.69905" y2="34.4559" gradientUnits="userSpaceOnUse">
<stop stop-color="#B384F5"/>
<stop offset="1" stop-color="#4FB3F4"/>
</linearGradient>
</defs>
</svg>
