<svg width="101" height="26" viewBox="0 0 101 26" fill="none" xmlns="http://www.w3.org/2000/svg">
<path d="M94.0695 1.87044C94.4935 1.6444 95.002 1.6444 95.426 1.87044L98.9176 3.73336C99.3879 3.98436 99.6813 4.47421 99.6813 5.0076V8.47388C99.6813 9.00728 99.3879 9.49713 98.9176 9.74807L95.426 11.611C95.002 11.8371 94.4935 11.8371 94.0695 11.611L90.5779 9.74807C90.1078 9.49713 89.8143 9.00728 89.8142 8.47388V5.0076C89.8143 4.47421 90.1078 3.98436 90.5779 3.73336L94.0695 1.87044Z" stroke="#5DDDB1"/>
<path d="M5.57415 0.907481C5.99812 0.681439 6.50662 0.681439 6.93059 0.907481L10.4222 2.7704C10.8923 3.02139 11.1858 3.51124 11.1859 4.04464V7.51092C11.1858 8.04431 10.8923 8.53416 10.4222 8.78516L6.93059 10.6481C6.50662 10.8742 5.99812 10.8742 5.57415 10.6481L2.08255 8.78516C1.61243 8.53416 1.31893 8.04431 1.31885 7.51092V4.04464C1.31893 3.51124 1.61243 3.02139 2.08255 2.7704L5.57415 0.907481Z" stroke="#B384F5"/>
<path d="M35.5838 17.1667C35.8569 16.8466 36.2538 16.6636 36.6687 16.6601L36.8471 16.6698L39.019 16.9216C39.5483 16.983 40.0005 17.3314 40.1954 17.8278L40.8531 19.503C41.0479 19.9994 40.9537 20.5628 40.6079 20.9686L39.1884 22.6335C38.9153 22.9537 38.5183 23.1365 38.1035 23.1402L37.9251 23.1306L35.7531 22.8787C35.2238 22.8173 34.7717 22.4689 34.5768 21.9724L33.9191 20.2972C33.7242 19.8007 33.8184 19.2374 34.1643 18.8317L35.5838 17.1667Z" stroke="#4FB3F4"/>
<path d="M7.95459 19.2593V5.2474H13.4593C14.5239 5.2474 15.4288 5.45115 16.174 5.85865C16.9255 6.26616 17.4985 6.82725 17.8931 7.54196C18.2875 8.25666 18.4848 9.07793 18.4848 10.0058C18.4848 10.9337 18.2845 11.7518 17.8836 12.4603C17.4828 13.1686 16.9035 13.7235 16.1459 14.1247C15.3881 14.5197 14.4706 14.7172 13.3935 14.7172H10.9041V19.2593H7.95459ZM10.9041 12.3474H12.905C13.7629 12.3474 14.3986 12.1311 14.8119 11.6985C15.2315 11.2596 15.4413 10.6954 15.4413 10.0058C15.4413 9.30363 15.2315 8.73939 14.8119 8.31308C14.3923 7.88676 13.7536 7.67361 12.8956 7.67361H10.9041V12.3474ZM22.4966 13.1843V19.2593H19.5847V8.74566H22.4497V10.6171H22.553C22.791 10.0027 23.1699 9.51678 23.6896 9.15944C24.2094 8.79581 24.8575 8.614 25.6341 8.614C26.73 8.614 27.6068 8.96822 28.2643 9.67662C28.9281 10.3788 29.26 11.3443 29.26 12.573V19.2593H26.348V13.0903C26.348 12.4446 26.1821 11.9399 25.8501 11.5763C25.5245 11.2126 25.0705 11.0308 24.4881 11.0308C23.8994 11.0308 23.4204 11.222 23.0509 11.6045C22.6814 11.9806 22.4966 12.5073 22.4966 13.1843ZM30.8765 19.2593V5.2474H36.3812C37.4457 5.2474 38.3507 5.45115 39.0958 5.85865C39.8474 6.26616 40.4204 6.82725 40.8149 7.54196C41.2094 8.25666 41.4067 9.07793 41.4067 10.0058C41.4067 10.9337 41.2064 11.7518 40.8055 12.4603C40.4047 13.1686 39.8254 13.7235 39.0677 14.1247C38.31 14.5197 37.3925 14.7172 36.3154 14.7172H33.826V19.2593H30.8765ZM33.826 12.3474H35.8269C36.6848 12.3474 37.3205 12.1311 37.7338 11.6985C38.1534 11.2596 38.3632 10.6954 38.3632 10.0058C38.3632 9.30363 38.1534 8.73939 37.7338 8.31308C37.3142 7.88676 36.6755 7.67361 35.8175 7.67361H33.826V12.3474ZM42.5628 5.2474H46.2076L50.059 14.6607H50.2186L54.0794 5.2474H57.7524V19.2593H54.8497V10.1374H54.7464L51.1111 19.1934H49.1477L45.55 10.1186H45.428V19.2593H42.5628V5.2474ZM62.3559 19.4568C61.3539 19.4568 60.521 19.1966 59.8572 18.6762C59.1996 18.1496 58.8709 17.366 58.8709 16.3252C58.8709 15.5415 59.0525 14.9272 59.4157 14.4821C59.7853 14.0307 60.2705 13.7015 60.8717 13.4947C61.4729 13.2815 62.118 13.1436 62.8068 13.0809C63.7212 12.9931 64.3724 12.9022 64.7607 12.8082C65.1552 12.7078 65.3525 12.4885 65.3525 12.1499V12.1029C65.3525 11.6702 65.2147 11.3348 64.9391 11.0966C64.6637 10.8584 64.266 10.7393 63.7462 10.7393C63.2264 10.7393 62.8005 10.8521 62.4687 11.0778C62.143 11.3035 61.9269 11.592 61.8205 11.943L59.1715 11.5198C59.422 10.6045 59.948 9.8929 60.7497 9.38512C61.5575 8.87105 62.5595 8.614 63.7556 8.614C64.5322 8.614 65.2617 8.73626 65.9443 8.98076C66.6332 9.22526 67.1905 9.61082 67.6163 10.1374C68.0421 10.6578 68.2551 11.3348 68.2551 12.1687V19.2593H65.5028V17.7923H65.4183C65.1615 18.2875 64.7795 18.6888 64.2722 18.996C63.7712 19.3032 63.1325 19.4568 62.3559 19.4568ZM61.642 16.2312C61.642 16.6324 61.786 16.9365 62.0741 17.1433C62.3685 17.344 62.7379 17.4443 63.1826 17.4443C63.8213 17.4443 64.3442 17.2594 64.7513 16.8895C65.1646 16.5195 65.3713 16.0588 65.3713 15.5071V14.388C65.2586 14.4632 65.0801 14.5322 64.8358 14.5949C64.5979 14.6576 64.3442 14.7109 64.075 14.7548C63.8057 14.7924 63.5646 14.8268 63.3516 14.8582C62.8381 14.9334 62.4248 15.0808 62.1117 15.3002C61.7986 15.5133 61.642 15.8237 61.642 16.2312ZM75.4044 8.74566V10.9462H73.4129V16.0243C73.4129 16.7077 73.7449 17.0494 74.4087 17.0494C74.5214 17.0494 74.6435 17.0399 74.775 17.0211C74.9128 17.0023 75.0318 16.9804 75.132 16.9553L75.5922 19.137C74.9723 19.3188 74.3711 19.4097 73.7887 19.4097C72.7491 19.4097 71.9413 19.1464 71.3651 18.6198C70.7953 18.0932 70.5103 17.3565 70.5103 16.4099V10.9462H69.0825V8.74566H70.5103V6.24422H73.4129V8.74566H75.4044ZM81.2668 19.4661C80.1897 19.4661 79.2659 19.2373 78.4957 18.7797C77.7254 18.322 77.1336 17.6857 76.7203 16.8706C76.3132 16.0557 76.1096 15.1152 76.1096 14.0494C76.1096 12.9712 76.3164 12.0245 76.7297 11.2095C77.1493 10.3945 77.7441 9.75819 78.5144 9.30049C79.2847 8.84283 80.199 8.614 81.2574 8.614C82.1717 8.614 82.9732 8.78014 83.6621 9.11241C84.351 9.44468 84.8958 9.91178 85.2966 10.5136C85.6974 11.1155 85.9165 11.8238 85.9542 12.6389H83.2112C83.1298 12.1185 82.9263 11.6985 82.6007 11.3788C82.275 11.0528 81.8429 10.8898 81.3043 10.8898C80.628 10.8898 80.0863 11.1625 79.6793 11.7079C79.2722 12.2471 79.0686 13.015 79.0686 14.0119C79.0686 15.0149 79.269 15.7955 79.6698 16.3534C80.0769 16.9114 80.6217 17.1904 81.3043 17.1904C81.8053 17.1904 82.228 17.0337 82.5725 16.7202C82.9168 16.4068 83.1298 15.9679 83.2112 15.4037H85.9542C85.9103 16.2061 85.6943 16.9145 85.306 17.5289C84.9177 18.137 84.3791 18.6135 83.6903 18.9583C83.0077 19.2969 82.1998 19.4661 81.2668 19.4661ZM89.9847 13.1843V19.2593H87.0728V5.2474H89.8909V10.6171H90.0223C90.2603 9.99642 90.6423 9.50738 91.1684 9.15003C91.7007 8.79268 92.3645 8.614 93.1598 8.614C94.2494 8.614 95.1262 8.96509 95.79 9.66728C96.4541 10.3694 96.786 11.338 96.786 12.573V19.2593H93.8831V13.0903C93.8831 12.4383 93.7203 11.9336 93.3947 11.5763C93.069 11.2126 92.6025 11.0308 91.995 11.0308C91.4063 11.0308 90.9241 11.222 90.5484 11.6045C90.1727 11.9806 89.9847 12.5073 89.9847 13.1843Z" fill="url(#paint0_linear_66_23)"/>
<mask id="mask0_66_23" style="mask-type:luminance" maskUnits="userSpaceOnUse" x="6" y="3" width="93" height="19">
<path d="M98.1143 3.85185H6.7334V21.1852H98.1143V3.85185Z" fill="white"/>
<path d="M7.95459 19.2593V5.2474H13.4593C14.5239 5.2474 15.4288 5.45115 16.174 5.85865C16.9255 6.26616 17.4985 6.82725 17.8931 7.54196C18.2875 8.25666 18.4848 9.07793 18.4848 10.0058C18.4848 10.9337 18.2845 11.7518 17.8836 12.4603C17.4828 13.1686 16.9035 13.7235 16.1459 14.1247C15.3881 14.5197 14.4706 14.7172 13.3935 14.7172H10.9041V19.2593H7.95459ZM10.9041 12.3474H12.905C13.7629 12.3474 14.3986 12.1311 14.8119 11.6985C15.2315 11.2596 15.4413 10.6954 15.4413 10.0058C15.4413 9.30363 15.2315 8.73939 14.8119 8.31308C14.3923 7.88676 13.7536 7.67361 12.8956 7.67361H10.9041V12.3474ZM22.4966 13.1843V19.2593H19.5847V8.74566H22.4497V10.6171H22.553C22.791 10.0027 23.1699 9.51678 23.6896 9.15944C24.2094 8.79581 24.8575 8.614 25.6341 8.614C26.73 8.614 27.6068 8.96822 28.2643 9.67662C28.9281 10.3788 29.26 11.3443 29.26 12.573V19.2593H26.348V13.0903C26.348 12.4446 26.1821 11.9399 25.8501 11.5763C25.5245 11.2126 25.0705 11.0308 24.4881 11.0308C23.8994 11.0308 23.4204 11.222 23.0509 11.6045C22.6814 11.9806 22.4966 12.5073 22.4966 13.1843ZM30.8765 19.2593V5.2474H36.3812C37.4457 5.2474 38.3507 5.45115 39.0958 5.85865C39.8474 6.26616 40.4204 6.82725 40.8149 7.54196C41.2094 8.25666 41.4067 9.07793 41.4067 10.0058C41.4067 10.9337 41.2064 11.7518 40.8055 12.4603C40.4047 13.1686 39.8254 13.7235 39.0677 14.1247C38.31 14.5197 37.3925 14.7172 36.3154 14.7172H33.826V19.2593H30.8765ZM33.826 12.3474H35.8269C36.6848 12.3474 37.3205 12.1311 37.7338 11.6985C38.1534 11.2596 38.3632 10.6954 38.3632 10.0058C38.3632 9.30363 38.1534 8.73939 37.7338 8.31308C37.3142 7.88676 36.6755 7.67361 35.8175 7.67361H33.826V12.3474ZM42.5628 5.2474H46.2076L50.059 14.6607H50.2186L54.0794 5.2474H57.7524V19.2593H54.8497V10.1374H54.7464L51.1111 19.1934H49.1477L45.55 10.1186H45.428V19.2593H42.5628V5.2474ZM62.3559 19.4568C61.3539 19.4568 60.521 19.1966 59.8572 18.6762C59.1996 18.1496 58.8709 17.366 58.8709 16.3252C58.8709 15.5415 59.0525 14.9272 59.4157 14.4821C59.7853 14.0307 60.2705 13.7015 60.8717 13.4947C61.4729 13.2815 62.118 13.1436 62.8068 13.0809C63.7212 12.9931 64.3724 12.9022 64.7607 12.8082C65.1552 12.7078 65.3525 12.4885 65.3525 12.1499V12.1029C65.3525 11.6702 65.2147 11.3348 64.9391 11.0966C64.6637 10.8584 64.266 10.7393 63.7462 10.7393C63.2264 10.7393 62.8005 10.8521 62.4687 11.0778C62.143 11.3035 61.9269 11.592 61.8205 11.943L59.1715 11.5198C59.422 10.6045 59.948 9.8929 60.7497 9.38512C61.5575 8.87105 62.5595 8.614 63.7556 8.614C64.5322 8.614 65.2617 8.73626 65.9443 8.98076C66.6332 9.22526 67.1905 9.61082 67.6163 10.1374C68.0421 10.6578 68.2551 11.3348 68.2551 12.1687V19.2593H65.5028V17.7923H65.4183C65.1615 18.2875 64.7795 18.6888 64.2722 18.996C63.7712 19.3032 63.1325 19.4568 62.3559 19.4568ZM61.642 16.2312C61.642 16.6324 61.786 16.9365 62.0741 17.1433C62.3685 17.344 62.7379 17.4443 63.1826 17.4443C63.8213 17.4443 64.3442 17.2594 64.7513 16.8895C65.1646 16.5195 65.3713 16.0588 65.3713 15.5071V14.388C65.2586 14.4632 65.0801 14.5322 64.8358 14.5949C64.5979 14.6576 64.3442 14.7109 64.075 14.7548C63.8057 14.7924 63.5646 14.8268 63.3516 14.8582C62.8381 14.9334 62.4248 15.0808 62.1117 15.3002C61.7986 15.5133 61.642 15.8237 61.642 16.2312ZM75.4044 8.74566V10.9462H73.4129V16.0243C73.4129 16.7077 73.7449 17.0494 74.4087 17.0494C74.5214 17.0494 74.6435 17.0399 74.775 17.0211C74.9128 17.0023 75.0318 16.9804 75.132 16.9553L75.5922 19.137C74.9723 19.3188 74.3711 19.4097 73.7887 19.4097C72.7491 19.4097 71.9413 19.1464 71.3651 18.6198C70.7953 18.0932 70.5103 17.3565 70.5103 16.4099V10.9462H69.0825V8.74566H70.5103V6.24422H73.4129V8.74566H75.4044ZM81.2668 19.4661C80.1897 19.4661 79.2659 19.2373 78.4957 18.7797C77.7254 18.322 77.1336 17.6857 76.7203 16.8706C76.3132 16.0557 76.1096 15.1152 76.1096 14.0494C76.1096 12.9712 76.3164 12.0245 76.7297 11.2095C77.1493 10.3945 77.7441 9.75819 78.5144 9.30049C79.2847 8.84283 80.199 8.614 81.2574 8.614C82.1717 8.614 82.9732 8.78014 83.6621 9.11241C84.351 9.44468 84.8958 9.91178 85.2966 10.5136C85.6974 11.1155 85.9165 11.8238 85.9542 12.6389H83.2112C83.1298 12.1185 82.9263 11.6985 82.6007 11.3788C82.275 11.0528 81.8429 10.8898 81.3043 10.8898C80.628 10.8898 80.0863 11.1625 79.6793 11.7079C79.2722 12.2471 79.0686 13.015 79.0686 14.0119C79.0686 15.0149 79.269 15.7955 79.6698 16.3534C80.0769 16.9114 80.6217 17.1904 81.3043 17.1904C81.8053 17.1904 82.228 17.0337 82.5725 16.7202C82.9168 16.4068 83.1298 15.9679 83.2112 15.4037H85.9542C85.9103 16.2061 85.6943 16.9145 85.306 17.5289C84.9177 18.137 84.3791 18.6135 83.6903 18.9583C83.0077 19.2969 82.1998 19.4661 81.2668 19.4661ZM89.9847 13.1843V19.2593H87.0728V5.2474H89.8909V10.6171H90.0223C90.2603 9.99642 90.6423 9.50738 91.1684 9.15003C91.7007 8.79268 92.3645 8.614 93.1598 8.614C94.2494 8.614 95.1262 8.96509 95.79 9.66728C96.4541 10.3694 96.786 11.338 96.786 12.573V19.2593H93.8831V13.0903C93.8831 12.4383 93.7203 11.9336 93.3947 11.5763C93.069 11.2126 92.6025 11.0308 91.995 11.0308C91.4063 11.0308 90.9241 11.222 90.5484 11.6045C90.1727 11.9806 89.9847 12.5073 89.9847 13.1843Z" fill="black"/>
</mask>
<g mask="url(#mask0_66_23)">
<path d="M7.95458 19.2593H6.99268V20.2222H7.95458V19.2593ZM7.95458 5.2474V4.28444H6.99268V5.2474H7.95458ZM16.174 5.85865L15.7129 6.70376L15.7159 6.70538L16.174 5.85865ZM16.1458 14.1247L16.5901 14.9789L16.5955 14.9759L16.1458 14.1247ZM10.9041 14.7172V13.7542H9.94223V14.7172H10.9041ZM10.9041 19.2593V20.2222H11.866V19.2593H10.9041ZM10.9041 12.3474H9.94223V13.3104H10.9041V12.3474ZM10.9041 7.67361V6.71065H9.94223V7.67361H10.9041ZM7.95458 19.2593H8.91649V5.2474H7.95458H6.99268V19.2593H7.95458ZM7.95458 5.2474V6.21036H13.4592V5.2474V4.28444H7.95458V5.2474ZM13.4592 5.2474V6.21036C14.4029 6.21036 15.1406 6.39081 15.7129 6.70376L16.174 5.85865L16.6351 5.01354C15.7169 4.51148 14.6448 4.28444 13.4592 4.28444V5.2474ZM16.174 5.85865L15.7159 6.70538C16.3138 7.02962 16.7498 7.46202 17.0511 8.00773L17.893 7.54196L18.7349 7.07619C18.2471 6.19249 17.5371 5.50269 16.6321 5.01192L16.174 5.85865ZM17.893 7.54196L17.0511 8.00773C17.3567 8.56135 17.5229 9.21834 17.5229 10.0058H18.4848H19.4467C19.4467 8.93752 19.2184 7.95197 18.7349 7.07619L17.893 7.54196ZM18.4848 10.0058H17.5229C17.5229 10.7909 17.3547 11.4412 17.0467 11.9856L17.8836 12.4603L18.7206 12.9348C19.2141 12.0624 19.4467 11.0764 19.4467 10.0058H18.4848ZM17.8836 12.4603L17.0467 11.9856C16.7414 12.5253 16.3007 12.9533 15.6961 13.2735L16.1458 14.1247L16.5955 14.9759C17.5065 14.4937 18.2243 13.8121 18.7206 12.9348L17.8836 12.4603ZM16.1458 14.1247L15.7015 13.2706C15.1122 13.5778 14.3554 13.7542 13.3935 13.7542V14.7172V15.6801C14.5858 15.6801 15.6639 15.4616 16.5901 14.9789L16.1458 14.1247ZM13.3935 14.7172V13.7542H10.9041V14.7172V15.6801H13.3935V14.7172ZM10.9041 14.7172H9.94223V19.2593H10.9041H11.866V14.7172H10.9041ZM10.9041 19.2593V18.2963H7.95458V19.2593V20.2222H10.9041V19.2593ZM10.9041 12.3474V13.3104H12.905V12.3474V11.3844H10.9041V12.3474ZM12.905 12.3474V13.3104C13.9099 13.3104 14.8454 13.0565 15.507 12.3642L14.8119 11.6985L14.117 11.0327C13.9519 11.2054 13.616 11.3844 12.905 11.3844V12.3474ZM14.8119 11.6985L15.507 12.3642C16.1214 11.7215 16.4032 10.9072 16.4032 10.0058H15.4412H14.4793C14.4793 10.4836 14.3417 10.7976 14.117 11.0327L14.8119 11.6985ZM15.4412 10.0058H16.4032C16.4032 9.09783 16.1245 8.27469 15.4971 7.63722L14.8119 8.31308L14.1267 8.98893C14.3385 9.20409 14.4793 9.50943 14.4793 10.0058H15.4412ZM14.8119 8.31308L15.4971 7.63722C14.8304 6.95988 13.8982 6.71065 12.8956 6.71065V7.67361V8.63658C13.6089 8.63658 13.9542 8.81365 14.1267 8.98893L14.8119 8.31308ZM12.8956 7.67361V6.71065H10.9041V7.67361V8.63658H12.8956V7.67361ZM10.9041 7.67361H9.94223V12.3474H10.9041H11.866V7.67361H10.9041ZM22.4966 19.2593V20.2222H23.4585V19.2593H22.4966ZM19.5847 19.2593H18.6227V20.2222H19.5847V19.2593ZM19.5847 8.74566V7.7827H18.6227V8.74566H19.5847ZM22.4497 8.74566H23.4116V7.7827H22.4497V8.74566ZM22.4497 10.6171H21.4878V11.58H22.4497V10.6171ZM22.553 10.6171V11.58H23.2117L23.4499 10.9652L22.553 10.6171ZM23.6896 9.15943L24.2342 9.95328L24.2406 9.94876L23.6896 9.15943ZM28.2643 9.67662L27.5596 10.3322L27.5657 10.3386L28.2643 9.67662ZM29.26 19.2593V20.2222H30.2219V19.2593H29.26ZM26.348 19.2593H25.3861V20.2222H26.348V19.2593ZM25.8501 11.5763L25.1339 12.2191L25.14 12.2259L25.8501 11.5763ZM23.0509 11.6045L23.7367 12.2796L23.7423 12.2739L23.0509 11.6045ZM22.4966 13.1843H21.5347V19.2593H22.4966H23.4585V13.1843H22.4966ZM22.4966 19.2593V18.2963H19.5847V19.2593V20.2222H22.4966V19.2593ZM19.5847 19.2593H20.5466V8.74566H19.5847H18.6227V19.2593H19.5847ZM19.5847 8.74566V9.70859H22.4497V8.74566V7.7827H19.5847V8.74566ZM22.4497 8.74566H21.4878V10.6171H22.4497H23.4116V8.74566H22.4497ZM22.4497 10.6171V11.58H22.553V10.6171V9.65409H22.4497V10.6171ZM22.553 10.6171L23.4499 10.9652C23.6211 10.5231 23.8813 10.1959 24.2342 9.95328L23.6896 9.15943L23.145 8.36564C22.4584 8.83766 21.9608 9.48227 21.6561 10.2689L22.553 10.6171ZM23.6896 9.15943L24.2406 9.94876C24.5656 9.7214 25.0098 9.57697 25.6341 9.57697V8.614V7.65104C24.7054 7.65104 23.8532 7.8702 23.1386 8.37009L23.6896 9.15943ZM25.6341 8.614V9.57697C26.5023 9.57697 27.1094 9.84716 27.5596 10.3322L28.2643 9.67662L28.969 9.02116C28.104 8.08937 26.9578 7.65104 25.6341 7.65104V8.614ZM28.2643 9.67662L27.5657 10.3386C28.0181 10.8171 28.2981 11.521 28.2981 12.573H29.26H30.2219C30.2219 11.1676 29.8382 9.94047 28.9629 9.01472L28.2643 9.67662ZM29.26 12.573H28.2981V19.2593H29.26H30.2219V12.573H29.26ZM29.26 19.2593V18.2963H26.348V19.2593V20.2222H29.26V19.2593ZM26.348 19.2593H27.3099V13.0903H26.348H25.3861V19.2593H26.348ZM26.348 13.0903H27.3099C27.3099 12.2808 27.0992 11.5172 26.5602 10.9266L25.8501 11.5763L25.14 12.2259C25.2648 12.3625 25.3861 12.6083 25.3861 13.0903H26.348ZM25.8501 11.5763L26.5664 10.9334C26.0229 10.3266 25.286 10.0679 24.4881 10.0679V11.0308V11.9938C24.8549 11.9938 25.026 12.0988 25.1339 12.2191L25.8501 11.5763ZM24.4881 11.0308V10.0679C23.6697 10.0679 22.9305 10.3439 22.3595 10.935L23.0509 11.6045L23.7423 12.2739C23.9101 12.1002 24.1292 11.9938 24.4881 11.9938V11.0308ZM23.0509 11.6045L22.3649 10.9292C21.7723 11.5326 21.5347 12.3294 21.5347 13.1843H22.4966H23.4585C23.4585 12.6851 23.5904 12.4286 23.7367 12.2796L23.0509 11.6045ZM30.8765 19.2593H29.9145V20.2222H30.8765V19.2593ZM30.8765 5.2474V4.28444H29.9145V5.2474H30.8765ZM39.0958 5.85865L38.6348 6.70376L38.6378 6.70538L39.0958 5.85865ZM39.0676 14.1247L39.5119 14.9789L39.5174 14.9759L39.0676 14.1247ZM33.826 14.7172V13.7542H32.8641V14.7172H33.826ZM33.826 19.2593V20.2222H34.7879V19.2593H33.826ZM33.826 12.3474H32.8641V13.3104H33.826V12.3474ZM33.826 7.67361V6.71065H32.8641V7.67361H33.826ZM30.8765 19.2593H31.8384V5.2474H30.8765H29.9145V19.2593H30.8765ZM30.8765 5.2474V6.21036H36.3811V5.2474V4.28444H30.8765V5.2474ZM36.3811 5.2474V6.21036C37.3248 6.21036 38.0625 6.39081 38.6348 6.70376L39.0958 5.85865L39.557 5.01354C38.6388 4.51148 37.5667 4.28444 36.3811 4.28444V5.2474ZM39.0958 5.85865L38.6378 6.70538C39.2357 7.02962 39.6717 7.46202 39.973 8.00773L40.8148 7.54196L41.6568 7.07619C41.169 6.19249 40.459 5.50269 39.554 5.01192L39.0958 5.85865ZM40.8148 7.54196L39.973 8.00773C40.2786 8.56135 40.4448 9.21834 40.4448 10.0058H41.4067H42.3686C42.3686 8.93752 42.1403 7.95197 41.6568 7.07619L40.8148 7.54196ZM41.4067 10.0058H40.4448C40.4448 10.7909 40.2766 11.4412 39.9686 11.9856L40.8055 12.4603L41.6425 12.9348C42.136 12.0624 42.3686 11.0764 42.3686 10.0058H41.4067ZM40.8055 12.4603L39.9686 11.9856C39.6633 12.5253 39.2225 12.9533 38.618 13.2735L39.0676 14.1247L39.5174 14.9759C40.4284 14.4937 41.1462 13.8121 41.6425 12.9348L40.8055 12.4603ZM39.0676 14.1247L38.6234 13.2706C38.0341 13.5778 37.2773 13.7542 36.3154 13.7542V14.7172V15.6801C37.5077 15.6801 38.5858 15.4616 39.5119 14.9789L39.0676 14.1247ZM36.3154 14.7172V13.7542H33.826V14.7172V15.6801H36.3154V14.7172ZM33.826 14.7172H32.8641V19.2593H33.826H34.7879V14.7172H33.826ZM33.826 19.2593V18.2963H30.8765V19.2593V20.2222H33.826V19.2593ZM33.826 12.3474V13.3104H35.8269V12.3474V11.3844H33.826V12.3474ZM35.8269 12.3474V13.3104C36.8318 13.3104 37.7673 13.0565 38.4289 12.3642L37.7338 11.6985L37.0389 11.0327C36.8738 11.2054 36.5379 11.3844 35.8269 11.3844V12.3474ZM37.7338 11.6985L38.4289 12.3642C39.0434 11.7215 39.3251 10.9072 39.3251 10.0058H38.3631H37.4012C37.4012 10.4836 37.2636 10.7976 37.0389 11.0327L37.7338 11.6985ZM38.3631 10.0058H39.3251C39.3251 9.09783 39.0464 8.27469 38.4189 7.63722L37.7338 8.31308L37.0486 8.98893C37.2603 9.20409 37.4012 9.50943 37.4012 10.0058H38.3631ZM37.7338 8.31308L38.4189 7.63722C37.7523 6.95988 36.8201 6.71065 35.8175 6.71065V7.67361V8.63658C36.5308 8.63658 36.8761 8.81365 37.0486 8.98893L37.7338 8.31308ZM35.8175 7.67361V6.71065H33.826V7.67361V8.63658H35.8175V7.67361ZM33.826 7.67361H32.8641V12.3474H33.826H34.7879V7.67361H33.826ZM42.5628 5.2474V4.28444H41.6009V5.2474H42.5628ZM46.2076 5.2474L47.0977 4.88241L46.853 4.28444H46.2076V5.2474ZM50.0589 14.6607L49.1688 15.0257L49.4135 15.6237H50.0589V14.6607ZM50.2186 14.6607V15.6237H50.8635L51.1085 15.0265L50.2186 14.6607ZM54.0794 5.2474V4.28444H53.4346L53.1896 4.88165L54.0794 5.2474ZM57.7524 5.2474H58.7143V4.28444H57.7524V5.2474ZM57.7524 19.2593V20.2222H58.7143V19.2593H57.7524ZM54.8497 19.2593H53.8878V20.2222H54.8497V19.2593ZM54.8497 10.1374H55.8116V9.17448H54.8497V10.1374ZM54.7464 10.1374V9.17448H54.0963L53.8539 9.77841L54.7464 10.1374ZM51.1111 19.1934V20.1564H51.7611L52.0035 19.5525L51.1111 19.1934ZM49.1477 19.1934L48.2537 19.5486L48.4946 20.1564H49.1477V19.1934ZM45.55 10.1186L46.4441 9.76339L46.2032 9.15567H45.55V10.1186ZM45.428 10.1186V9.15567H44.466V10.1186H45.428ZM45.428 19.2593V20.2222H46.3899V19.2593H45.428ZM42.5628 19.2593H41.6009V20.2222H42.5628V19.2593ZM42.5628 5.2474V6.21036H46.2076V5.2474V4.28444H42.5628V5.2474ZM46.2076 5.2474L45.3174 5.61239L49.1688 15.0257L50.0589 14.6607L50.9491 14.2958L47.0977 4.88241L46.2076 5.2474ZM50.0589 14.6607V15.6237H50.2186V14.6607V13.6978H50.0589V14.6607ZM50.2186 14.6607L51.1085 15.0265L54.9693 5.61315L54.0794 5.2474L53.1896 4.88165L49.3289 14.295L50.2186 14.6607ZM54.0794 5.2474V6.21036H57.7524V5.2474V4.28444H54.0794V5.2474ZM57.7524 5.2474H56.7905V19.2593H57.7524H58.7143V5.2474H57.7524ZM57.7524 19.2593V18.2963H54.8497V19.2593V20.2222H57.7524V19.2593ZM54.8497 19.2593H55.8116V10.1374H54.8497H53.8878V19.2593H54.8497ZM54.8497 10.1374V9.17448H54.7464V10.1374V11.1004H54.8497V10.1374ZM54.7464 10.1374L53.8539 9.77841L50.2185 18.8344L51.1111 19.1934L52.0035 19.5525L55.6389 10.4965L54.7464 10.1374ZM51.1111 19.1934V18.2304H49.1477V19.1934V20.1564H51.1111V19.1934ZM49.1477 19.1934L50.0418 18.8382L46.4441 9.76339L45.55 10.1186L44.6559 10.4739L48.2537 19.5486L49.1477 19.1934ZM45.55 10.1186V9.15567H45.428V10.1186V11.0816H45.55V10.1186ZM45.428 10.1186H44.466V19.2593H45.428H46.3899V10.1186H45.428ZM45.428 19.2593V18.2963H42.5628V19.2593V20.2222H45.428V19.2593ZM42.5628 19.2593H43.5247V5.2474H42.5628H41.6009V19.2593H42.5628ZM59.8572 18.6762L59.2563 19.4282L59.2642 19.4344L59.8572 18.6762ZM59.4157 14.4821L58.6717 13.8717L58.6708 13.8728L59.4157 14.4821ZM60.8717 13.4947L61.1844 14.4053L61.1929 14.4024L60.8717 13.4947ZM62.8068 13.0809L62.8939 14.0399L62.8986 14.0394L62.8068 13.0809ZM64.7607 12.8082L64.9869 13.7442L64.9974 13.7415L64.7607 12.8082ZM62.4687 11.0778L61.9282 10.2813L61.9212 10.2861L62.4687 11.0778ZM61.8204 11.943L61.6689 12.8939L62.4972 13.0263L62.7409 12.2227L61.8204 11.943ZM59.1715 11.5198L58.2438 11.2654L57.9602 12.3015L59.02 12.4708L59.1715 11.5198ZM60.7496 9.38512L61.264 10.1988L61.2656 10.1978L60.7496 9.38512ZM65.9443 8.98076L65.6203 9.88742L65.6229 9.88838L65.9443 8.98076ZM67.6163 10.1374L66.8687 10.7434L66.8723 10.7477L67.6163 10.1374ZM68.2551 19.2593V20.2222H69.217V19.2593H68.2551ZM65.5028 19.2593H64.5409V20.2222H65.5028V19.2593ZM65.5028 17.7923H66.4647V16.8293H65.5028V17.7923ZM65.4183 17.7923V16.8293H64.8337L64.5645 17.3486L65.4183 17.7923ZM64.2722 18.996L63.7744 18.172L63.7698 18.1748L64.2722 18.996ZM62.0741 17.1433L61.5134 17.9258L61.523 17.9327L61.5327 17.9393L62.0741 17.1433ZM64.7513 16.8895L64.1102 16.1715L64.1048 16.1764L64.7513 16.8895ZM65.3713 14.388H66.3332V12.5887L64.8377 13.5868L65.3713 14.388ZM64.8358 14.5949L64.5969 13.6621L64.591 13.6637L64.8358 14.5949ZM64.075 14.7548L64.2079 15.7085L64.2188 15.707L64.2295 15.7053L64.075 14.7548ZM62.1117 15.3002L62.6526 16.0966L62.6633 16.0891L62.1117 15.3002ZM62.3559 19.4568V18.4938C61.5269 18.4938 60.9144 18.2819 60.4502 17.918L59.8572 18.6762L59.2642 19.4344C60.1276 20.1112 61.181 20.4197 62.3559 20.4197V19.4568ZM59.8572 18.6762L60.4581 17.9243C60.0818 17.6229 59.8328 17.1489 59.8328 16.3252H58.8709H57.909C57.909 17.5829 58.3176 18.6763 59.2563 19.4282L59.8572 18.6762ZM58.8709 16.3252H59.8328C59.8328 15.6833 59.9813 15.3111 60.1607 15.0913L59.4157 14.4821L58.6708 13.8728C58.1237 14.5432 57.909 15.3999 57.909 16.3252H58.8709ZM59.4157 14.4821L60.1597 15.0924C60.4059 14.7917 60.7362 14.5595 61.1844 14.4053L60.8717 13.4947L60.559 12.584C59.8049 12.8435 59.1645 13.2696 58.6717 13.8717L59.4157 14.4821ZM60.8717 13.4947L61.1929 14.4024C61.7124 14.2181 62.2782 14.096 62.8939 14.0399L62.8068 13.0809L62.7197 12.1219C61.9577 12.1912 61.2335 12.3448 60.5506 12.5869L60.8717 13.4947ZM62.8068 13.0809L62.8986 14.0394C63.8154 13.9514 64.5265 13.8558 64.9869 13.7442L64.7607 12.8082L64.5345 11.8722C64.2185 11.9487 63.6269 12.0347 62.715 12.1224L62.8068 13.0809ZM64.7607 12.8082L64.9974 13.7415C65.3112 13.6617 65.6536 13.5084 65.9195 13.2125C66.2004 12.9001 66.3144 12.5198 66.3144 12.1499H65.3525H64.3906C64.3906 12.1406 64.3921 12.1073 64.4087 12.0601C64.4261 12.011 64.4541 11.9636 64.4895 11.9242C64.5582 11.8478 64.6047 11.8543 64.5239 11.8749L64.7607 12.8082ZM65.3525 12.1499H66.3144V12.1029H65.3525H64.3906V12.1499H65.3525ZM65.3525 12.1029H66.3144C66.3144 11.448 66.095 10.8235 65.5679 10.3678L64.9391 11.0966L64.3104 11.8255C64.3345 11.8463 64.3906 11.8926 64.3906 12.1029H65.3525ZM64.9391 11.0966L65.5679 10.3678C65.0558 9.92516 64.3994 9.77629 63.7462 9.77629V10.7393V11.7022C64.1325 11.7022 64.2714 11.7917 64.3104 11.8255L64.9391 11.0966ZM63.7462 10.7393V9.77629C63.0902 9.77629 62.4606 9.91919 61.9282 10.2813L62.4687 11.0778L63.0092 11.8744C63.1406 11.785 63.3627 11.7022 63.7462 11.7022V10.7393ZM62.4687 11.0778L61.9212 10.2861C61.4324 10.6248 61.0748 11.0871 60.9001 11.6633L61.8204 11.943L62.7409 12.2227C62.7791 12.0967 62.8536 11.9822 63.0162 11.8696L62.4687 11.0778ZM61.8204 11.943L61.972 10.992L59.3231 10.5689L59.1715 11.5198L59.02 12.4708L61.6689 12.8939L61.8204 11.943ZM59.1715 11.5198L60.0992 11.7742C60.2863 11.0906 60.6648 10.5784 61.264 10.1988L60.7496 9.38512L60.2352 8.57141C59.2312 9.20747 58.5577 10.1184 58.2438 11.2654L59.1715 11.5198ZM60.7496 9.38512L61.2656 10.1978C61.8849 9.80373 62.6967 9.57697 63.7556 9.57697V8.614V7.65104C62.4221 7.65104 61.23 7.93836 60.2336 8.57245L60.7496 9.38512ZM63.7556 8.614V9.57697C64.4295 9.57697 65.0488 9.68279 65.6203 9.88742L65.9443 8.98076L66.2683 8.07409C65.4745 7.78976 64.6347 7.65104 63.7556 7.65104V8.614ZM65.9443 8.98076L65.6229 9.88838C66.1584 10.0785 66.5633 10.3658 66.8687 10.7434L67.6163 10.1374L68.364 9.53155C67.8176 8.85594 67.1078 8.37206 66.2657 8.07316L65.9443 8.98076ZM67.6163 10.1374L66.8723 10.7477C67.126 11.0578 67.2932 11.5025 67.2932 12.1687H68.2551H69.217C69.217 11.1672 68.9584 10.2578 68.3604 9.52717L67.6163 10.1374ZM68.2551 12.1687H67.2932V19.2593H68.2551H69.217V12.1687H68.2551ZM68.2551 19.2593V18.2963H65.5028V19.2593V20.2222H68.2551V19.2593ZM65.5028 19.2593H66.4647V17.7923H65.5028H64.5409V19.2593H65.5028ZM65.5028 17.7923V16.8293H65.4183V17.7923V18.7552H65.5028V17.7923ZM65.4183 17.7923L64.5645 17.3486C64.3944 17.6767 64.1404 17.9504 63.7744 18.172L64.2722 18.996L64.7701 19.8199C65.4186 19.4271 65.9285 18.8983 66.272 18.2358L65.4183 17.7923ZM64.2722 18.996L63.7698 18.1748C63.4614 18.3639 63.0108 18.4938 62.3559 18.4938V19.4568V20.4197C63.2542 20.4197 64.0811 20.2423 64.7746 19.8171L64.2722 18.996ZM61.642 16.2312H60.6801C60.6801 16.896 60.9378 17.5124 61.5134 17.9258L62.0741 17.1433L62.6348 16.3609C62.6232 16.3526 62.6192 16.3477 62.6192 16.3477C62.619 16.3474 62.619 16.3475 62.6192 16.3477C62.6195 16.3481 62.6196 16.3486 62.6192 16.3477C62.6188 16.3471 62.6039 16.3163 62.6039 16.2312H61.642ZM62.0741 17.1433L61.5327 17.9393C62.0224 18.2731 62.593 18.4072 63.1826 18.4072V17.4443V16.4813C62.8828 16.4813 62.7145 16.4149 62.6155 16.3474L62.0741 17.1433ZM63.1826 17.4443V18.4072C64.0192 18.4072 64.7854 18.159 65.3978 17.6025L64.7513 16.8895L64.1048 16.1764C63.9031 16.3598 63.6235 16.4813 63.1826 16.4813V17.4443ZM64.7513 16.8895L65.3924 17.6074C66.0084 17.0561 66.3332 16.3347 66.3332 15.5071H65.3713H64.4094C64.4094 15.7828 64.3207 15.9831 64.1102 16.1715L64.7513 16.8895ZM65.3713 15.5071H66.3332V14.388H65.3713H64.4094V15.5071H65.3713ZM65.3713 14.388L64.8377 13.5868C64.8585 13.5729 64.8546 13.5792 64.8065 13.5978C64.7614 13.6152 64.6933 13.6374 64.5969 13.6621L64.8358 14.5949L65.0748 15.5277C65.3498 15.4571 65.655 15.356 65.9049 15.1893L65.3713 14.388ZM64.8358 14.5949L64.591 13.6637C64.3858 13.7177 64.1625 13.7649 63.9204 13.8044L64.075 14.7548L64.2295 15.7053C64.526 15.6569 64.8099 15.5975 65.0806 15.5261L64.8358 14.5949ZM64.075 14.7548L63.942 13.8011C63.671 13.8389 63.4275 13.8737 63.2117 13.9055L63.3516 14.8582L63.4909 15.811C63.701 15.7801 63.9404 15.7459 64.2079 15.7085L64.075 14.7548ZM63.3516 14.8582L63.2117 13.9055C62.6004 13.995 62.0319 14.1807 61.5601 14.5113L62.1117 15.3002L62.6633 16.0891C62.8177 15.9809 63.0753 15.8719 63.4909 15.811L63.3516 14.8582ZM62.1117 15.3002L61.5708 14.5039C60.9718 14.9117 60.6801 15.5332 60.6801 16.2312H61.642H62.6039C62.6039 16.191 62.6078 16.1646 62.6111 16.1492C62.6144 16.1343 62.6175 16.128 62.6181 16.1269C62.6185 16.1261 62.6191 16.1248 62.6218 16.1217C62.6248 16.1185 62.6335 16.1095 62.6526 16.0966L62.1117 15.3002ZM75.4044 8.74566H76.3663V7.7827H75.4044V8.74566ZM75.4044 10.9462V11.9092H76.3663V10.9462H75.4044ZM73.4129 10.9462V9.98323H72.451V10.9462H73.4129ZM74.775 17.0211L74.645 16.0669L74.639 16.0678L74.775 17.0211ZM75.132 16.9553L76.0731 16.7563L75.8669 15.7787L74.8987 16.0211L75.132 16.9553ZM75.5922 19.137L75.8627 20.0611L76.7175 19.8105L76.5334 18.938L75.5922 19.137ZM71.3651 18.6198L70.7127 19.3274L70.7165 19.3309L71.3651 18.6198ZM70.5103 10.9462H71.4722V9.98323H70.5103V10.9462ZM69.0825 10.9462H68.1206V11.9092H69.0825V10.9462ZM69.0825 8.74566V7.7827H68.1206V8.74566H69.0825ZM70.5103 8.74566V9.70859H71.4722V8.74566H70.5103ZM70.5103 6.24422V5.28126H69.5484V6.24422H70.5103ZM73.4129 6.24422H74.3748V5.28126H73.4129V6.24422ZM73.4129 8.74566H72.451V9.70859H73.4129V8.74566ZM75.4044 8.74566H74.4425V10.9462H75.4044H76.3663V8.74566H75.4044ZM75.4044 10.9462V9.98323H73.4129V10.9462V11.9092H75.4044V10.9462ZM73.4129 10.9462H72.451V16.0243H73.4129H74.3748V10.9462H73.4129ZM73.4129 16.0243H72.451C72.451 16.5078 72.5683 17.0485 72.9723 17.4644C73.3812 17.8853 73.9216 18.0123 74.4087 18.0123V17.0494V16.0864C74.3223 16.0864 74.2867 16.0749 74.2849 16.0744C74.2848 16.0743 74.2869 16.075 74.2909 16.0769C74.2948 16.0787 74.3003 16.0816 74.307 16.0856C74.3209 16.0942 74.3365 16.1062 74.3515 16.1217C74.3665 16.1371 74.3771 16.1521 74.3838 16.1636C74.3903 16.1749 74.3916 16.1801 74.3902 16.1759C74.3869 16.1654 74.3748 16.1201 74.3748 16.0243H73.4129ZM74.4087 17.0494V18.0123C74.5741 18.0123 74.7422 17.9985 74.911 17.9744L74.775 17.0211L74.639 16.0678C74.5448 16.0813 74.4687 16.0864 74.4087 16.0864V17.0494ZM74.775 17.0211L74.9049 17.9752C75.0665 17.9532 75.2217 17.9255 75.3653 17.8895L75.132 16.9553L74.8987 16.0211C74.8418 16.0353 74.7591 16.0513 74.645 16.0669L74.775 17.0211ZM75.132 16.9553L74.1908 17.1543L74.6511 19.336L75.5922 19.137L76.5334 18.938L76.0731 16.7563L75.132 16.9553ZM75.5922 19.137L75.3218 18.2129C74.7802 18.3717 74.2702 18.4467 73.7887 18.4467V19.4097V20.3726C74.472 20.3726 75.1644 20.2659 75.8627 20.0611L75.5922 19.137ZM73.7887 19.4097V18.4467C72.9078 18.4467 72.3605 18.2257 72.0137 17.9087L71.3651 18.6198L70.7165 19.3309C71.522 20.0672 72.5905 20.3726 73.7887 20.3726V19.4097ZM71.3651 18.6198L72.0176 17.9122C71.6873 17.6069 71.4722 17.1513 71.4722 16.4099H70.5103H69.5484C69.5484 17.5617 69.9033 18.5795 70.7127 19.3274L71.3651 18.6198ZM70.5103 16.4099H71.4722V10.9462H70.5103H69.5484V16.4099H70.5103ZM70.5103 10.9462V9.98323H69.0825V10.9462V11.9092H70.5103V10.9462ZM69.0825 10.9462H70.0444V8.74566H69.0825H68.1206V10.9462H69.0825ZM69.0825 8.74566V9.70859H70.5103V8.74566V7.7827H69.0825V8.74566ZM70.5103 8.74566H71.4722V6.24422H70.5103H69.5484V8.74566H70.5103ZM70.5103 6.24422V7.20718H73.4129V6.24422V5.28126H70.5103V6.24422ZM73.4129 6.24422H72.451V8.74566H73.4129H74.3748V6.24422H73.4129ZM73.4129 8.74566V9.70859H75.4044V8.74566V7.7827H73.4129V8.74566ZM76.7203 16.8706L75.8598 17.3014L75.8625 17.3066L76.7203 16.8706ZM76.7297 11.2095L75.8745 10.7683L75.8719 10.7735L76.7297 11.2095ZM85.9542 12.6389V13.6019H86.9615L86.915 12.5945L85.9542 12.6389ZM83.2112 12.6389L82.2609 12.7879L82.3883 13.6019H83.2112V12.6389ZM82.6007 11.3788L81.9204 12.0597L81.9271 12.0662L82.6007 11.3788ZM79.6793 11.7079L80.4466 12.2886L80.4498 12.2842L79.6793 11.7079ZM79.6698 16.3534L78.8889 16.9157L78.893 16.9214L79.6698 16.3534ZM83.2112 15.4037V14.4407H82.3783L82.2592 15.2659L83.2112 15.4037ZM85.9542 15.4037L86.9146 15.4562L86.9701 14.4407H85.9542V15.4037ZM85.306 17.5289L86.1165 18.0476L86.1189 18.0438L85.306 17.5289ZM83.6903 18.9583L84.1173 19.8212L84.1205 19.8196L83.6903 18.9583ZM81.2668 19.4661V18.5031C80.3273 18.5031 79.5808 18.3046 78.9866 17.9516L78.4956 18.7797L78.0047 19.6078C78.9511 20.17 80.0519 20.4291 81.2668 20.4291V19.4661ZM78.4956 18.7797L78.9866 17.9516C78.3764 17.589 77.9103 17.0902 77.578 16.4347L76.7203 16.8706L75.8625 17.3066C76.3567 18.2812 77.0743 19.055 78.0047 19.6078L78.4956 18.7797ZM76.7203 16.8706L77.5806 16.44C77.2507 15.7796 77.0715 14.991 77.0715 14.0494H76.1096H75.1477C75.1477 15.2395 75.3755 16.3318 75.8598 17.3014L76.7203 16.8706ZM76.1096 14.0494H77.0715C77.0715 13.0955 77.2538 12.3031 77.5873 11.6454L76.7297 11.2095L75.8719 10.7735C75.3788 11.7459 75.1477 12.8468 75.1477 14.0494H76.1096ZM76.7297 11.2095L77.5846 11.6506C77.9235 10.9924 78.394 10.4919 79.0054 10.1286L78.5144 9.30049L78.0234 8.47239C77.0943 9.02445 76.3748 9.79651 75.8745 10.7683L76.7297 11.2095ZM78.5144 9.30049L79.0054 10.1286C79.602 9.77408 80.3402 9.57697 81.2574 9.57697V8.614V7.65104C80.0579 7.65104 78.9674 7.91159 78.0234 8.47239L78.5144 9.30049ZM81.2574 8.614V9.57697C82.0551 9.57697 82.709 9.72159 83.2446 9.97996L83.6621 9.11241L84.0796 8.2449C83.2374 7.83868 82.2882 7.65104 81.2574 7.65104V8.614ZM83.6621 9.11241L83.2446 9.97996C83.7878 10.2419 84.1966 10.5978 84.4963 11.0478L85.2966 10.5136L86.097 9.97948C85.595 9.22573 84.9142 8.64745 84.0796 8.2449L83.6621 9.11241ZM85.2966 10.5136L84.4963 11.0478C84.7881 11.486 84.9627 12.0202 84.9933 12.6833L85.9542 12.6389L86.915 12.5945C86.8705 11.6276 86.6067 10.7448 86.097 9.97948L85.2966 10.5136ZM85.9542 12.6389V11.6759H83.2112V12.6389V13.6019H85.9542V12.6389ZM83.2112 12.6389L84.1615 12.4899C84.0532 11.7975 83.7695 11.1776 83.2742 10.6913L82.6007 11.3788L81.9271 12.0662C82.0831 12.2194 82.2064 12.4396 82.2609 12.7879L83.2112 12.6389ZM82.6007 11.3788L83.2808 10.6978C82.7443 10.1607 82.0513 9.9268 81.3043 9.9268V10.8898V11.8527C81.6344 11.8527 81.8057 11.9448 81.9204 12.0597L82.6007 11.3788ZM81.3043 10.8898V9.9268C80.3226 9.9268 79.4961 10.3444 78.9087 11.1316L79.6793 11.7079L80.4498 12.2842C80.6765 11.9805 80.9334 11.8527 81.3043 11.8527V10.8898ZM79.6793 11.7079L78.9119 11.1272C78.3312 11.8963 78.1067 12.9008 78.1067 14.0119H79.0686H80.0305C80.0305 13.1293 80.2131 12.5978 80.4466 12.2886L79.6793 11.7079ZM79.0686 14.0119H78.1067C78.1067 15.1281 78.3276 16.1343 78.8889 16.9157L79.6698 16.3534L80.4508 15.7912C80.2105 15.4567 80.0305 14.9019 80.0305 14.0119H79.0686ZM79.6698 16.3534L78.893 16.9214C79.4788 17.7243 80.3107 18.1534 81.3043 18.1534V17.1904V16.2275C80.9328 16.2275 80.6749 16.0985 80.4467 15.7855L79.6698 16.3534ZM81.3043 17.1904V18.1534C82.0247 18.1534 82.6839 17.9203 83.2195 17.4327L82.5725 16.7202L81.9254 16.0076C81.7722 16.1471 81.586 16.2275 81.3043 16.2275V17.1904ZM82.5725 16.7202L83.2195 17.4327C83.7637 16.9375 84.0573 16.2757 84.1633 15.5414L83.2112 15.4037L82.2592 15.2659C82.2023 15.6601 82.0701 15.876 81.9254 16.0076L82.5725 16.7202ZM83.2112 15.4037V16.3666H85.9542V15.4037V14.4407H83.2112V15.4037ZM85.9542 15.4037L84.9937 15.3511C84.9578 16.007 84.7846 16.5529 84.4931 17.0141L85.306 17.5289L86.1189 18.0438C86.6039 17.2762 86.8628 16.4051 86.9146 15.4562L85.9542 15.4037ZM85.306 17.5289L84.4955 17.0104C84.2072 17.4619 83.8047 17.8244 83.2601 18.0971L83.6903 18.9583L84.1205 19.8196C84.9537 19.4025 85.6283 18.8123 86.1165 18.0476L85.306 17.5289ZM83.6903 18.9583L83.2633 18.0954C82.7399 18.355 82.0844 18.5031 81.2668 18.5031V19.4661V20.4291C82.3153 20.4291 83.2754 20.2387 84.1173 19.8212L83.6903 18.9583ZM89.9847 19.2593V20.2222H90.9466V19.2593H89.9847ZM87.0728 19.2593H86.1108V20.2222H87.0728V19.2593ZM87.0728 5.2474V4.28444H86.1108V5.2474H87.0728ZM89.8908 5.2474H90.8527V4.28444H89.8908V5.2474ZM89.8908 10.6171H88.9289V11.58H89.8908V10.6171ZM90.0223 10.6171V11.58H90.6835L90.9204 10.9621L90.0223 10.6171ZM91.1684 9.15003L90.6326 8.35024L90.6282 8.3532L91.1684 9.15003ZM96.786 19.2593V20.2222H97.7479V19.2593H96.786ZM93.8831 19.2593H92.9212V20.2222H93.8831V19.2593ZM93.3947 11.5763L92.6784 12.2191L92.684 12.2252L93.3947 11.5763ZM90.5484 11.6045L91.2286 12.2854L91.2341 12.2797L90.5484 11.6045ZM89.9847 13.1843H89.0228V19.2593H89.9847H90.9466V13.1843H89.9847ZM89.9847 19.2593V18.2963H87.0728V19.2593V20.2222H89.9847V19.2593ZM87.0728 19.2593H88.0347V5.2474H87.0728H86.1108V19.2593H87.0728ZM87.0728 5.2474V6.21036H89.8908V5.2474V4.28444H87.0728V5.2474ZM89.8908 5.2474H88.9289V10.6171H89.8908H90.8527V5.2474H89.8908ZM89.8908 10.6171V11.58H90.0223V10.6171V9.65409H89.8908V10.6171ZM90.0223 10.6171L90.9204 10.9621C91.0912 10.5164 91.3526 10.1886 91.7085 9.94683L91.1684 9.15003L90.6282 8.3532C89.9321 8.82613 89.4293 9.47636 89.1243 10.2719L90.0223 10.6171ZM91.1684 9.15003L91.7041 9.94982C92.0435 9.72198 92.509 9.57697 93.1598 9.57697V8.614V7.65104C92.2199 7.65104 91.3577 7.86338 90.6326 8.35024L91.1684 9.15003ZM93.1598 8.614V9.57697C94.0225 9.57697 94.6334 9.84476 95.0914 10.3291L95.79 9.66728L96.4887 9.00532C95.619 8.08544 94.4764 7.65104 93.1598 7.65104V8.614ZM95.79 9.66728L95.0914 10.3291C95.543 10.8069 95.8239 11.5132 95.8239 12.573H96.786H97.7479C97.7479 11.1629 97.365 9.932 96.4887 9.00532L95.79 9.66728ZM96.786 12.573H95.8239V19.2593H96.786H97.7479V12.573H96.786ZM96.786 19.2593V18.2963H93.8831V19.2593V20.2222H96.786V19.2593ZM93.8831 19.2593H94.845V13.0903H93.8831H92.9212V19.2593H93.8831ZM93.8831 13.0903H94.845C94.845 12.283 94.6418 11.516 94.1052 10.9272L93.3947 11.5763L92.684 12.2252C92.7988 12.3512 92.9212 12.5936 92.9212 13.0903H93.8831ZM93.3947 11.5763L94.1108 10.9334C93.5595 10.3179 92.8036 10.0679 91.995 10.0679V11.0308V11.9938C92.4013 11.9938 92.5784 12.1075 92.6784 12.2191L93.3947 11.5763ZM91.995 11.0308V10.0679C91.1765 10.0679 90.438 10.3437 89.8627 10.9291L90.5484 11.6045L91.2341 12.2797C91.4103 12.1004 91.6362 11.9938 91.995 11.9938V11.0308ZM90.5484 11.6045L89.8682 10.9236C89.2663 11.5262 89.0228 12.325 89.0228 13.1843H89.9847H90.9466C90.9466 12.6894 91.079 12.435 91.2286 12.2854L90.5484 11.6045Z" fill="#02080F"/>
</g>
<defs>
<linearGradient id="paint0_linear_66_23" x1="3.12628" y1="13.321" x2="6.57579" y2="33.3381" gradientUnits="userSpaceOnUse">
<stop stop-color="#B384F5"/>
<stop offset="1" stop-color="#4FB3F4"/>
</linearGradient>
</defs>
</svg>
