<svg width="19" height="14" viewBox="0 0 19 14" fill="none" xmlns="http://www.w3.org/2000/svg">
<path d="M18.4016 3.71984C18.3962 3.62417 18.3568 3.53357 18.2903 3.46455V3.46256L15.4892 0.661396C15.414 0.585765 15.3117 0.54326 15.2051 0.543335H3.15328C3.04591 0.543448 2.94312 0.586703 2.86798 0.663384L0.113634 3.46455C0.0824213 3.4976 0.0570984 3.53575 0.0387909 3.57739C0.0332011 3.5894 0.0303875 3.60181 0.0259982 3.61419C0.0141058 3.64841 0.00697786 3.68409 0.00480197 3.72025C0.00480197 3.72865 0 3.73586 0 3.74467V4.94517C0 4.95076 0.00281365 4.95556 0.00318881 4.96077C0.00408918 5.00823 0.0135806 5.05516 0.0312128 5.09924C0.0312128 5.10206 0.0344016 5.10446 0.0356021 5.10723C0.0537971 5.14722 0.0785572 5.18388 0.108832 5.21569C0.118361 5.22514 0.128378 5.23411 0.138844 5.24251C0.16428 5.26498 0.192529 5.28412 0.222879 5.29935C0.235071 5.30591 0.247639 5.31177 0.260507 5.31694C0.304587 5.33465 0.351482 5.34429 0.398976 5.34534H1.59947V12.9485C1.59947 13.1695 1.77864 13.3487 1.99965 13.3487H2.39982C2.62083 13.3487 2.8 13.1695 2.8 12.9485V5.34531H4.00049V9.7471C4.00049 9.9681 4.17966 10.1473 4.40067 10.1473H4.80084C5.02185 10.1473 5.20102 9.9681 5.20102 9.7471V5.34531H13.2043V7.74629V9.7471C13.2043 9.9681 13.3835 10.1473 13.6045 10.1473H14.0046C14.2256 10.1473 14.4048 9.9681 14.4048 9.7471V5.34531H15.6053V10.9476V12.9484C15.6053 13.1694 15.7845 13.3486 16.0055 13.3486H16.4057C16.6267 13.3486 16.8058 13.1694 16.8058 12.9484V5.34531H18.0063C18.0542 5.34437 18.1016 5.33476 18.146 5.31691C18.159 5.31162 18.1717 5.30561 18.184 5.2989C18.2142 5.28374 18.2423 5.2648 18.2676 5.24248C18.2781 5.23396 18.2881 5.22484 18.2976 5.21528C18.3273 5.18399 18.3517 5.14801 18.3697 5.10885C18.3697 5.10524 18.3737 5.10284 18.3753 5.09924C18.3928 5.05501 18.4021 5.00797 18.4029 4.9604C18.4029 4.95518 18.4057 4.95121 18.4057 4.94599V3.74471C18.4064 3.73586 18.4019 3.72865 18.4016 3.71984Z" fill="currentColor"/>
</svg>
