<svg width="25" height="25" viewBox="0 0 25 25" fill="none" xmlns="http://www.w3.org/2000/svg">
<g clip-path="url(#clip0_114_1134)">
<path d="M24.6911 1.35084C24.4851 1.14493 24.2409 1.04163 23.9587 1.04163C23.6766 1.04163 23.4327 1.14493 23.2263 1.35084L21.1105 3.45076C19.9495 2.35471 18.6201 1.50545 17.1229 0.903379C15.6257 0.301251 14.0845 0.000244141 12.5002 0.000244141C9.51613 0.000244141 6.91209 0.903436 4.6876 2.71022C2.46306 4.51677 0.998281 6.87386 0.292969 9.78206V9.8959C0.292969 10.0369 0.344448 10.1591 0.447577 10.2621C0.550705 10.3652 0.672704 10.4167 0.813744 10.4167H4.05264C4.29145 10.4167 4.4541 10.2918 4.54098 10.0424C4.99665 8.95743 5.28409 8.32269 5.40358 8.13815C6.16305 6.90117 7.17216 5.92997 8.43091 5.22465C9.68978 4.5194 11.0461 4.16663 12.5 4.16663C14.6812 4.16663 16.5746 4.90996 18.1806 6.39653L15.9341 8.64251C15.7285 8.84871 15.6251 9.09299 15.6251 9.37513C15.6251 9.65721 15.7284 9.90138 15.9341 10.1075C16.1406 10.3137 16.3848 10.4167 16.6669 10.4167H23.9587C24.2408 10.4167 24.485 10.3137 24.6911 10.1075C24.8971 9.90138 25.0001 9.65727 25.0001 9.37513V2.08329C25.0001 1.80116 24.8977 1.5571 24.6911 1.35084Z" fill="white"/>
<path d="M24.0721 14.5837H20.9471C20.7084 14.5837 20.5456 14.7084 20.459 14.958C20.0035 16.0431 19.7157 16.6776 19.5965 16.8621C18.8368 18.0988 17.8277 19.0704 16.5693 19.7756C15.3103 20.4811 13.954 20.8335 12.5001 20.8335C11.4476 20.8335 10.433 20.6383 9.45656 20.2478C8.48 19.8568 7.6064 19.3033 6.83609 18.5871L9.06599 16.3574C9.27208 16.1514 9.37521 15.907 9.37521 15.625C9.37521 15.3429 9.27208 15.0985 9.06599 14.8926C8.85979 14.6863 8.61574 14.583 8.3336 14.583H1.04178C0.759471 14.583 0.515302 14.6863 0.309159 14.8926C0.103015 15.0985 0 15.343 0 15.6251V22.9169C0 23.1988 0.103015 23.4432 0.309216 23.6493C0.51553 23.8551 0.759699 23.9587 1.04184 23.9587C1.32391 23.9587 1.56797 23.8552 1.77423 23.6493L3.8738 21.5495C5.0349 22.656 6.35608 23.508 7.83722 24.1048C9.31837 24.7018 10.851 24.9999 12.4352 24.9999C15.4084 24.9999 18.0017 24.0966 20.2152 22.29C22.4287 20.4835 23.8827 18.126 24.5775 15.2181C24.5884 15.1964 24.5935 15.1584 24.5935 15.1044C24.5935 14.9631 24.5418 14.8414 24.4387 14.738C24.3356 14.6354 24.2134 14.5837 24.0721 14.5837Z" fill="currentColor"/>
</g>
<defs>
<clipPath id="clip0_114_1134">
<rect width="25" height="25" fill="currentColor"/>
</clipPath>
</defs>
</svg>
