<svg width="20" height="19" viewBox="0 0 20 19" fill="none" xmlns="http://www.w3.org/2000/svg">
<path d="M18.2838 6.52562H17.5644C17.3676 6.52562 17.361 6.39676 17.3542 6.33264C16.977 2.77834 13.961 0 10.3084 0H9.63121C6.00555 0 3.00728 2.7373 2.59414 6.25388C2.58359 6.34396 2.57807 6.52562 2.41237 6.52562H1.65575C1.15916 6.52562 0 7.04817 0 9.68711V11.0721C0 13.0293 1.15916 13.4807 1.65575 13.4807H4.06299C4.55958 13.4807 4.96587 13.0744 4.96587 12.5778V7.4285C4.96587 6.93191 4.55958 6.52562 4.06299 6.52562C4.06299 6.52562 3.94965 6.51568 3.97854 6.31381C4.37577 3.53458 6.74727 1.38086 9.63121 1.38086H10.3084C13.1727 1.38086 15.5506 3.50277 15.9531 6.25719C15.9661 6.34601 16.0144 6.52562 15.8766 6.52562C15.38 6.52562 14.9737 6.93191 14.9737 7.4285V12.5778C14.9737 13.0744 15.38 13.4807 15.8766 13.4807H16.3286C16.4529 13.4807 16.4318 13.58 16.4207 13.63C16.0524 15.2927 15.2256 17.179 13.3698 17.179H11.9951C11.8548 17.179 11.8202 17.0762 11.7935 17.0275C11.5708 16.6206 11.1389 16.3446 10.6424 16.3446H9.37576C8.65123 16.3446 8.06383 16.932 8.06383 17.6566C8.06383 18.3811 8.65123 18.9684 9.37576 18.9684H10.6424C11.1457 18.9684 11.5826 18.685 11.8026 18.2691C11.8218 18.2327 11.8375 18.1572 11.986 18.1572H13.3698C14.6303 18.1572 16.3172 17.5308 17.1951 14.5465C17.2886 14.2285 17.3645 13.9115 17.4263 13.6061C17.4348 13.5641 17.4402 13.4807 17.5713 13.4807H18.2838C18.7804 13.4807 19.9396 13.0293 19.9396 11.0721V9.68716C19.9395 7.08579 18.7804 6.52562 18.2838 6.52562Z" fill="currentColor"/>
</svg>
