<svg width="15" height="15" viewBox="0 0 15 15" fill="none" xmlns="http://www.w3.org/2000/svg">
<g clip-path="url(#clip0_91_798)">
<path d="M8.11687 7.3145L13.9332 3.64625C13.7133 3.30402 13.4147 3.01945 13.0623 2.81635L8.77474 0.341648C7.986 -0.113883 7.01411 -0.113883 6.22534 0.341648L1.9378 2.81635C1.62831 2.99517 1.35994 3.23715 1.15015 3.52656L7.16667 7.31453C7.45722 7.49664 7.82632 7.49664 8.11687 7.3145ZM6.50086 3.3542C6.50068 2.80238 6.9479 2.35489 7.49975 2.35471C8.05157 2.35453 8.49907 2.80175 8.49925 3.3536C8.49942 3.90544 8.05221 4.35292 7.50036 4.35309C7.50026 4.35309 7.50015 4.35309 7.50005 4.35309C6.94833 4.35307 6.50101 3.9059 6.50086 3.3542Z" fill="#02080D"/>
<path d="M7.44344 7.81408C7.27324 7.7879 7.11021 7.72717 6.96436 7.63561L0.950603 3.8492C0.761618 4.21234 0.662918 4.61566 0.662842 5.02501V9.97593C0.66307 10.8867 1.14907 11.7283 1.93783 12.1837L6.22538 14.659C6.59633 14.8734 7.01538 14.9907 7.44374 15C7.44374 15 7.44374 14.9985 7.44374 14.9975L7.44344 7.81408ZM2.21365 11.3149C1.81386 11.0204 1.50009 10.3628 1.50009 9.84151C1.50009 9.32018 1.81541 9.10681 2.2152 9.37498C2.62724 9.6505 2.97071 10.3258 2.97071 10.875C2.97071 11.4242 2.62569 11.6195 2.21365 11.3149ZM5.27855 9.86174C4.87876 9.56602 4.56345 8.90969 4.56345 8.38836C4.56345 7.86703 4.87876 7.65366 5.27855 7.92183C5.69059 8.19735 6.03376 8.87263 6.03376 9.42337C6.03376 9.97408 5.69059 10.1663 5.27855 9.86174Z" fill="#02080D"/>
<path d="M14.1123 3.97961L8.31921 7.63562C8.16845 7.73044 7.99934 7.79232 7.823 7.81716V14.9804C8.15844 14.9377 8.48196 14.8285 8.77474 14.6593L13.0623 12.1837C13.8512 11.7282 14.3372 10.8865 14.3373 9.97563V5.02501C14.3372 4.66453 14.2605 4.30821 14.1123 3.97961ZM9.46962 13.5223C9.06983 13.7893 8.75451 13.5771 8.75451 13.0558C8.75451 12.5345 9.06983 11.8782 9.46962 11.5825C9.88166 11.2763 10.2248 11.4701 10.2248 12.0208C10.2248 12.5715 9.88168 13.2472 9.46962 13.5223ZM9.46962 9.89052C9.06983 10.1574 8.75451 9.94532 8.75451 9.42398C8.75451 8.90265 9.06983 8.24633 9.46962 7.95061C9.88166 7.64571 10.2245 7.83827 10.2245 8.38774C10.2245 8.9372 9.88168 9.61533 9.46962 9.89052ZM12.822 11.3532C12.4222 11.6201 12.1069 11.4083 12.1069 10.8866C12.1069 10.365 12.4222 9.70898 12.822 9.41326C13.234 9.10867 13.5772 9.30093 13.5772 9.85163C13.5772 10.4024 13.234 11.078 12.822 11.3532ZM12.822 7.72134C12.4222 7.98982 12.1069 7.77554 12.1069 7.25512C12.1069 6.7347 12.4222 6.07746 12.822 5.78174C13.234 5.47563 13.5772 5.66971 13.5772 6.22011C13.5772 6.77051 13.234 7.44613 12.822 7.72134Z" fill="#02080D"/>
</g>
<defs>
<clipPath id="clip0_91_798">
<rect width="15" height="15" fill="white"/>
</clipPath>
</defs>
</svg>
