<svg width="26" height="27" viewBox="0 0 26 27" fill="none" xmlns="http://www.w3.org/2000/svg">
<path d="M20.5962 17.3235C20.3628 17.2302 20.1199 17.1423 19.8711 17.0581L21.09 20.7143C21.2713 21.2605 21.2286 21.8563 20.9712 22.371C20.7139 22.8857 20.2628 23.2773 19.7171 23.4599C19.5709 23.5086 16.0894 24.6566 12.519 24.6566C8.94863 24.6566 5.46722 23.5086 5.32057 23.4598C5.02561 23.3614 4.75524 23.2008 4.52775 22.9888C4.30026 22.7769 4.12096 22.5185 4.002 22.2312C3.88304 21.944 3.82719 21.6345 3.83823 21.3237C3.84927 21.013 3.92695 20.7082 4.066 20.4301L5.8609 16.8403C5.36235 16.9848 4.887 17.1456 4.44191 17.3235C1.95216 18.3194 0.581055 19.7673 0.581055 21.4008C0.581055 23.0342 1.95216 24.4821 4.44191 25.478C6.61693 26.348 9.48543 26.8271 12.519 26.8271C15.5526 26.8271 18.4212 26.348 20.5962 25.478C23.0859 24.4821 24.457 23.0342 24.457 21.4008C24.457 19.7673 23.0859 18.3194 20.5962 17.3235Z" fill="url(#paint0_linear_114_334)"/>
<path d="M6.12532 3.64119C6.63703 3.64535 7.1262 3.85229 7.48555 4.21662C7.84489 4.58095 8.04507 5.07292 8.04218 5.58464C8.04218 5.6566 8.07077 5.72561 8.12165 5.77649C8.17253 5.82737 8.24154 5.85596 8.3135 5.85596C8.38546 5.85596 8.45447 5.82737 8.50535 5.77649C8.55623 5.72561 8.58482 5.6566 8.58482 5.58464C8.58193 5.07292 8.78211 4.58095 9.14145 4.21662C9.5008 3.85229 9.98997 3.64535 10.5017 3.64119C10.5736 3.64119 10.6426 3.61261 10.6935 3.56173C10.7444 3.51084 10.773 3.44183 10.773 3.36987C10.773 3.29792 10.7444 3.22891 10.6935 3.17802C10.6426 3.12714 10.5736 3.09856 10.5017 3.09856C9.98997 3.0944 9.5008 2.88746 9.14145 2.52313C8.78211 2.1588 8.58193 1.66683 8.58482 1.15511C8.58482 1.08315 8.55623 1.01414 8.50535 0.963256C8.45447 0.912374 8.38546 0.883789 8.3135 0.883789C8.24154 0.883789 8.17253 0.912374 8.12165 0.963256C8.07077 1.01414 8.04218 1.08315 8.04218 1.15511C8.04507 1.66683 7.84489 2.1588 7.48555 2.52313C7.1262 2.88746 6.63703 3.0944 6.12532 3.09856C6.05336 3.09856 5.98435 3.12714 5.93347 3.17802C5.88259 3.22891 5.854 3.29792 5.854 3.36987C5.854 3.44183 5.88259 3.51084 5.93347 3.56173C5.98435 3.61261 6.05336 3.64119 6.12532 3.64119Z" fill="url(#paint1_linear_114_334)"/>
<path d="M25.2888 11.3737C24.7771 11.3695 24.2879 11.1626 23.9286 10.7983C23.5692 10.4339 23.369 9.94197 23.3719 9.43025C23.3719 9.3583 23.3433 9.28928 23.2925 9.2384C23.2416 9.18752 23.1726 9.15894 23.1006 9.15894C23.0287 9.15894 22.9596 9.18752 22.9088 9.2384C22.8579 9.28928 22.8293 9.3583 22.8293 9.43025C22.8322 9.94197 22.632 10.4339 22.2727 10.7983C21.9133 11.1626 21.4241 11.3695 20.9124 11.3737C20.8405 11.3737 20.7715 11.4023 20.7206 11.4532C20.6697 11.5041 20.6411 11.5731 20.6411 11.645C20.6411 11.717 20.6697 11.786 20.7206 11.8369C20.7715 11.8878 20.8405 11.9163 20.9124 11.9163C21.4241 11.9205 21.9133 12.1274 22.2727 12.4918C22.632 12.8561 22.8322 13.3481 22.8293 13.8598C22.8293 13.9317 22.8579 14.0008 22.9088 14.0516C22.9596 14.1025 23.0287 14.1311 23.1006 14.1311C23.1726 14.1311 23.2416 14.1025 23.2925 14.0516C23.3433 14.0008 23.3719 13.9317 23.3719 13.8598C23.369 13.3481 23.5692 12.8561 23.9286 12.4918C24.2879 12.1274 24.7771 11.9205 25.2888 11.9163C25.3607 11.9163 25.4298 11.8878 25.4806 11.8369C25.5315 11.786 25.5601 11.717 25.5601 11.645C25.5601 11.5731 25.5315 11.5041 25.4806 11.4532C25.4298 11.4023 25.3607 11.3737 25.2888 11.3737Z" fill="url(#paint2_linear_114_334)"/>
<path d="M1.37727 12.1876C1.88898 12.1917 2.37816 12.3987 2.7375 12.763C3.09685 13.1273 3.29703 13.6193 3.29414 14.131C3.29414 14.203 3.32272 14.272 3.3736 14.3229C3.42448 14.3738 3.4935 14.4023 3.56545 14.4023C3.63741 14.4023 3.70642 14.3738 3.7573 14.3229C3.80819 14.272 3.83677 14.203 3.83677 14.131C3.83388 13.6193 4.03406 13.1273 4.39341 12.763C4.75275 12.3987 5.24192 12.1917 5.75363 12.1876C5.82559 12.1876 5.8946 12.159 5.94548 12.1081C5.99636 12.0572 6.02495 11.9882 6.02495 11.9163C6.02495 11.8443 5.99636 11.7753 5.94548 11.7244C5.8946 11.6735 5.82559 11.6449 5.75363 11.6449C5.24192 11.6408 4.75275 11.4338 4.39341 11.0695C4.03406 10.7052 3.83388 10.2132 3.83677 9.70149C3.83677 9.62954 3.80819 9.56052 3.7573 9.50964C3.70642 9.45876 3.63741 9.43018 3.56545 9.43018C3.4935 9.43018 3.42448 9.45876 3.3736 9.50964C3.32272 9.56052 3.29414 9.62954 3.29414 9.70149C3.29703 10.2132 3.09685 10.7052 2.7375 11.0695C2.37816 11.4338 1.88898 11.6408 1.37727 11.6449C1.30532 11.6449 1.23631 11.6735 1.18542 11.7244C1.13454 11.7753 1.10596 11.8443 1.10596 11.9163C1.10596 11.9882 1.13454 12.0572 1.18542 12.1081C1.23631 12.159 1.30532 12.1876 1.37727 12.1876Z" fill="url(#paint3_linear_114_334)"/>
<path d="M10.3486 10.5478V12.2689L8.49594 14.1214C8.41337 14.2039 8.34465 14.2991 8.29245 14.4035L6.8291 17.3307C8.43123 17.8424 10.395 18.1447 12.5192 18.1447C14.8914 18.1447 17.0638 17.7681 18.7557 17.143L18.0321 14.9724L18.9162 13.204C19.018 13.0002 19.0532 12.7696 19.0167 12.5447C18.9801 12.3199 18.8738 12.1122 18.7127 11.9512L16.8603 10.0983V8.73903L19.899 4.6873C20.0457 4.49172 20.122 4.25234 20.1157 4.00795C20.1093 3.76356 20.0206 3.52848 19.864 3.34079C19.7073 3.1531 19.4919 3.0238 19.2526 2.97384C19.0133 2.92387 18.7641 2.95617 18.5454 3.0655L12.0338 6.32132C11.7764 6.45001 11.5806 6.6757 11.4895 6.94874L10.4043 10.2046C10.3675 10.3152 10.3487 10.4311 10.3486 10.5478Z" fill="url(#paint4_linear_114_334)"/>
<path d="M6.3649 18.2594L5.03694 20.9153C4.96741 21.0544 4.92856 21.2067 4.92305 21.3621C4.91753 21.5175 4.94546 21.6723 5.00496 21.8159C5.06445 21.9596 5.15412 22.0888 5.26789 22.1947C5.38165 22.3007 5.51686 22.381 5.66436 22.4302C5.80409 22.4769 9.12624 23.5712 12.5192 23.5712C15.9122 23.5712 19.2343 22.4769 19.3741 22.4302C19.6471 22.3392 19.8728 22.1434 20.0016 21.886C20.1303 21.6286 20.1515 21.3305 20.0605 21.0575L19.0767 18.1062C17.3432 18.8046 15.0431 19.2301 12.5192 19.2301C10.1859 19.2301 8.04477 18.866 6.3649 18.2594Z" fill="url(#paint5_linear_114_334)"/>
<defs>
<linearGradient id="paint0_linear_114_334" x1="12.519" y1="16.8403" x2="12.519" y2="26.8271" gradientUnits="userSpaceOnUse">
<stop stop-color="#6A37DF"/>
<stop offset="1" stop-color="#43AFF7"/>
</linearGradient>
<linearGradient id="paint1_linear_114_334" x1="8.3135" y1="0.883789" x2="8.3135" y2="5.85596" gradientUnits="userSpaceOnUse">
<stop stop-color="#6A37DF"/>
<stop offset="1" stop-color="#43AFF7"/>
</linearGradient>
<linearGradient id="paint2_linear_114_334" x1="23.1006" y1="9.15894" x2="23.1006" y2="14.1311" gradientUnits="userSpaceOnUse">
<stop stop-color="#6A37DF"/>
<stop offset="1" stop-color="#43AFF7"/>
</linearGradient>
<linearGradient id="paint3_linear_114_334" x1="3.56545" y1="9.43018" x2="3.56545" y2="14.4023" gradientUnits="userSpaceOnUse">
<stop stop-color="#6A37DF"/>
<stop offset="1" stop-color="#43AFF7"/>
</linearGradient>
<linearGradient id="paint4_linear_114_334" x1="13.4726" y1="2.95093" x2="13.4726" y2="18.1447" gradientUnits="userSpaceOnUse">
<stop stop-color="#6A37DF"/>
<stop offset="1" stop-color="#43AFF7"/>
</linearGradient>
<linearGradient id="paint5_linear_114_334" x1="12.5193" y1="18.1062" x2="12.5193" y2="23.5712" gradientUnits="userSpaceOnUse">
<stop stop-color="#6A37DF"/>
<stop offset="1" stop-color="#43AFF7"/>
</linearGradient>
</defs>
</svg>
